<svg xmlns="http://www.w3.org/2000/svg" viewBox="0 0 16.7 20.45"><defs><style>.cls-1{fill:#8b8b8b;}.cls-2{fill:#e32f44;}.cls-3{fill:none;}</style></defs><title>add another account0</title><g id="Layer_2" data-name="Layer 2"><g id="add_another_account" data-name="add another account"><path class="cls-1" d="M13.22,13.49A3.48,3.48,0,1,0,16.7,17,3.5,3.5,0,0,0,13.22,13.49Zm1.47,3.87H13.58v1.17a.36.36,0,0,1-.37.35.34.34,0,0,1-.35-.35V17.36H11.77a.36.36,0,0,1,0-.71h1.09v-1a.34.34,0,0,1,.35-.35.36.36,0,0,1,.37.35v1h1.11a.36.36,0,1,1,0,.71Z"/><path class="cls-2" d="M15.05,17a.36.36,0,0,1-.36.35H13.58v1.17a.36.36,0,0,1-.37.35.34.34,0,0,1-.35-.35V17.36H11.77a.36.36,0,0,1,0-.71h1.09v-1a.34.34,0,0,1,.35-.35.36.36,0,0,1,.37.35v1h1.11A.36.36,0,0,1,15.05,17Z"/><path class="cls-3" d="M7.66,5.74h1l.22.57h.56l-1-2.54H7.9l-1,2.54h.54Zm.51-1.38.35.95h-.7Z"/><path class="cls-3" d="M3,8.52A.53.53,0,0,0,3,9.57h8.11a.53.53,0,0,0,0-1.05Z"/><polygon class="cls-3" points="4.04 5.88 2.76 5.88 2.76 3.79 2.25 3.79 2.25 6.31 4.04 6.31 4.04 5.88"/><path class="cls-3" d="M7.48,13.76v3.06c0,.09.11.15.23.15H9.09V16.9a4,4,0,0,1,1.72-3.29H7.71C7.59,13.61,7.48,13.68,7.48,13.76Z"/><polygon class="cls-3" points="10.21 4.66 11.24 6.31 11.76 6.31 11.76 3.77 11.28 3.77 11.28 5.47 10.24 3.77 9.74 3.77 9.74 6.31 10.21 6.31 10.21 4.66"/><path class="cls-3" d="M5.54,6.36A1.18,1.18,0,0,0,6.43,6a1.3,1.3,0,0,0,.34-1,1.35,1.35,0,0,0-.34-1,1.15,1.15,0,0,0-.9-.35,1.35,1.35,0,0,0-.55.1.9.9,0,0,0-.33.23,1,1,0,0,0-.23.35,1.54,1.54,0,0,0-.12.65,1.29,1.29,0,0,0,.34,1A1.19,1.19,0,0,0,5.54,6.36ZM5,4.38a.67.67,0,0,1,.52-.21.63.63,0,0,1,.5.21,1,1,0,0,1,.2.65A1,1,0,0,1,6,5.7a.69.69,0,0,1-1,0A1,1,0,0,1,4.83,5,1,1,0,0,1,5,4.38Z"/><path class="cls-3" d="M3,12.07h8.11a.53.53,0,0,0,0-1.06H3A.53.53,0,0,0,3,12.07Z"/><path class="cls-3" d="M6.22,13.61H2.76c-.12,0-.22.07-.22.15v3.06c0,.09.1.15.22.15H6.22c.12,0,.22-.06.22-.15V13.76C6.44,13.68,6.34,13.61,6.22,13.61Z"/><polygon class="cls-1" points="8.16 4.36 7.82 5.31 8.52 5.31 8.16 4.36"/><path class="cls-1" d="M5.54,5.92A.67.67,0,0,0,6,5.7,1,1,0,0,0,6.24,5,1,1,0,0,0,6,4.38a.63.63,0,0,0-.5-.21A.67.67,0,0,0,5,4.38,1,1,0,0,0,4.83,5,1,1,0,0,0,5,5.7.67.67,0,0,0,5.54,5.92Z"/><path class="cls-1" d="M7.71,17c-.12,0-.23-.06-.23-.15V13.76c0-.08.11-.15.23-.15h3.1a4,4,0,0,1,2.29-.73,3.86,3.86,0,0,1,1.52.31V2.63L11.9,0H0V19H9.69a4.08,4.08,0,0,1-.6-2Zm2-13.2h.5l1,1.7V3.77h.48V6.31h-.52l-1-1.65V6.31H9.74Zm1.32,5.8H3A.53.53,0,0,1,3,8.52h8.11A.53.53,0,0,1,11.06,9.57ZM7.9,3.77h.54l1,2.54H8.9l-.22-.57h-1l-.21.57H6.91Zm-3.48.64a1,1,0,0,1,.23-.35A.9.9,0,0,1,5,3.83a1.35,1.35,0,0,1,.55-.1,1.15,1.15,0,0,1,.9.35,1.35,1.35,0,0,1,.34,1,1.3,1.3,0,0,1-.34,1,1.18,1.18,0,0,1-.89.35A1.19,1.19,0,0,1,4.64,6a1.29,1.29,0,0,1-.34-1A1.54,1.54,0,0,1,4.42,4.41ZM2.25,3.79h.51v2.1H4v.42H2.25ZM3,11h8.11a.53.53,0,0,1,0,1.06H3A.53.53,0,0,1,3,11Zm3.49,5.81c0,.09-.1.15-.22.15H2.76c-.12,0-.22-.06-.22-.15V13.76c0-.08.1-.15.22-.15H6.22c.12,0,.22.07.22.15Z"/></g></g></svg>