<?xml version="1.0" encoding="UTF-8"?>
<svg width="24px" height="25px" viewBox="0 0 24 25" version="1.1" xmlns="http://www.w3.org/2000/svg" xmlns:xlink="http://www.w3.org/1999/xlink">
    <!-- Generator: sketchtool 51.2 (57519) - http://www.bohemiancoding.com/sketch -->
    <title>EB7F8AB7-9D79-405F-942B-AE8C269EE3F6</title>
    <desc>Created with sketchtool.</desc>
    <defs></defs>
    <g id="Master" stroke="none" stroke-width="1" fill="none" fill-rule="evenodd">
        <g id="LoginPIN" transform="translate(-279.000000, -578.000000)" fill="#000000" fill-rule="nonzero">
            <path d="M302.607898,593.241935 C302.59785,593.216734 302.582778,593.196573 302.567706,593.176411 C301.919607,592.375 300.749009,592.254032 299.945165,592.904234 C298.940359,593.725806 297.478368,594.910282 296.528827,595.681452 C295.860631,596.220766 295.036691,596.528226 294.177583,596.558468 L291.605281,596.644153 C291.499777,596.649194 291.40432,596.59375 291.349056,596.508065 L291.062687,596.014113 C291.012446,595.933468 291.007422,595.837702 291.047614,595.752016 C291.087807,595.666331 291.163167,595.605847 291.2536,595.590726 L293.911309,595.086694 C294.845778,594.910282 295.498902,594.023185 295.393397,593.060484 C295.292917,592.133065 294.509168,591.4375 293.584748,591.4375 C293.559628,591.4375 293.529483,591.4375 293.494315,591.4375 L289.942329,591.291331 C288.525553,591.240927 287.309739,591.513105 285.88794,592.203629 L284.02905,593.105847 C283.767801,592.561492 283.220182,592.21371 282.617299,592.21371 L280.562472,592.21371 C279.703364,592.208669 279.005024,592.904234 279,593.766129 L279,601.44254 C279.005024,602.304435 279.703364,603 280.562472,603 L282.617299,603 C283.476407,603 284.169723,602.304435 284.174747,601.44254 L284.174747,600.923387 L286.149189,600.560484 C286.78724,600.464718 287.189162,600.429435 287.867406,600.459677 L293.268234,600.711694 C295.212532,600.797379 297.116638,600.152218 298.608774,598.902218 L302.351673,595.787298 L302.356697,595.782258 C303.105277,595.142137 303.215806,594.018145 302.607898,593.241935 Z M283.169942,601.44254 C283.169942,601.74496 282.923764,601.991935 282.622323,601.991935 L280.552424,601.991935 C280.250982,601.991935 280.004805,601.74496 280.004805,601.44254 L280.004805,593.771169 C280.004805,593.46875 280.250982,593.221774 280.552424,593.221774 L282.622323,593.221774 C282.923764,593.221774 283.169942,593.46875 283.169942,593.771169 L283.169942,601.44254 Z M301.708598,595.011089 L297.970722,598.120968 C296.6695,599.209677 295.006547,599.769153 293.31345,599.698589 L287.912622,599.446573 C287.153994,599.41129 286.691784,599.456653 285.993444,599.55746 C285.98842,599.55746 285.983396,599.55746 285.978372,599.5625 L284.174747,599.895161 L284.174747,594.149194 L286.32503,593.105847 C287.591085,592.490927 288.661202,592.248992 289.902137,592.294355 L293.479243,592.440524 C293.499339,592.440524 293.524459,592.440524 293.544555,592.440524 C293.549579,592.440524 293.569676,592.440524 293.584748,592.440524 C293.996718,592.445565 294.3484,592.753024 294.39864,593.166331 C294.44888,593.599798 294.157487,594.003024 293.730444,594.08871 L291.072735,594.592742 C290.374395,594.72379 289.917209,595.404234 290.047833,596.104839 C290.077977,596.251008 290.128218,596.392137 290.203578,596.518145 L290.489948,597.007056 C290.731101,597.415323 291.173215,597.657258 291.645474,597.642137 L294.217775,597.556452 C295.292917,597.516129 296.327866,597.128024 297.166878,596.457661 C298.116419,595.686492 299.583435,594.502016 300.58824,593.680444 C300.94997,593.398185 301.467445,593.443548 301.77391,593.78629 C301.783958,593.806452 301.79903,593.826613 301.814102,593.846774 C302.100472,594.194556 302.055256,594.71875 301.708598,595.011089 Z M294.991475,578 C298.613798,578 301.562901,580.96371 301.562901,584.597782 C301.562901,588.231855 298.613798,591.190524 294.991475,591.190524 C291.369152,591.190524 288.420049,588.226815 288.420049,584.592742 C288.420049,580.958669 291.369152,578 294.991475,578 Z M294.996499,590.18246 C298.071203,590.18246 300.56312,587.677419 300.56312,584.592742 C300.56312,581.508065 298.066179,579.008065 294.991475,579.008065 C291.916771,579.013105 289.429878,581.513105 289.424854,584.592742 C289.424854,584.597782 289.424854,584.597782 289.424854,584.597782 C289.424854,587.68246 291.921795,590.18246 294.996499,590.18246 Z M296.955869,583.040323 C297.232191,583.040323 297.458272,583.267137 297.458272,583.544355 C297.458272,583.821573 297.232191,584.048387 296.955869,584.048387 L296.28265,584.048387 C296.182169,584.441532 295.981208,584.799395 295.694839,585.086694 C295.318037,585.464718 294.815634,585.686492 294.283087,585.716734 L296.177145,587.516129 C296.378106,587.707661 296.388154,588.025202 296.197241,588.226815 C296.006328,588.428427 295.689815,588.438508 295.488854,588.246976 L292.680423,585.580645 C292.584966,585.484879 292.524678,585.353831 292.524678,585.217742 C292.519654,584.935484 292.745735,584.708669 293.027081,584.703629 L294.152463,584.703629 C294.463952,584.708669 294.765394,584.587702 294.991475,584.365927 C295.081907,584.270161 295.157268,584.164315 295.22258,584.048387 L293.027081,584.048387 C292.750759,584.048387 292.524678,583.821573 292.524678,583.544355 C292.524678,583.267137 292.750759,583.040323 293.027081,583.040323 L295.22258,583.040323 C295.036691,582.637097 294.624721,582.334677 294.152463,582.334677 L293.027081,582.334677 C292.750759,582.334677 292.524678,582.107863 292.524678,581.830645 C292.524678,581.553427 292.750759,581.326613 293.027081,581.326613 L296.955869,581.326613 C297.232191,581.326613 297.458272,581.553427 297.458272,581.830645 C297.458272,582.107863 297.232191,582.334677 296.955869,582.334677 L295.991256,582.334677 C296.131929,582.551411 296.227385,582.788306 296.28265,583.040323 L296.955869,583.040323 Z" id="ApplyNow"></path>
        </g>
    </g>
</svg>