<svg xmlns="http://www.w3.org/2000/svg" viewBox="0 0 23.51 16.63"><defs><style>.cls-1{fill:#dddcdc;}</style></defs><title>atm pin light0</title><g id="Layer_2" data-name="Layer 2"><g id="atm_pin_light" data-name="atm pin light"><path class="cls-1" d="M11.75,0h9.61a2,2,0,0,1,1.95,1.2,2,2,0,0,1,.2.93c0,1.45,0,2.89,0,4.34,0,2.66,0,5.32,0,8a2.08,2.08,0,0,1-.82,1.75,2.11,2.11,0,0,1-1.32.43H2.19a2.09,2.09,0,0,1-1.94-1.1A1.85,1.85,0,0,1,0,14.58V2.27A2.29,2.29,0,0,1,.19,1.21,2.07,2.07,0,0,1,2.15,0h9.6Zm0,7.58h-10c-.17,0-.17,0-.17.16v6.74a.43.43,0,0,0,.48.48H21.34a.8.8,0,0,0,.27,0,.44.44,0,0,0,.26-.46V7.79c0-.2,0-.21-.2-.21Zm0-3.57H21.7c.17,0,.17,0,.17-.17V2.14a.47.47,0,0,0,0-.17.43.43,0,0,0-.48-.32H2.14a.44.44,0,0,0-.5.51v1.6c0,.27,0,.25.25.25Z"/><path class="cls-1" d="M16,11.51h3a.35.35,0,0,1,.32.13.33.33,0,0,1-.24.52H13a.37.37,0,0,1-.4-.23.33.33,0,0,1,.25-.42H16Z"/></g></g></svg>