<svg xmlns="http://www.w3.org/2000/svg" viewBox="0 0 24.03 24.05"><defs><style>.cls-1{fill:#8b8b8b;}.cls-2{fill:#e32f44;}</style></defs><title>attractive intrest rates0</title><g id="Layer_2" data-name="Layer 2"><g id="attractive_intrest_rates" data-name="attractive intrest rates"><path class="cls-1" d="M23.73,11c-.18-.32-.37-.63-.56-1a.72.72,0,0,1-.08-.52c0-.28.1-.55.14-.82a2.69,2.69,0,0,0,0-1,2,2,0,0,0-.77-1.14c-.27-.21-.55-.4-.83-.6a.93.93,0,0,1-.35-.55c-.09-.36-.17-.73-.28-1.09a1.84,1.84,0,0,0-1-1.2,5.18,5.18,0,0,0-1.15-.32A1.14,1.14,0,0,1,18,2.31c-.17-.26-.36-.52-.56-.77A1.9,1.9,0,0,0,15.73.76a4.18,4.18,0,0,0-.79.11A1.41,1.41,0,0,1,13.67.65,4.86,4.86,0,0,0,12.9.22,1.82,1.82,0,0,0,11.47.09a3.58,3.58,0,0,0-.89.46,1.81,1.81,0,0,0-.27.18,1.32,1.32,0,0,1-1.14.2C8.85.86,8.54.82,8.22.77A4.23,4.23,0,0,0,7.6.88a2.15,2.15,0,0,0-1.07.81L6,2.48a.81.81,0,0,1-.48.3c-.36.09-.72.17-1.08.28A1.81,1.81,0,0,0,3.1,4.26a9.33,9.33,0,0,0-.28,1.07A1.09,1.09,0,0,1,2.4,6l-.24.17c-.27.22-.57.42-.82.65A1.7,1.7,0,0,0,.79,8.08,4.93,4.93,0,0,0,.92,9.29a1.12,1.12,0,0,1-.16,1,5,5,0,0,0-.32.48A2.27,2.27,0,0,0,0,12.14,2.12,2.12,0,0,0,.27,13c.17.31.37.6.55.9a.85.85,0,0,1,.13.66c-.06.37-.11.75-.17,1.12a1.81,1.81,0,0,0,.1.83,2,2,0,0,0,.71,1l.83.59a.94.94,0,0,1,.36.57c.09.36.17.72.28,1.09a1.82,1.82,0,0,0,1,1.19,4.59,4.59,0,0,0,1.14.31,1.12,1.12,0,0,1,.83.51c.11.18.26.36.38.54a2,2,0,0,0,2.09,1l.74-.13a1.21,1.21,0,0,1,.94.16,7.75,7.75,0,0,0,.84.5,1.84,1.84,0,0,0,1.69.12,7.77,7.77,0,0,0,1-.58,1.28,1.28,0,0,1,1-.19c.3.05.6.1.9.13a2,2,0,0,0,.83-.09,2,2,0,0,0,.95-.73l.61-.83a.65.65,0,0,1,.44-.29L19.59,21a1.9,1.9,0,0,0,1.32-1.11,6.15,6.15,0,0,0,.32-1.19,1,1,0,0,1,.41-.68c.27-.2.54-.39.81-.6a1.84,1.84,0,0,0,.8-1.67,6.41,6.41,0,0,0-.13-1,1.26,1.26,0,0,1,.16-1,7,7,0,0,0,.5-.83,1.94,1.94,0,0,0,.25-1A2.12,2.12,0,0,0,23.73,11Z"/><path class="cls-2" d="M14.56,12.44a2.12,2.12,0,1,0,2.12,2.11A2.13,2.13,0,0,0,14.56,12.44Zm0,3.16a1,1,0,1,1,1-1A1,1,0,0,1,14.56,15.6Z"/><path class="cls-2" d="M16,8.85,14.81,10,8.87,16a.52.52,0,0,1-.39.2.55.55,0,0,1-.42-.95l1.65-1.64,5.46-5.47A.59.59,0,0,1,16,8,.56.56,0,0,1,16,8.85Z"/><path class="cls-2" d="M9.34,7.37a2.12,2.12,0,0,0,.17,4.23,2.09,2.09,0,0,0,2.08-2.13A2.13,2.13,0,0,0,9.34,7.37Zm.14,3.13a1,1,0,0,1-1-1,1,1,0,0,1,1-1,1,1,0,0,1,0,2Z"/></g></g></svg>