<svg xmlns="http://www.w3.org/2000/svg" viewBox="0 0 30 21.31"><defs><style>.cls-1{fill:#898989;}.cls-2{fill:#e31837;}</style></defs><title>available wide range tractors0</title><g id="Layer_2" data-name="Layer 2"><g id="available_wide_range_tractors" data-name="available wide range tractors"><path class="cls-1" d="M6.38,12.47a2.46,2.46,0,1,0,2.46,2.46A2.46,2.46,0,0,0,6.38,12.47Z"/><path class="cls-1" d="M6.38,8.54a6.39,6.39,0,1,0,6.38,6.39A6.39,6.39,0,0,0,6.38,8.54Zm0,10A3.6,3.6,0,1,1,10,14.93,3.59,3.59,0,0,1,6.38,18.52Z"/><path class="cls-1" d="M25.45,12.22A4.55,4.55,0,1,0,30,16.76,4.55,4.55,0,0,0,25.45,12.22Zm0,6.68a2.14,2.14,0,1,1,2.14-2.14A2.13,2.13,0,0,1,25.45,18.9Z"/><path class="cls-1" d="M26.6,8.45a32.45,32.45,0,0,0-7.83-1.61V2.32c0-.64.31-.78.36-.8a.57.57,0,0,0,.39-.7.57.57,0,0,0-.7-.39,1.83,1.83,0,0,0-1.19,1.89V6.76l-.5,0L15.8,1a.57.57,0,0,0-.45-.43C15.07.55,8.59-.58,3.72.4a.57.57,0,0,0-.45.67.56.56,0,0,0,.67.44l.21,0-.9,5.2v0h-.2c-1.07,0-1.29.69-1.29.69L1.11,9.06l.54.27a7.33,7.33,0,0,1,12.07,5.6,7.24,7.24,0,0,1-.3,2H20c0-.08,0-.15,0-.23a5.5,5.5,0,0,1,1.83-4.09,11.36,11.36,0,0,0-4.55-2.11V10a11.64,11.64,0,0,1,5,2.32,5.44,5.44,0,0,1,5.08-.72C27.25,10.13,27.07,8.63,26.6,8.45ZM9.29,7A5.45,5.45,0,0,0,8,6.72H4.4l.84-4.88h4Zm6.79,4.37H14a7.52,7.52,0,0,0-3.61-3.9V1.84h4.41l1.25,5.4Zm7.19-1a.22.22,0,0,1-.11,0,.28.28,0,0,1-.26-.18L22.44,9a.28.28,0,0,1,.16-.37.29.29,0,0,1,.37.16L23.43,10A.28.28,0,0,1,23.27,10.37Zm1.34,0a.22.22,0,0,1-.11,0,.28.28,0,0,1-.26-.18L23.78,9a.28.28,0,0,1,.16-.37.29.29,0,0,1,.37.16L24.77,10A.29.29,0,0,1,24.61,10.37Z"/><path class="cls-2" d="M24.77,10a.29.29,0,0,1-.16.36.22.22,0,0,1-.11,0,.28.28,0,0,1-.26-.18L23.78,9a.28.28,0,0,1,.16-.37.29.29,0,0,1,.37.16Z"/><path class="cls-2" d="M23.43,10a.28.28,0,0,1-.16.36.22.22,0,0,1-.11,0,.28.28,0,0,1-.26-.18L22.44,9a.28.28,0,0,1,.16-.37.29.29,0,0,1,.37.16Z"/></g></g></svg>