<?xml version="1.0" encoding="UTF-8"?>
<svg width="18px" height="24px" viewBox="0 0 18 24" version="1.1" xmlns="http://www.w3.org/2000/svg" xmlns:xlink="http://www.w3.org/1999/xlink">
    <!-- Generator: sketchtool 51.2 (57519) - http://www.bohemiancoding.com/sketch -->
    <title>18E37F5B-7025-4789-B729-09C0D943E5DD</title>
    <desc>Created with sketchtool.</desc>
    <defs></defs>
    <g id="Master" stroke="none" stroke-width="1" fill="none" fill-rule="evenodd">
        <g id="LoginPIN" transform="translate(-175.000000, -579.000000)" fill="#000000" fill-rule="nonzero" stroke="#000000" stroke-width="0.3">
            <path d="M184.002033,580 C179.582897,580.004718 176.002265,583.735686 176,588.337983 C176,592.815788 183.380156,601.492608 183.693154,601.857181 C183.844865,602.033676 184.105251,602.048635 184.274722,601.890635 C184.285997,601.880127 184.296704,601.868976 184.306846,601.857181 C184.619844,601.488319 192,592.815788 192,588.337983 C191.997683,583.737348 188.419522,580.007077 184.002033,580 Z M184.002033,600.917871 C182.593544,599.202237 176.823678,592.000862 176.823678,588.333693 C176.823678,584.204859 180.037516,580.857817 184.002033,580.857817 C187.966551,580.857817 191.180389,584.204859 191.180389,588.333693 C191.180389,592.000862 185.410523,599.210815 184.002033,600.917871 Z M184.146177,584.181859 C181.751127,584.184218 179.811365,586.208237 179.81363,588.702555 C179.815895,591.196873 181.759364,593.217032 184.154414,593.214673 C186.547868,593.212314 188.486961,591.190921 188.486961,588.698266 C188.482431,586.204216 186.54097,584.184218 184.146177,584.181859 Z M184.146177,592.361145 C182.206003,592.361145 180.63319,590.723143 180.63319,588.702555 C180.63319,586.681967 182.206003,585.043965 184.146177,585.043965 C186.086351,585.043965 187.659165,586.681967 187.659165,588.702555 C187.656899,590.722178 186.085373,592.358786 184.146177,592.361145 Z" id="Branches"></path>
        </g>
    </g>
</svg>