<svg xmlns="http://www.w3.org/2000/svg" viewBox="0 0 15.79 15.82"><defs><style>.cls-1{fill:#f7f7f7;}</style></defs><title>call0</title><g id="Layer_2" data-name="Layer 2"><g id="call"><path class="cls-1" d="M7.58,9.73A12.72,12.72,0,0,1,4.84,6.46l-.36-.67C4.61,5.65,5.55,4.64,6,4.09s-.23-1.32-.23-1.32S3.63.67,3.15.25a1,1,0,0,0-1-.19C1.11.72.06,1.28,0,4c0,2.55,1.93,5.18,4,7.21,2.09,2.3,5,4.61,7.76,4.6s3.29-1.1,3.94-2.11a1,1,0,0,0-.19-1C15.12,12.2,13,10.09,13,10.09s-.63-.75-1.32-.23c-.51.39-1.44,1.24-1.66,1.45A17.57,17.57,0,0,1,7.58,9.73Z"/></g></g></svg>