<?xml version="1.0" encoding="utf-8"?>
<!-- Generator: Adobe Illustrator 22.0.1, SVG Export Plug-In . SVG Version: 6.00 Build 0)  -->
<svg version="1.1" id="Layer_1" xmlns="http://www.w3.org/2000/svg" xmlns:xlink="http://www.w3.org/1999/xlink" x="0px" y="0px"
	 viewBox="0 0 20 16.7" style="enable-background:new 0 0 20 16.7;" xml:space="preserve">
<style type="text/css">
	.st0{fill:#FFFFFF;}
	.st1{fill:#E32F44;}
</style>
<title>Call executive0</title>
<circle class="st0" cx="3.7" cy="12.8" r="3.2"/>
<path class="st1" d="M3.8,8.8C1.7,8.8,0,10.5,0,12.6s1.7,3.8,3.8,3.8s3.8-1.7,3.8-3.8l0,0C7.6,10.5,5.9,8.8,3.8,8.8z M2.8,11.2
	L2.8,11.2c0-0.6,0.2-0.8,0.4-0.9c0.2-0.1,0.4-0.2,0.6-0.2c0.2,0,0.4,0.1,0.6,0.2c0.2,0.1,0.3,0.3,0.4,0.8c0,0.1,0,0.1,0,0.2
	s0.1,0.2,0.1,0.3c0,0.1-0.1,0.2-0.2,0.3c-0.2,0.4-0.5,0.9-0.9,0.9S3,12.3,2.9,11.9c-0.1,0-0.1-0.1-0.2-0.3S2.7,11.3,2.8,11.2z
	 M5.5,14.5L5.5,14.5c-0.5,0.2-1,0.3-1.5,0.3H3.6c-0.5,0-1-0.1-1.5-0.3l0,0c-0.2-0.1-0.4-0.2-0.4-0.4c0-0.9,0.2-1,0.5-1.1l0,0
	c0.3,0,0.6-0.2,0.9-0.4l0,0l0.4,0.9l0.1-0.3c0,0,0,0,0-0.1l-0.1-0.2C3.5,13,3.6,13,3.6,13h0.3C4,13,4,13,4,13.1l-0.1,0.2
	c0,0,0,0.1,0,0.1L4,13.7l0.4-0.9l0,0c0.3,0.2,0.6,0.3,0.9,0.4l0,0c0.3,0.1,0.5,0.2,0.5,1.1C5.8,14.3,5.7,14.4,5.5,14.5z"/>
<path class="st1" d="M11.6,0C7,0,3.3,3.7,3.3,8.4v0.3c0.2,0,0.3,0,0.5,0c2.2,0,4.1,1.8,4.1,4c0,1-0.3,1.9-0.9,2.6
	c3.8,2.6,9,1.6,11.6-2.2s1.6-9-2.2-11.6C14.9,0.5,13.3,0,11.6,0z M14.9,12c-0.2,0.2-0.4,0.4-0.7,0.7c-0.3,0.3-0.7,0.5-1.1,0.4
	c-0.6-0.1-1.2-0.2-1.8-0.5C10.1,12,9,11.1,8.2,10.1C7.5,9.3,7,8.4,6.6,7.5C6.4,7,6.3,6.5,6.3,6c0-0.3,0.1-0.6,0.4-0.8l0.7-0.7
	c0.3-0.3,0.7-0.3,1,0c0,0,0,0,0,0L9,5.1l0.6,0.6c0.3,0.2,0.3,0.7,0.1,1c0,0-0.1,0.1-0.1,0.1L8.9,7.4c0,0.1,0,0.1,0,0.2
	C9,8,9.3,8.3,9.5,8.6c0.5,0.6,1.1,1.2,1.8,1.6c0.1,0.1,0.3,0.2,0.5,0.3c0.1,0.1,0.1,0.1,0.2,0l0.7-0.7c0.2-0.3,0.7-0.3,0.9-0.1
	c0,0,0,0,0.1,0.1l1.2,1.2C15.2,11.3,15.2,11.7,14.9,12C14.9,12,14.9,12,14.9,12z M11.2,6l0.1-0.8c1.4,0.2,2.6,1.3,2.8,2.8l-0.7,0.1
	c-0.1-0.5-0.4-1-0.7-1.4C12.2,6.3,11.7,6.1,11.2,6z M15.3,8c-0.4-2.1-2-3.7-4.1-3.9l0.1-0.8c2.4,0.3,4.3,2.2,4.7,4.6L15.3,8z"/>
</svg>
