<svg xmlns="http://www.w3.org/2000/svg" viewBox="0 0 20 16.7"><defs><style>.cls-1{fill:#e32f44;}.cls-2{fill:#8b8b8b;}</style></defs><title>Call executive0</title><g id="Layer_2" data-name="Layer 2"><g id="Call_executive" data-name="Call executive"><circle class="cls-1" cx="3.65" cy="12.8" r="3.2"/><path class="cls-2" d="M3.78,8.84a3.78,3.78,0,1,0,3.78,3.78A3.78,3.78,0,0,0,3.78,8.84Zm-1,2.4v-.05c0-.55.16-.78.39-.88a1,1,0,0,1,.61-.19,1,1,0,0,1,.61.2c.21.09.35.3.38.76,0,.06,0,.11,0,.17s.09.16.06.33a.37.37,0,0,1-.15.29c-.16.44-.51.86-.91.86s-.75-.42-.91-.86c-.07,0-.14-.13-.17-.29S2.71,11.26,2.78,11.24Zm2.71,3.31h0A4.43,4.43,0,0,1,4,14.8H3.59a4.43,4.43,0,0,1-1.52-.25h0c-.22-.1-.36-.22-.36-.37,0-.89.19-1,.51-1.08h0a1.85,1.85,0,0,0,.89-.35h0l.43.92.11-.33a.11.11,0,0,1-.05-.08l-.08-.2a.11.11,0,0,1,.11-.1h.28a.11.11,0,0,1,.11.1l-.08.2a.11.11,0,0,1-.05.08l.11.33.43-.92h0a1.85,1.85,0,0,0,.89.35h0c.32.07.51.19.51,1.08C5.85,14.33,5.71,14.45,5.49,14.55Z"/><path class="cls-2" d="M11.65,0A8.35,8.35,0,0,0,3.3,8.35v.26a4.19,4.19,0,0,1,.5,0,4.06,4.06,0,0,1,3.13,6.66A8.35,8.35,0,1,0,11.65,0Zm3.26,12c-.22.22-.45.43-.66.66a1.31,1.31,0,0,1-1.11.43,4.81,4.81,0,0,1-1.78-.52,9.58,9.58,0,0,1-3.19-2.5,8.62,8.62,0,0,1-1.56-2.6A3.28,3.28,0,0,1,6.35,6a1.15,1.15,0,0,1,.37-.79l.72-.72a.69.69,0,0,1,1,0l.59.58.56.57a.68.68,0,0,1,0,1.06l-.72.71a.14.14,0,0,0,0,.19,4.62,4.62,0,0,0,.64,1,7.65,7.65,0,0,0,1.81,1.64c.15.09.31.16.47.25a.15.15,0,0,0,.2,0l.72-.72a.67.67,0,0,1,1,0L14.91,11A.69.69,0,0,1,14.91,12ZM11.17,6l.1-.75A3.34,3.34,0,0,1,14.11,8l-.74.13a2.65,2.65,0,0,0-.73-1.39A2.53,2.53,0,0,0,11.17,6Zm4.17,2a4.81,4.81,0,0,0-4.07-3.95l.1-.75a5.57,5.57,0,0,1,4.72,4.57Z"/></g></g></svg>