<svg xmlns="http://www.w3.org/2000/svg" viewBox="0 0 27.22 12.58"><defs><style>.cls-1{fill:#dddcdc;}</style></defs><title>car_light0</title><g id="Layer_2" data-name="Layer 2"><g id="car_light"><path class="cls-1" d="M.41,5.74A4.54,4.54,0,0,1,.22,7,3.35,3.35,0,0,0,.29,9.56a1.91,1.91,0,0,0,1.45,1,1.64,1.64,0,0,1,0-.23s0-.11,0-.16v-.06a2.83,2.83,0,0,1,5.65.06c0,.05,0,.1,0,.15a1.5,1.5,0,0,1,0,.22l0,.21L18.79,11a1.74,1.74,0,0,1-.05-.22,1.43,1.43,0,0,1,0-.22,1.84,1.84,0,0,1,0-.41,2.83,2.83,0,1,1,5.65,0,3.07,3.07,0,0,1,0,.53,2.25,2.25,0,0,1-.05.22c0,.07-.05.14-.07.21h.41a4.72,4.72,0,0,0,.65,0c1.17,0,1.87-.36,2-1V7.59l0-.06A1.24,1.24,0,0,1,27,7a1.65,1.65,0,0,0-.62-1c-.1-.33-.61-1.19-3.3-1.72a13.4,13.4,0,0,1-2.72-.7l-.11-.1c-.16-.15-3.92-3.6-8.71-3.51A33.64,33.64,0,0,0,4.91.77,7.28,7.28,0,0,1,4,.93H3.8a.53.53,0,0,0-.43.19.87.87,0,0,0-.12.67l-.46.38A4.45,4.45,0,0,0,1.45,3.53a.22.22,0,0,1,0,.06H1.19c-.43,0-.56.42-.62.73s-.12,1-.16,1.43Z"/><path class="cls-1" d="M23.68,11.14a1.8,1.8,0,0,0,.08-.21l.06-.22a2.24,2.24,0,0,0,.06-.52,2.39,2.39,0,1,0-4.78,0,3,3,0,0,0,0,.42,1.41,1.41,0,0,0,.06.22,1.87,1.87,0,0,0,.07.22,2.39,2.39,0,0,0,4.42.09Z"/><path class="cls-1" d="M6.85,10.76a1.6,1.6,0,0,0,.05-.21c0-.07,0-.14,0-.22s0-.09,0-.14a2.39,2.39,0,0,0-4.78,0h0a1.49,1.49,0,0,0,0,.21.78.78,0,0,0,0,.22,2.38,2.38,0,0,0,4.66.14Z"/><path class="cls-1" d="M18.84,11.14A2.67,2.67,0,0,0,20,12.28h-.16a2.37,2.37,0,0,1-2-1.15Z"/><path class="cls-1" d="M7.22,11.07H8a2.14,2.14,0,0,1-1.71,1.21,2,2,0,0,1-.43,0A2.08,2.08,0,0,0,7.22,11.07Z"/></g></g></svg>