<svg xmlns="http://www.w3.org/2000/svg" viewBox="0 0 20.92 20"><defs><style>.cls-1{fill:#e32f44;}.cls-2{fill:#8b8b8b;}</style></defs><title>cash payment points0</title><g id="Layer_2" data-name="Layer 2"><g id="cash_payment_points" data-name="cash payment points"><circle class="cls-1" cx="11.66" cy="6.04" r="4.33"/><ellipse class="cls-2" cx="11.35" cy="19.55" rx="9.57" ry="0.45"/><path class="cls-2" d="M11.69.63A5.35,5.35,0,1,0,17,6,5.35,5.35,0,0,0,11.69.63Zm1.08,3.78h.74a.32.32,0,0,1,.33.32.33.33,0,0,1-.33.33h-.74a1.87,1.87,0,0,1-1.86,1.56h-.23l2,1.91a.33.33,0,0,1,0,.46.28.28,0,0,1-.22.1h0A.32.32,0,0,1,12.25,9L9.65,6.54a.33.33,0,0,1-.1-.24.31.31,0,0,1,.09-.23A.37.37,0,0,1,9.87,6h1a1.24,1.24,0,0,0,1.2-.91H9.87a.33.33,0,0,1-.33-.33.32.32,0,0,1,.33-.32h2.24a1.24,1.24,0,0,0-1.2-.9h-1a.33.33,0,0,1-.33-.33.32.32,0,0,1,.33-.32h3.64a.32.32,0,0,1,.33.32.33.33,0,0,1-.33.33H12.34A1.84,1.84,0,0,1,12.77,4.41Z"/><path class="cls-2" d="M15.36,11.83V10.64a5.64,5.64,0,0,1-7.63-.48v1.67H5.19v7.54H9V15.13h5.09v4.24H17.9V11.83Z"/><path class="cls-2" d="M1.78,19.1a12.6,12.6,0,0,0-.18-3.43s.42,0,.61.52-.32,2.55,0,2.79a2.93,2.93,0,0,0,1.11.32s-.09.6-2.16.28A.64.64,0,0,1,1,19.52a.2.2,0,0,1,.11-.37A2.46,2.46,0,0,0,1.78,19.1Z"/><path class="cls-2" d="M1.78,16.68S.23,17.25,0,15.93s.87-.77.87-.77-.76-1.6,1-1.54S3,14.77,3,14.77s1.59.22,1,1.29S2.8,17.3,2.39,17s-.31-.24-.31-.24"/><rect class="cls-2" x="9.95" y="16.31" width="2.79" height="2.79"/><circle class="cls-2" cx="5.1" cy="8.48" r="1.57"/><circle class="cls-2" cx="5.57" cy="6.13" r="0.47"/><circle class="cls-2" cx="16.72" cy="10.05" r="0.63"/><circle class="cls-2" cx="14.52" cy="0.63" r="0.63"/></g></g></svg>