<?xml version="1.0" encoding="utf-8"?>
<!-- Generator: Adobe Illustrator 22.0.1, SVG Export Plug-In . SVG Version: 6.00 Build 0)  -->
<svg version="1.1" id="Layer_1" xmlns="http://www.w3.org/2000/svg" xmlns:xlink="http://www.w3.org/1999/xlink" x="0px" y="0px"
	 viewBox="0 0 20.9 20" style="enable-background:new 0 0 20.9 20;" xml:space="preserve">
<style type="text/css">
	.st0{fill:#FFFFFF;}
	.st1{fill:#E32F44;}
</style>
<title>cash payment points0</title>
<circle class="st0" cx="11.7" cy="6" r="4.3"/>
<ellipse class="st1" cx="11.4" cy="19.5" rx="9.6" ry="0.5"/>
<path class="st1" d="M11.7,0.6c-3,0-5.4,2.4-5.4,5.3c0,3,2.4,5.4,5.3,5.4S17,9,17,6c0,0,0,0,0,0C17,3.1,14.6,0.7,11.7,0.6z
	 M12.8,4.4h0.7c0.2,0,0.3,0.1,0.3,0.3c0,0,0,0,0,0c0,0.2-0.1,0.3-0.3,0.3h-0.7c-0.2,0.9-0.9,1.6-1.9,1.6h-0.2l2,1.9
	c0.1,0.1,0.1,0.3,0,0.5c-0.1,0.1-0.1,0.1-0.2,0.1l0,0c-0.1,0-0.2,0-0.2-0.1L9.6,6.5C9.6,6.5,9.5,6.4,9.5,6.3c0-0.1,0-0.2,0.1-0.2
	C9.7,6,9.8,6,9.9,6h1c0.6,0,1.1-0.4,1.2-0.9H9.9c-0.2,0-0.3-0.1-0.3-0.3c0-0.2,0.1-0.3,0.3-0.3c0,0,0,0,0,0h2.2
	c-0.2-0.5-0.6-0.9-1.2-0.9h-1c-0.2,0-0.3-0.1-0.3-0.3c0-0.2,0.1-0.3,0.3-0.3c0,0,0,0,0,0h3.6c0.2,0,0.3,0.1,0.3,0.3c0,0,0,0,0,0
	c0,0.2-0.1,0.3-0.3,0.3h-1.2C12.6,3.8,12.7,4.1,12.8,4.4z"/>
<path class="st1" d="M15.4,11.8v-1.2c-2.3,1.9-5.6,1.6-7.6-0.5v1.7H5.2v7.5H9v-4.2h5.1v4.2h3.8v-7.5H15.4z"/>
<path class="st1" d="M1.8,19.1c0.1-1.1,0-2.3-0.2-3.4c0,0,0.4,0,0.6,0.5s-0.3,2.5,0,2.8c0.3,0.2,0.7,0.3,1.1,0.3
	c0,0-0.1,0.6-2.2,0.3c-0.1,0-0.1,0-0.2-0.1c-0.1-0.1-0.1-0.2-0.1-0.3c0-0.1,0.1-0.1,0.2-0.1C1.3,19.2,1.6,19.1,1.8,19.1z"/>
<path class="st1" d="M1.8,16.7c0,0-1.5,0.6-1.8-0.8s0.9-0.8,0.9-0.8s-0.8-1.6,1-1.5S3,14.8,3,14.8s1.6,0.2,1,1.3S2.8,17.3,2.4,17
	s-0.3-0.2-0.3-0.2"/>
<rect x="9.9" y="16.3" class="st1" width="2.8" height="2.8"/>
<circle class="st1" cx="5.1" cy="8.5" r="1.6"/>
<circle class="st1" cx="5.6" cy="6.1" r="0.5"/>
<circle class="st1" cx="16.7" cy="10.1" r="0.6"/>
<circle class="st1" cx="14.5" cy="0.6" r="0.6"/>
</svg>
