<svg xmlns="http://www.w3.org/2000/svg" viewBox="0 0 17 17"><defs><style>.cls-1{fill:#8b8b8b;}</style></defs><title>change app pin0</title><g id="Layer_2" data-name="Layer 2"><g id="change_app_pin" data-name="change app pin"><path class="cls-1" d="M7.08,2.83a1.42,1.42,0,0,1,2.84,0v.71H7.08ZM5.67,9.21h5.66A.71.71,0,0,0,12,8.5V4.25a.71.71,0,0,0-.71-.71V2.83a2.83,2.83,0,1,0-5.66,0v.71A.71.71,0,0,0,5,4.25V8.5a.71.71,0,0,0,.71.71Z"/><path class="cls-1" d="M13.46,14.87H12a.7.7,0,0,1-.71-.7.71.71,0,0,1,.71-.71h1.42a.71.71,0,0,1,.71.71.7.7,0,0,1-.71.7Zm-2.83-.7a.71.71,0,0,1-1.42,0V12.75a.71.71,0,0,1,1.42,0Zm-2.84,0a.71.71,0,0,1-1.41,0V12.75a.71.71,0,1,1,1.41,0ZM5,14.17a.71.71,0,0,1-1.42,0V12.75a.71.71,0,1,1,1.42,0Zm8.5-4.25H3.54a3.54,3.54,0,0,0,0,7.08h9.92a3.54,3.54,0,0,0,0-7.08Z"/></g></g></svg>