<svg xmlns="http://www.w3.org/2000/svg" viewBox="0 0 19.62 19.62"><defs><style>.cls-1{fill:#fff;}.cls-2{fill:#dcdbdb;}</style></defs><title>choose payment mode dark light0</title><g id="Layer_2" data-name="Layer 2"><g id="choose_payment_mode_dark_light" data-name="choose payment mode dark light"><circle class="cls-1" cx="9.62" cy="9.03" r="7"/><path class="cls-2" d="M13.2,7.1H6.42a.13.13,0,0,0-.1,0,.15.15,0,0,0,0,.09v.95h7.06V7.23a.11.11,0,0,0,0-.09A.13.13,0,0,0,13.2,7.1Z"/><path class="cls-2" d="M6.28,12.39a.14.14,0,0,0,.14.14H13.2a.18.18,0,0,0,.1,0,.13.13,0,0,0,0-.1V9.81H6.28Zm2.17-1h1.63V12H8.45Zm-1.62,0H7.91V12H6.83Z"/><path class="cls-2" d="M9.81,0a9.81,9.81,0,1,0,9.81,9.81A9.81,9.81,0,0,0,9.81,0Zm4.07,12.39a.62.62,0,0,1-.2.48.66.66,0,0,1-.48.2H6.42a.68.68,0,0,1-.68-.68V7.23a.69.69,0,0,1,.2-.48.66.66,0,0,1,.48-.2H13.2a.66.66,0,0,1,.48.2.65.65,0,0,1,.2.48Z"/></g></g></svg>