<svg xmlns="http://www.w3.org/2000/svg" viewBox="0 0 19.62 19.62"><defs><style>.cls-1{fill:#8b8b8b;}.cls-2{fill:#e32f44;}</style></defs><title>choose payment mode dark0</title><g id="Layer_2" data-name="Layer 2"><g id="choose_payment_mode_dark" data-name="choose payment mode dark"><circle class="cls-1" cx="9.81" cy="9.81" r="9.81" transform="translate(-4.06 9.81) rotate(-45)"/><path class="cls-2" d="M13.68,6.75a.66.66,0,0,0-.48-.2H6.42a.66.66,0,0,0-.48.2.69.69,0,0,0-.2.48v5.16a.68.68,0,0,0,.68.68H13.2a.66.66,0,0,0,.48-.2.62.62,0,0,0,.2-.48V7.23a.65.65,0,0,0-.2-.48Zm-.34,5.64a.13.13,0,0,1,0,.1.18.18,0,0,1-.1,0H6.42a.14.14,0,0,1-.14-.14V9.81h7.06Zm0-4.21H6.28V7.23a.15.15,0,0,1,0-.09.13.13,0,0,1,.1,0H13.2a.13.13,0,0,1,.1,0,.11.11,0,0,1,0,.09Z"/><rect class="cls-2" x="6.83" y="11.44" width="1.09" height="0.54"/><rect class="cls-2" x="8.45" y="11.44" width="1.63" height="0.54"/></g></g></svg>