<svg xmlns="http://www.w3.org/2000/svg" viewBox="0 0 19.89 19.89"><defs><style>.cls-1{fill:#fff;}.cls-2{fill:#dcdbdb;}</style></defs><title>Confirm details light0</title><g id="Layer_2" data-name="Layer 2"><g id="Confirm_details_light" data-name="Confirm details light"><circle class="cls-1" cx="10.5" cy="10.16" r="7"/><path class="cls-2" d="M0,9.94a9.95,9.95,0,1,1,9.93,10A10,10,0,0,1,0,9.94Zm8.31,1.51-.11-.12-2-2.39a.8.8,0,0,0-1.12-.1A.82.82,0,0,0,5,10c.37.41.73.83,1.09,1.25l1.73,2a.62.62,0,0,0,.31.2.78.78,0,0,0,.8-.25L12,10.11c.77-.77,1.54-1.55,2.3-2.33a.79.79,0,0,0,.17-.9.83.83,0,0,0-1.37-.22L8.43,11.29Z"/></g></g></svg>