<svg xmlns="http://www.w3.org/2000/svg" viewBox="0 0 19.89 19.89"><defs><style>.cls-1{fill:#8b8b8b;}.cls-2{fill:#e32f44;}</style></defs><title>confirm details dark0</title><g id="Layer_2" data-name="Layer 2"><g id="confirm_details_dark" data-name="confirm details dark"><path class="cls-1" d="M10,0a9.95,9.95,0,1,0,9.94,10A10,10,0,0,0,10,0Zm4.3,7.78L12,10.12c-1,1-2.05,2.07-3.08,3.12a.82.82,0,0,1-.8.25.66.66,0,0,1-.31-.21l-1.73-2C5.69,10.85,5.33,10.43,5,10a.82.82,0,0,1,.13-1.18A.8.8,0,0,1,6.21,9l2,2.38.12.12a1,1,0,0,1,.12-.16C10,9.75,11.52,8.21,13.06,6.66a.83.83,0,0,1,1.37.22A.77.77,0,0,1,14.25,7.78Z"/><path class="cls-2" d="M14.25,7.78,12,10.12c-1,1-2.05,2.07-3.08,3.12a.82.82,0,0,1-.8.25.66.66,0,0,1-.31-.21l-1.73-2C5.69,10.85,5.33,10.43,5,10a.82.82,0,0,1,.13-1.18A.8.8,0,0,1,6.21,9l2,2.38.12.12a1,1,0,0,1,.12-.16C10,9.75,11.52,8.21,13.06,6.66a.83.83,0,0,1,1.37.22A.77.77,0,0,1,14.25,7.78Z"/></g></g></svg>