<svg xmlns="http://www.w3.org/2000/svg" viewBox="0 0 19.73 15.97"><defs><style>.cls-1{fill:#dddcdc;}</style></defs><title>construction vehicle_light0</title><g id="Layer_2" data-name="Layer 2"><g id="construction_vehicle_light" data-name="construction vehicle_light"><path class="cls-1" d="M10.55,12.13H1.69A1.69,1.69,0,0,0,0,13.82v.45A1.7,1.7,0,0,0,1.69,16h8.86a1.7,1.7,0,0,0,1.69-1.7v-.45A1.69,1.69,0,0,0,10.55,12.13ZM2.86,14.91a.87.87,0,1,1,.87-.86A.87.87,0,0,1,2.86,14.91Zm3.26,0A.87.87,0,1,1,7,14.05.86.86,0,0,1,6.12,14.91Zm3.25,0a.87.87,0,1,1,.87-.86A.87.87,0,0,1,9.37,14.91Z"/><path class="cls-1" d="M19.73,7.17a.62.62,0,0,0-.44-.59L17.23,1.35a.9.9,0,0,0,0-.28,1.07,1.07,0,1,0-2.13,0,1,1,0,0,0,.09.43L11.35,7.6l-.45-4c-.13-1.17-1.59-1.22-1.59-1.22H6.46c-.86,0-1.22,1.22-1.22,1.22L3.58,7.37H2.49V6.59a.27.27,0,0,0-.54,0v.78H1.56a1.05,1.05,0,0,0-1.2,1v2.22l1,1H11.39l4.69-9.26L18.5,7a.53.53,0,0,0,0,.13.6.6,0,0,0,.19.45l-3.8,1.79a2.5,2.5,0,0,0,4.63-1.78A.62.62,0,0,0,19.73,7.17ZM6.49,7.24l.15-3.81c0-.45.88-.48.88-.48H9.05a1.06,1.06,0,0,1,1.11.91l.35,3.38ZM16.2,1.73a.7.7,0,1,1,.69-.7A.7.7,0,0,1,16.2,1.73ZM19.41,7.3a.33.33,0,0,1-.3.2l-.13,0a.33.33,0,0,1-.2-.31.33.33,0,0,1,.33-.33.33.33,0,0,1,.33.33A.28.28,0,0,1,19.41,7.3Z"/></g></g></svg>