<svg xmlns="http://www.w3.org/2000/svg" viewBox="0 0 13.6 13.91"><defs><style>.cls-1{fill:#8b8b8b;}</style></defs><title>Date of birth0</title><g id="Layer_2" data-name="Layer 2"><g id="Date_of_birth" data-name="Date of birth"><path class="cls-1" d="M4.91,7.67a.31.31,0,0,0-.31-.31H3.5a.31.31,0,0,0-.32.31v1.1a.32.32,0,0,0,.32.32H4.6a.31.31,0,0,0,.31-.32Z"/><path class="cls-1" d="M7.67,7.67a.31.31,0,0,0-.32-.31H6.25a.32.32,0,0,0-.32.31v1.1a.32.32,0,0,0,.32.32h1.1a.32.32,0,0,0,.32-.32Z"/><path class="cls-1" d="M10.42,7.67a.31.31,0,0,0-.32-.31H9a.31.31,0,0,0-.31.31v1.1A.31.31,0,0,0,9,9.09h1.1a.32.32,0,0,0,.32-.32Z"/><path class="cls-1" d="M4.91,10.43a.31.31,0,0,0-.31-.32H3.5a.32.32,0,0,0-.32.32v1.1a.31.31,0,0,0,.32.31H4.6a.31.31,0,0,0,.31-.31Z"/><path class="cls-1" d="M7.67,10.43a.32.32,0,0,0-.32-.32H6.25a.32.32,0,0,0-.32.32v1.1a.32.32,0,0,0,.32.31h1.1a.31.31,0,0,0,.32-.31Z"/><path class="cls-1" d="M10.42,10.43a.32.32,0,0,0-.32-.32H9a.31.31,0,0,0-.31.32v1.1a.31.31,0,0,0,.31.31h1.1a.31.31,0,0,0,.32-.31Z"/><path class="cls-1" d="M12.39,1.55V3.23A1.37,1.37,0,0,1,11,4.6h-.87A1.37,1.37,0,0,1,8.76,3.23V1.54H4.84V3.23A1.37,1.37,0,0,1,3.46,4.6H2.59A1.37,1.37,0,0,1,1.21,3.23V1.55A1.25,1.25,0,0,0,0,2.79v9.86a1.26,1.26,0,0,0,1.25,1.26h11.1a1.26,1.26,0,0,0,1.25-1.26V2.79a1.25,1.25,0,0,0-1.21-1.24ZM12,12a.54.54,0,0,1-.54.54H2.13A.54.54,0,0,1,1.59,12V7a.54.54,0,0,1,.54-.54h9.32A.54.54,0,0,1,12,7Z"/><path class="cls-1" d="M2.58,3.7h.86a.47.47,0,0,0,.48-.47V.47A.47.47,0,0,0,3.44,0H2.58a.47.47,0,0,0-.47.47V3.23a.47.47,0,0,0,.47.47Z"/><path class="cls-1" d="M10.13,3.7H11a.47.47,0,0,0,.47-.47V.47A.47.47,0,0,0,11,0h-.86a.47.47,0,0,0-.47.47V3.23a.47.47,0,0,0,.47.47Z"/></g></g></svg>