<svg xmlns="http://www.w3.org/2000/svg" viewBox="0 0 26.08 15.97"><defs><style>.cls-1{fill:#dddcdc;}</style></defs><title>dilivery van_ligh0</title><g id="Layer_2" data-name="Layer 2"><g id="dilivery_van_ligh" data-name="dilivery van_ligh"><path class="cls-1" d="M5.72,11.68a2.15,2.15,0,1,0,2.14,2.15,2.14,2.14,0,0,0-2.14-2.15Zm0,3.08a.94.94,0,1,1,.93-.93.93.93,0,0,1-.93.93Z"/><path class="cls-1" d="M19.52,11.68a2.15,2.15,0,1,0,2.14,2.15,2.15,2.15,0,0,0-2.14-2.15Zm0,3.08a.94.94,0,1,1,.93-.93.93.93,0,0,1-.93.93Z"/><path class="cls-1" d="M4,9.14h9.89a.65.65,0,0,0,.64-.65V4.68A.64.64,0,0,0,13.85,4H4a.64.64,0,0,0-.64.64V8.49A.65.65,0,0,0,4,9.14Z"/><path class="cls-1" d="M10.93,3.64h2.91A.64.64,0,0,0,14.48,3V.64A.64.64,0,0,0,13.84,0H10.93a.64.64,0,0,0-.64.64V3a.64.64,0,0,0,.64.64Z"/><path class="cls-1" d="M4,3.64H9.23A.64.64,0,0,0,9.87,3V1.68A.64.64,0,0,0,9.23,1H4a.64.64,0,0,0-.64.64V3A.64.64,0,0,0,4,3.64Z"/><path class="cls-1" d="M23.72,8.29c-.79-.2-1.24-.33-1.55-.93l-1-2.09a2.22,2.22,0,0,0-1.78-1.08h-2V3.6A.63.63,0,0,0,16.73,3h-1.2a.64.64,0,0,0-.64.64V9.16a.78.78,0,0,1-.7.44H.59a.59.59,0,0,0-.59.63v3.08A.64.64,0,0,0,.64,14H2.93v-.12a2.79,2.79,0,1,1,5.58,0V14h8.22s0-.08,0-.11a2.8,2.8,0,1,1,5.59,0V14h2.55a1.22,1.22,0,0,0,1.22-1.22V10.41c0-1.95-1.71-1.95-2.36-2.12Zm-6.35-.11V5h1.56a2,2,0,0,1,1.58,1l.92,1.86a1.14,1.14,0,0,0,.23.32Z"/></g></g></svg>