<svg xmlns="http://www.w3.org/2000/svg" viewBox="0 0 19.24 27.58"><defs><style>.cls-1{fill:#dddcdc;}</style></defs><title>disable sim0</title><g id="Layer_2" data-name="Layer 2"><g id="disable_sim" data-name="disable sim"><path class="cls-1" d="M14.79,16.92v9.7c0,.8-.15,1-1,1H2.73c-.65,0-1.31,0-2,0S0,27.35,0,26.78V4.89c0-.56.26-.82.83-.82h10.8a.78.78,0,0,1,.49.18c.85.74,1.68,1.5,2.5,2.28a.68.68,0,0,1,.17.49c0,3.29,0,6.59,0,9.89Zm-2.32,2.42h0c0-1.23,0-2.46,0-3.68a2.25,2.25,0,0,0-.13-.86,1.82,1.82,0,0,0-1.79-1.19c-2.21,0-4.42,0-6.64,0a2,2,0,0,0-2.11,2.11c0,2.47,0,4.94,0,7.41a1.93,1.93,0,0,0,2,2H10.5a1.88,1.88,0,0,0,2-1.94C12.48,21.87,12.47,20.61,12.47,19.34Z"/><path class="cls-1" d="M19.23,12.85V22.7c0,.61-.19.8-.81.81-.81,0-1.63,0-2.44,0-.34,0-.41-.12-.41-.43,0-3.28,0-6.57,0-9.85q0-3.45,0-6.9a.73.73,0,0,0-.28-.62c-.8-.71-1.58-1.45-2.38-2.15a1,1,0,0,0-.62-.23c-2.44,0-4.89,0-7.33,0-.5,0-.5,0-.5-.51V.71A.62.62,0,0,1,5.17,0h11a.63.63,0,0,1,.38.14c.81.71,1.59,1.44,2.39,2.14a.92.92,0,0,1,.31.74C19.23,6.3,19.23,9.58,19.23,12.85Z"/><path class="cls-1" d="M12,19.15c-1.09,0-2.16,0-3.23,0-.31,0-.47.06-.42.4a.65.65,0,0,1,0,.14c0,.84,0,.84-.85.84-.41,0-.83,0-1.24,0-.25,0-.34-.07-.34-.33,0-.55,0-1.1,0-1.64,0-.27.09-.37.36-.36.65,0,1.29,0,1.94,0A1.1,1.1,0,0,0,9.44,17c0-.87,0-1.73,0-2.59,0-.31.1-.42.4-.39a7.83,7.83,0,0,1,1.29.13,1.23,1.23,0,0,1,.91,1.2c0,1.21,0,2.43,0,3.64A.67.67,0,0,1,12,19.15Z"/><path class="cls-1" d="M12.06,21.56c0,.53,0,1.07,0,1.6a1.46,1.46,0,0,1-1.47,1.52c-.25,0-.51,0-.76,0s-.39-.11-.39-.38c0-.82,0-1.63,0-2.44a1.33,1.33,0,0,0-.55-1.23,1.42,1.42,0,0,1-.12-1A.35.35,0,0,1,9,19.54h2.77c.22,0,.29.09.29.31C12.06,20.42,12.06,21,12.06,21.56Z"/><path class="cls-1" d="M5.53,19.62a5.63,5.63,0,0,1,0,.71.57.57,0,0,1-.23.32,1.13,1.13,0,0,0-.52,1c0,.9,0,1.8,0,2.7,0,.27-.07.39-.35.35a8.12,8.12,0,0,1-1.49-.23,1.12,1.12,0,0,1-.71-1.09c0-1.17,0-2.34,0-3.5,0-.17,0-.32.24-.32l3,0A.45.45,0,0,1,5.53,19.62Z"/><path class="cls-1" d="M2.22,17.09c0-.55,0-1.1,0-1.64A1.43,1.43,0,0,1,3.4,14a7.59,7.59,0,0,1,1.17,0c.24,0,.2.19.21.34,0,.86,0,1.73,0,2.59A1.11,1.11,0,0,0,5.32,18a1.16,1.16,0,0,1,.16,1,.37.37,0,0,1-.26.07c-.9,0-1.8,0-2.7,0-.26,0-.31-.1-.31-.32,0-.59,0-1.17,0-1.75Z"/><path class="cls-1" d="M5.16,14c.54,0,1,0,1.53,0a.33.33,0,0,1,.2.23c0,1.09,0,2.18,0,3.28,0,.08-.16.23-.26.24a3.57,3.57,0,0,1-.8,0,.64.64,0,0,1-.67-.67C5.15,16.08,5.16,15.07,5.16,14Z"/><path class="cls-1" d="M6.9,22.81c0,.5,0,1,0,1.52,0,.24,0,.36-.32.35a10.67,10.67,0,0,0-1.13,0c-.21,0-.3-.06-.3-.29,0-.91,0-1.82,0-2.73,0-.52.25-.74.77-.76,1,0,1,0,1,.91Z"/><path class="cls-1" d="M9,14c0,1.1,0,2.16,0,3.21,0,.33-.23.49-.53.55H8.37c-1.06,0-1.06,0-1.06-1,0-.82,0-1.65,0-2.47,0-.1.08-.27.13-.28C8,14,8.48,14,9,14Z"/><path class="cls-1" d="M7.3,22.78V21.25c0-.26.09-.35.36-.35C9,20.89,9,20.93,9,22.27c0,.69,0,1.38,0,2.07,0,.24-.06.36-.33.34a8.68,8.68,0,0,0-1,0c-.29,0-.4-.09-.39-.38C7.31,23.8,7.3,23.29,7.3,22.78Z"/></g></g></svg>