<svg xmlns="http://www.w3.org/2000/svg" viewBox="0 0 16.73 20"><defs><style>.cls-1{fill:#8b8b8b;}.cls-2{fill:#e32f44;}</style></defs><title>Do not remmber0</title><g id="Layer_2" data-name="Layer 2"><g id="Do_not_remmber" data-name="Do not remmber"><path class="cls-1" d="M12.42,11.37a4.32,4.32,0,1,0,4.31,4.3A4.3,4.3,0,0,0,12.42,11.37Zm.89,6.69-.53.19a1.27,1.27,0,0,1-.46.07.88.88,0,0,1-.63-.2.64.64,0,0,1-.22-.49,1.66,1.66,0,0,1,0-.24c0-.08,0-.18,0-.29l.28-1a1.38,1.38,0,0,0,.06-.26c0-.09,0-.17,0-.23a.4.4,0,0,0-.07-.27.54.54,0,0,0-.29-.07.62.62,0,0,0-.23,0,1,1,0,0,0-.2.06l.08-.3c.18-.08.36-.14.52-.2a1.72,1.72,0,0,1,.48-.08,1,1,0,0,1,.61.19.65.65,0,0,1,.22.51s0,.12,0,.23A1.25,1.25,0,0,1,13,16l-.28,1-.06.27a1.31,1.31,0,0,0,0,.23.33.33,0,0,0,.09.26.43.43,0,0,0,.31.08.64.64,0,0,0,.22,0l.19-.06Zm0-4a.73.73,0,0,1-.94,0,.61.61,0,0,1-.19-.44.63.63,0,0,1,.19-.44.7.7,0,0,1,.94,0,.59.59,0,0,1,.19.44A.58.58,0,0,1,13.27,14.08Z"/><path class="cls-2" d="M13.46,13.64a.58.58,0,0,1-.19.44.73.73,0,0,1-.94,0,.61.61,0,0,1-.19-.44.63.63,0,0,1,.19-.44.7.7,0,0,1,.94,0A.59.59,0,0,1,13.46,13.64Z"/><path class="cls-2" d="M13.39,17.75l-.08.31-.53.19a1.27,1.27,0,0,1-.46.07.88.88,0,0,1-.63-.2.64.64,0,0,1-.22-.49,1.66,1.66,0,0,1,0-.24c0-.08,0-.18,0-.29l.28-1a1.38,1.38,0,0,0,.06-.26c0-.09,0-.17,0-.23a.4.4,0,0,0-.07-.27.54.54,0,0,0-.29-.07.62.62,0,0,0-.23,0,1,1,0,0,0-.2.06l.08-.3c.18-.08.36-.14.52-.2a1.72,1.72,0,0,1,.48-.08,1,1,0,0,1,.61.19.65.65,0,0,1,.22.51s0,.12,0,.23A1.25,1.25,0,0,1,13,16l-.28,1-.06.27a1.31,1.31,0,0,0,0,.23.33.33,0,0,0,.09.26.43.43,0,0,0,.31.08.64.64,0,0,0,.22,0Z"/><path class="cls-1" d="M7.38,15.68c0-.09,0-.17,0-.26H2.3V14.26H7.58a5.08,5.08,0,0,1,.78-1.56H2.3V11.53H9.56a5,5,0,0,1,5.5-.13V2a2,2,0,0,0-2-2H2A2,2,0,0,0,0,2V17.11a2,2,0,0,0,2,2H8.77A5,5,0,0,1,7.38,15.68ZM2.3,3.8H12.76V5H2.3Zm0,2.58H12.76V7.54H2.3ZM2.3,9H12.76v1.16H2.3Z"/></g></g></svg>