<svg xmlns="http://www.w3.org/2000/svg" viewBox="0 0 11.2 14"><defs><style>.cls-1{fill:#8b8b8b;}</style></defs><title>download0</title><g id="Layer_2" data-name="Layer 2"><g id="download"><path class="cls-1" d="M5.29,10.15a.48.48,0,0,0,.62,0L9.6,6.92a.47.47,0,0,0,0-.66L9,5.56a.47.47,0,0,0-.66,0L6.53,7.13V.47A.47.47,0,0,0,6.07,0H5.13a.47.47,0,0,0-.46.47V7.13L2.83,5.52a.47.47,0,0,0-.66,0l-.61.7a.47.47,0,0,0,0,.66Z"/><path class="cls-1" d="M10.73,12.13H.47A.47.47,0,0,0,0,12.6v.93A.47.47,0,0,0,.47,14H10.73a.47.47,0,0,0,.47-.47V12.6A.47.47,0,0,0,10.73,12.13Z"/></g></g></svg>