<svg xmlns="http://www.w3.org/2000/svg" viewBox="0 0 22.75 19.86"><defs><style>.cls-1{fill:#e32f44;}.cls-2{fill:#898989;}</style></defs><title>Faster Disbursement0</title><g id="Layer_2" data-name="Layer 2"><g id="Faster_Disbursement" data-name="Faster Disbursement"><path class="cls-1" d="M18.31,4.68h-.82a1.27,1.27,0,0,0-.2-.53,1.56,1.56,0,0,0-.16-.2h1.18a.22.22,0,0,0,.22-.22.24.24,0,0,0-.22-.23H15.37a.23.23,0,0,0-.22.23.29.29,0,0,0,0,.09l0,.05h0a.21.21,0,0,0,.15.07h.87l.24.07a1,1,0,0,1,.22.13.91.91,0,0,1,.17.17,1.59,1.59,0,0,1,.13.22.74.74,0,0,1,0,.14H15.37a.22.22,0,0,0-.22.22.24.24,0,0,0,.22.23H17a1,1,0,0,1,0,.14,1.59,1.59,0,0,1-.13.22,1.37,1.37,0,0,1-.17.17l-.22.13a1.05,1.05,0,0,1-.24.06h-.73a.22.22,0,0,0-.22.22v.16a.25.25,0,0,0,.08.17l.1.1.47.43.61.57L17.1,8l.28.26h0a.24.24,0,0,0,.16.07.26.26,0,0,0,.16-.07.28.28,0,0,0,.06-.16A.19.19,0,0,0,17.69,8l-.2-.19L17,7.33l-.59-.54-.5-.47,0,0h.27a1.4,1.4,0,0,0,1.18-.74,1.69,1.69,0,0,0,.15-.43h.81a.23.23,0,0,0,0-.45Z"/><path class="cls-2" d="M16.73,0a6,6,0,1,0,6,6,6,6,0,0,0-6-6Zm0,10.64A4.63,4.63,0,1,1,21.35,6a4.62,4.62,0,0,1-4.62,4.63Z"/><path class="cls-2" d="M21.52,14.94a15.18,15.18,0,0,1-4.79,1.64c-1.56.24-4.5-.35-4.5-1,0-.27,2.58.65,4.14.23,1.19-.32,1-1.44.37-1.58s-4.43-1.54-6-1.58A26.29,26.29,0,0,0,7.14,13c-.31.05-.5,0-.52.34-.09,1.39-.27,4.22-.37,5.7,0,0,0,.46.39.16a1.82,1.82,0,0,1,1.41-.57c.77.17,7.46,1.4,8.38,1.19a23.78,23.78,0,0,0,5.78-3.21c1.11-1.07.25-2.2-.69-1.69Z"/><path class="cls-2" d="M4.77,13l-3.5-.18a.64.64,0,0,0-.62.46L0,19a.39.39,0,0,0,.37.5H4.27a.52.52,0,0,0,.53-.47l.43-5.58A.48.48,0,0,0,4.77,13ZM2.71,18.76a1,1,0,0,1,0-1.94,1,1,0,1,1,0,1.94Z"/></g></g></svg>