<svg xmlns="http://www.w3.org/2000/svg" viewBox="0 0 122.37 119.3"><defs><style>.cls-1{fill:#dddcdc;}.cls-2{fill:#8b8b8b;}</style></defs><title>Fd amount0</title><g id="Layer_2" data-name="Layer 2"><g id="Fd_amount" data-name="Fd amount"><path class="cls-1" d="M9.65,100a9.65,9.65,0,1,0,9.65,9.65A9.65,9.65,0,0,0,9.65,100Zm1.16,5.53a3.62,3.62,0,0,1,.52,1.38h2.09a.57.57,0,1,1,0,1.13H11.33a3.58,3.58,0,0,1-3.41,3c-.22,0-.45,0-.68,0l0,0,1.3,1.21,1.5,1.39,1.25,1.16.52.49a.53.53,0,0,1,.16.39.56.56,0,0,1-.16.41.62.62,0,0,1-.41.16.59.59,0,0,1-.4-.16h0l-.7-.66L8.9,114.17,7.32,112.7l-1.19-1.11-.27-.25a.67.67,0,0,1-.2-.44v-.4a.58.58,0,0,1,.57-.57H7.41a5.3,5.3,0,0,0,.69,0,2.69,2.69,0,0,0,.62-.16,2.77,2.77,0,0,0,.57-.34,2.91,2.91,0,0,0,.43-.43,4.08,4.08,0,0,0,.34-.57c0-.12.08-.24.11-.37H5.87a.58.58,0,0,1-.57-.57.57.57,0,0,1,.57-.56h4.3c0-.13-.07-.25-.11-.37a3.68,3.68,0,0,0-.34-.58,2.91,2.91,0,0,0-.43-.43,3.25,3.25,0,0,0-.57-.33A2.72,2.72,0,0,0,8.1,105l-.43,0H5.87a.53.53,0,0,1-.4-.17l0,0a.44.44,0,0,1-.08-.11,1,1,0,0,1-.06-.25.58.58,0,0,1,.57-.57h7.55a.58.58,0,0,1,.57.57.57.57,0,0,1-.57.57h-3A4.07,4.07,0,0,1,10.81,105.53Z"/><path class="cls-2" d="M115.18,0a7.19,7.19,0,1,0,7.19,7.18A7.19,7.19,0,0,0,115.18,0ZM116,4.12a2.56,2.56,0,0,1,.4,1H118A.43.43,0,1,1,118,6h-1.55a3,3,0,0,1-.28.83,2.69,2.69,0,0,1-2.26,1.42h-.51l0,0,1,.9,1.12,1,.92.86.39.36a.42.42,0,0,1-.3.72.47.47,0,0,1-.3-.12h0l-.52-.49-1.06-1-1.18-1.1-.89-.82-.2-.19a.45.45,0,0,1-.14-.33,2.81,2.81,0,0,1,0-.29.43.43,0,0,1,.42-.43h.88a4.34,4.34,0,0,0,.51,0,2.39,2.39,0,0,0,.46-.12,2.67,2.67,0,0,0,.43-.25c.11-.1.22-.21.32-.32a3.7,3.7,0,0,0,.25-.43,2.76,2.76,0,0,0,.08-.27h-3.2a.43.43,0,0,1,0-.85h3.2a2.76,2.76,0,0,0-.08-.27,2.55,2.55,0,0,0-.25-.43,2.42,2.42,0,0,0-.32-.32,2.67,2.67,0,0,0-.43-.25,1.83,1.83,0,0,0-.46-.12,1.67,1.67,0,0,0-.32,0h-1.34a.45.45,0,0,1-.3-.12l0,0L112,3.49a.58.58,0,0,1,0-.18.43.43,0,0,1,.42-.43H118a.44.44,0,0,1,.43.43.42.42,0,0,1-.43.42h0c-.22,0-.45,0-.68,0h-1.56A2.88,2.88,0,0,1,116,4.12Z"/></g></g></svg>