<svg xmlns="http://www.w3.org/2000/svg" viewBox="0 0 11.89 18.05"><defs><style>.cls-1{fill:#6d6e71;}</style></defs><title>FD dark0</title><g id="Layer_2" data-name="Layer 2"><g id="FD_dark" data-name="FD dark"><path class="cls-1" d="M5.92,1.29h0l0,0s0,0,0,0l.67.83,1.63-.09,1-1.66a.06.06,0,0,0,0-.06.09.09,0,0,0-.08,0A3.34,3.34,0,0,1,7.39.21,5.83,5.83,0,0,0,6.51,0a1.89,1.89,0,0,0-1,.11L5.05.31A.45.45,0,0,0,4.8.5a0,0,0,0,0,0,0Z"/><path class="cls-1" d="M8.56,7.8a.2.2,0,0,1-.06-.15l-2.33.16h0l-1.82.12H4.13l-.39.47,0,0-.37.35a5.7,5.7,0,0,0-2.2,4.51c0,2.86,2.16,4.78,5.37,4.78s5.37-1.92,5.37-4.78C11.89,10.92,10.35,9.47,8.56,7.8Zm-2,8h0Zm1.06-3.94h.75a.28.28,0,0,1,.28.28.29.29,0,0,1-.28.28H7.59a1.79,1.79,0,0,1-1.77,1.51h-.3l2,1.9a.28.28,0,0,1,0,.4.3.3,0,0,1-.2.08.31.31,0,0,1-.2-.07L4.62,13.86a.28.28,0,0,1-.09-.2.28.28,0,0,1,.08-.2.27.27,0,0,1,.2-.09h1A1.22,1.22,0,0,0,7,12.42H4.81a.29.29,0,0,1-.28-.28.28.28,0,0,1,.28-.28H7a1.23,1.23,0,0,0-1.19-.94h-1a.28.28,0,0,1-.28-.28.29.29,0,0,1,.28-.28H8.33a.29.29,0,0,1,.28.28.28.28,0,0,1-.28.28H7.12A1.78,1.78,0,0,1,7.58,11.86Z"/><path class="cls-1" d="M3.28,7.41a.28.28,0,0,0,0-.09L3,4.16A.31.31,0,0,0,2.93,4a.38.38,0,0,0-.25-.09L.31,4A.31.31,0,0,0,0,4.36L.27,7.52a.32.32,0,0,0,.34.28h0L3,7.64A.31.31,0,0,0,3.28,7.41Z"/><path class="cls-1" d="M3.77,7.3v.07a.79.79,0,0,0,.3.12,1,1,0,0,0,.24,0l.47,0h0l3.73-.24a.62.62,0,0,0,.41-.18.47.47,0,0,0,.14-.38.48.48,0,0,0-.15-.32.19.19,0,0,1,0-.28h0l0,0H9L9,6H9.1a.68.68,0,0,0,.41-.19.43.43,0,0,0,.14-.38.49.49,0,0,0-.17-.33h0l0-.06h0s0,0,0,0V4.92a.08.08,0,0,0,0,0s0,0,0,0l0,0h0l0,0,0,0a.53.53,0,0,0,.35-.52.55.55,0,0,0-.37-.45h0l-.07,0h0a.08.08,0,0,1,0,0h0a.05.05,0,0,1,0,0s0,0,0,0v0a.09.09,0,0,0,0-.05h0s0,0,0,0l0,0,0,0h0a.72.72,0,0,0,.15-.11.48.48,0,0,0-.07-.74.62.62,0,0,0-.44-.13l-.71,0-1.9.11H6.43l0,0-.06,0h0l-.67-.82a1.43,1.43,0,0,0-.92.5L3.61,3.39c-.1.16-.18.29-.24.41a.58.58,0,0,1,.12.33Z"/></g></g></svg>