<svg xmlns="http://www.w3.org/2000/svg" viewBox="0 0 44.77 38.33"><defs><style>.cls-1{fill:#dddcdc;}</style></defs><title>forgot password0</title><g id="Layer_2" data-name="Layer 2"><g id="forgot_password" data-name="forgot password"><path class="cls-1" d="M23,4.08H24.4a3.45,3.45,0,0,0,.46.12,9.16,9.16,0,0,1,7.81,6.85A17.53,17.53,0,0,1,33,14c0,.85,0,1.71,0,2.56l.55.11a2.27,2.27,0,0,1,1.9,1.95c.09,1.14,0,2.29,0,3.42a27.18,27.18,0,0,0-3.13,0,5.22,5.22,0,0,0-4.63,5.13c0,.29,0,.47.38.51.93.09,1.86.22,2.79.32s.89.08,1.12-.8a1.75,1.75,0,0,1,2.2-1.46,1,1,0,0,1,.95.68.9.9,0,0,1-.41,1c-.51.4-1,.82-1.5,1.24a4.6,4.6,0,0,0-1.76,3.87c0,.79,0,1.57,0,2.39l-.36,0H14.18a2.38,2.38,0,0,1-2.38-2.38c0-4.53,0-9.06,0-13.59a2.38,2.38,0,0,1,1.68-2.28c.31-.09.63-.12,1-.19,0-1.1,0-2.2,0-3.29a9.2,9.2,0,0,1,7-8.89C22,4.28,22.49,4.19,23,4.08Zm6,12.54c0-1.2,0-2.35,0-3.49a5.23,5.23,0,0,0-10.41-.49c-.12,1.14-.05,2.3-.11,3.44,0,.46.14.58.59.58,3.12,0,6.25,0,9.38,0ZM22.54,28.41h0v1.35a1.2,1.2,0,0,0,1.17,1.33c.75,0,1.2-.47,1.21-1.33s0-1.69,0-2.53a1.07,1.07,0,0,1,.41-.93,2.3,2.3,0,0,0,.16-3.24,2.35,2.35,0,0,0-3.29-.22,2.22,2.22,0,0,0-.26,3.21,2,2,0,0,1,.61,1.77A5.81,5.81,0,0,0,22.54,28.41Z"/><path class="cls-1" d="M39.18,27.07a6.34,6.34,0,0,1-2.55,3.42l-.58.49a1.85,1.85,0,0,0-.79,1.72c0,.21,0,.43,0,.72-1,0-2,0-3,0-.08,0-.21-.22-.23-.34A4.34,4.34,0,0,1,33.57,29c.54-.44,1.09-.89,1.61-1.35a1.36,1.36,0,0,0-.51-2.44,2.29,2.29,0,0,0-3.06,1.57c-.06.19-.11.38-.18.64-1-.11-1.92-.21-2.88-.35-.1,0-.24-.25-.24-.38a3.92,3.92,0,0,1,.91-2.42,5.15,5.15,0,0,1,3.72-1.92,6.8,6.8,0,0,1,3.34.43A4.39,4.39,0,0,1,39.09,26a.66.66,0,0,0,.09.19Z"/><path class="cls-1" d="M35.24,35v3.35H32.05c0-1,0-2.07,0-3.11,0-.08.18-.23.27-.23C33.28,35,34.23,35,35.24,35Z"/><path class="cls-1" d="M35.19,3.32a.27.27,0,0,0,.08-.07C36.19.66,38.14-.42,40.89.15A4.88,4.88,0,0,1,44.06,2a3.09,3.09,0,0,1-.58,4.49,14.74,14.74,0,0,1-1.75,1.16,2,2,0,0,0-1.2,1.71,1.85,1.85,0,0,1-.12.44l-2.7-.38A3.92,3.92,0,0,1,39,6.26c.63-.47,1.31-.87,2-1.29.51-.31.92-.68.78-1.33a1.44,1.44,0,0,0-1.2-1.1,1.9,1.9,0,0,0-2.4,1.1c-.08.16-.16.32-.26.55l-2.73-.76Z"/><path class="cls-1" d="M39.62,14.12l-1.83-.35L37,13.63l.44-2.86,2.76.4-.41,2.95Z"/><path class="cls-1" d="M0,11.81s0-.07,0-.1A4.46,4.46,0,0,1,3.69,6.42a4.87,4.87,0,0,1,3.67.24,3.08,3.08,0,0,1,1.49,4.27,15.09,15.09,0,0,1-1,1.83,2,2,0,0,0-.31,2.06,1.86,1.86,0,0,1,.09.45L5,16.14a3.9,3.9,0,0,1-.26-3.42c.35-.7.78-1.37,1.2-2a1.22,1.22,0,0,0,.1-1.54,1.43,1.43,0,0,0-1.56-.45,1.91,1.91,0,0,0-1.66,2.06c0,.18,0,.36,0,.61l-2.77.55Z"/><path class="cls-1" d="M8.81,19.48,7,20l-.73.21L5.4,17.44,8,16.56l1,2.82Z"/></g></g></svg>