<svg xmlns="http://www.w3.org/2000/svg" viewBox="0 0 19.77 19.79"><defs><style>.cls-1{fill:#8b8b8b;}</style></defs><title>Layer 10</title><g id="Layer_2" data-name="Layer 2"><g id="Layer_1-2" data-name="Layer 1"><path class="cls-1" d="M6.76.63l.78.13A1.09,1.09,0,0,0,8.48.6c.07-.06.15-.1.22-.15A3.23,3.23,0,0,1,9.44.07a1.56,1.56,0,0,1,1.18.11,3.79,3.79,0,0,1,.62.35,1.2,1.2,0,0,0,1,.19,4.63,4.63,0,0,1,.65-.1,1.57,1.57,0,0,1,1.39.65,5.64,5.64,0,0,1,.46.63,1,1,0,0,0,.69.42,3.86,3.86,0,0,1,.94.26,1.5,1.5,0,0,1,.85,1c.09.3.16.6.23.9a.76.76,0,0,0,.29.45c.23.16.46.32.68.49a1.67,1.67,0,0,1,.64.94,2.21,2.21,0,0,1,0,.81c0,.22-.07.45-.11.67a.58.58,0,0,0,.07.43l.46.78a1.78,1.78,0,0,1,.24.78,1.54,1.54,0,0,1-.2.84,7.84,7.84,0,0,1-.41.69,1,1,0,0,0-.13.83,5.57,5.57,0,0,1,.1.82,1.54,1.54,0,0,1-.66,1.37c-.21.17-.44.33-.67.49a.85.85,0,0,0-.34.56,5.64,5.64,0,0,1-.25,1,1.56,1.56,0,0,1-1.09.91l-.89.23a.64.64,0,0,0-.36.24l-.5.69a1.69,1.69,0,0,1-.77.6,1.61,1.61,0,0,1-.69.07,6.29,6.29,0,0,1-.74-.11,1.07,1.07,0,0,0-.85.16,5.79,5.79,0,0,1-.84.47,1.49,1.49,0,0,1-1.39-.09c-.24-.13-.47-.27-.7-.42A1,1,0,0,0,7.63,19l-.61.1a1.68,1.68,0,0,1-1.72-.8L5,17.88a1,1,0,0,0-.67-.42,3.92,3.92,0,0,1-.95-.25,1.51,1.51,0,0,1-.84-1c-.09-.29-.16-.59-.24-.89A.67.67,0,0,0,2,14.87l-.68-.5a1.68,1.68,0,0,1-.59-.8,1.39,1.39,0,0,1-.07-.67c0-.31.08-.62.14-.93a.78.78,0,0,0-.11-.54c-.16-.25-.32-.49-.46-.74A1.69,1.69,0,0,1,0,10,1.93,1.93,0,0,1,.36,8.85c.09-.13.17-.26.27-.39a1,1,0,0,0,.13-.82,3.63,3.63,0,0,1-.11-1,1.42,1.42,0,0,1,.45-1c.21-.2.45-.36.68-.54L2,5a.83.83,0,0,0,.35-.57,8.93,8.93,0,0,1,.23-.89,1.49,1.49,0,0,1,1.08-1c.29-.09.59-.16.89-.23A.68.68,0,0,0,4.91,2l.47-.65A1.79,1.79,0,0,1,6.26.72,4,4,0,0,1,6.76.63Zm-.91,14a.64.64,0,0,0,.45-.23L13.1,7.6l1.34-1.34a.64.64,0,0,0,0-.93.65.65,0,0,0-.91.06L7.26,11.65,5.38,13.53a.62.62,0,0,0-.15.7A.63.63,0,0,0,5.85,14.62ZM9.41,7A2.42,2.42,0,1,0,7,9.41,2.41,2.41,0,0,0,9.41,7Zm5.83,5.83a2.43,2.43,0,1,0-2.41,2.43A2.44,2.44,0,0,0,15.24,12.79Z"/><path class="cls-1" d="M8.16,7A1.17,1.17,0,0,1,7,8.15,1.2,1.2,0,0,1,5.81,7,1.18,1.18,0,0,1,7,5.81,1.16,1.16,0,0,1,8.16,7Z"/><path class="cls-1" d="M14,12.82a1.18,1.18,0,1,1-1.17-1.18A1.19,1.19,0,0,1,14,12.82Z"/></g></g></svg>