<?xml version="1.0" encoding="utf-8"?>
<!-- Generator: Adobe Illustrator 22.0.1, SVG Export Plug-In . SVG Version: 6.00 Build 0)  -->
<svg version="1.1" id="Layer_1" xmlns="http://www.w3.org/2000/svg" xmlns:xlink="http://www.w3.org/1999/xlink" x="0px" y="0px"
	 viewBox="0 0 2.5 13.7" style="enable-background:new 0 0 2.5 13.7;" xml:space="preserve">
<style type="text/css">
	.st0{fill:#FFFFFF;}
</style>
<title>Kabab menu dropdown0</title>
<g id="Layer_2_1_">
	<g id="Kabab_menu_dropdown">
		<path class="st0" d="M2.5,1.3C2.5,0.6,1.9,0,1.3,0S0,0.5,0,1.2s0.5,1.3,1.2,1.3c0,0,0,0,0,0C1.9,2.5,2.5,1.9,2.5,1.3
			C2.5,1.3,2.5,1.3,2.5,1.3z M2.5,7.1c0-0.7-0.6-1.2-1.3-1.2S0,6.4,0,7.1s0.6,1.2,1.3,1.2c0,0,0,0,0,0C1.9,8.3,2.5,7.8,2.5,7.1
			C2.5,7.1,2.5,7.1,2.5,7.1z M2.5,12.5c0-0.7-0.5-1.2-1.2-1.2c0,0,0,0,0,0c-0.7,0-1.3,0.5-1.3,1.2c0,0.7,0.5,1.3,1.2,1.3
			S2.5,13.2,2.5,12.5C2.5,12.5,2.5,12.5,2.5,12.5z"/>
	</g>
</g>
</svg>
