<svg xmlns="http://www.w3.org/2000/svg" viewBox="0 0 42.71 30.78"><defs><style>.cls-1{fill:#8b8b8b;}</style></defs><title>Language_dark0</title><g id="Layer_2" data-name="Layer 2"><g id="Language_dark"><path class="cls-1" d="M38.61,10.26H22.94a4.18,4.18,0,0,0-4.09,4.25v7.56a4.17,4.17,0,0,0,3.89,4.24h8.78L35,30.44a1,1,0,0,0,1.07.28,1,1,0,0,0,.67-.94V26.32h1.87a4.18,4.18,0,0,0,4.1-4.25V14.51A4.18,4.18,0,0,0,38.61,10.26Zm-3,4.82H34.36v8h-1V18.58l-.29.14-.33.12a2.59,2.59,0,0,1-.74.07h-.25l0,.24c0,.11,0,.22,0,.33a2.45,2.45,0,0,1-.16.91,2.19,2.19,0,0,1-.47.72,2.13,2.13,0,0,1-.73.47,2.81,2.81,0,0,1-2,0,3.33,3.33,0,0,1-.83-.52,3.37,3.37,0,0,1-.64-.72,5.56,5.56,0,0,1-.48-.79,6,6,0,0,1-.32-.77c-.08-.23-.14-.43-.18-.59v0l.83-.38v0c.06.19.13.39.21.61s.18.44.28.66a6,6,0,0,0,.37.65,2.74,2.74,0,0,0,.46.55,2.46,2.46,0,0,0,.58.39,1.88,1.88,0,0,0,1.34,0,1.14,1.14,0,0,0,.43-.3,1.18,1.18,0,0,0,.23-.43,1.83,1.83,0,0,0,.07-.53,1.11,1.11,0,0,0-.43-.93,2.21,2.21,0,0,0-1.46-.33l-.2,0h0v-1h.11a2.53,2.53,0,0,0,.78-.11,1.56,1.56,0,0,0,.53-.27,1.3,1.3,0,0,0,.33-.41,1.13,1.13,0,0,0,.11-.48,1,1,0,0,0-.08-.41,1,1,0,0,0-.22-.3.88.88,0,0,0-.33-.18,1.55,1.55,0,0,0-.72,0l-.32.06-.35.12-.42.17,0,0-.36-.87,0,0a5.53,5.53,0,0,1,.89-.34,2.93,2.93,0,0,1,1.69,0,1.81,1.81,0,0,1,.64.39,1.63,1.63,0,0,1,.42.58,1.77,1.77,0,0,1,.15.73,1.91,1.91,0,0,1-.74,1.53l-.23.19.26.15a2,2,0,0,1,.3.21l.05,0h.05l.3,0a2.73,2.73,0,0,0,.7,0l.37-.09a1.85,1.85,0,0,0,.38-.18,2.13,2.13,0,0,0,.32-.23l.07-.07V15.07H32.05v-.93H35.6Z"/><polygon class="cls-1" points="12.63 5.02 12.35 5.02 11.08 8.57 13.88 8.57 12.71 5.16 12.63 5.02"/><path class="cls-1" d="M19.77,0H4.1A4.18,4.18,0,0,0,0,4.25v7.56a4.18,4.18,0,0,0,4.1,4.25H6v3.46a1,1,0,0,0,.67.94,1,1,0,0,0,1.07-.28l3.48-4.12h6.56V13.61a4.18,4.18,0,0,1,4.09-4.25h2V4.25A4.18,4.18,0,0,0,19.77,0ZM14.88,11.47l-.65-1.91H10.74l-.67,1.91H8.6l3.09-8.15h1.65l3.05,8.15Z"/><path class="cls-1" d="M33.69,7.14a.48.48,0,0,0-.7,0l-.38.38V5.68A3.62,3.62,0,0,0,29,2.06H27.56l.38-.39a.47.47,0,0,0,.15-.35A.49.49,0,0,0,27.94,1a.48.48,0,0,0-.7,0L26,2.21a.28.28,0,0,0-.1.14.29.29,0,0,0-.05.2.31.31,0,0,0,.07.23s0,0,0,0,0,.05.06.08l1.23,1.24a.54.54,0,0,0,.35.14.46.46,0,0,0,.35-.14.49.49,0,0,0,.15-.35.47.47,0,0,0-.15-.35l-.38-.39H29a2.66,2.66,0,0,1,2.62,2.63V7.52l-.38-.38a.48.48,0,0,0-.7,0,.46.46,0,0,0-.15.34.47.47,0,0,0,.15.35l1.23,1.24a.47.47,0,0,0,.35.14.46.46,0,0,0,.35-.14l1.23-1.24a.47.47,0,0,0,.15-.35A.46.46,0,0,0,33.69,7.14Z"/><path class="cls-1" d="M10.81,18.35a.49.49,0,0,0,.7,0L11.9,18l0,1.85a3.62,3.62,0,0,0,3.57,3.66l1.44,0-.39.38a.5.5,0,0,0-.16.35.49.49,0,0,0,.15.35.47.47,0,0,0,.69,0l1.25-1.21a.39.39,0,0,0,.11-.15.28.28,0,0,0,0-.2.32.32,0,0,0-.07-.23s0,0,0,0a.33.33,0,0,0-.06-.08l-1.21-1.25a.49.49,0,0,0-.35-.15.44.44,0,0,0-.35.14.47.47,0,0,0-.15.35.47.47,0,0,0,.14.35l.38.39-1.43,0a2.66,2.66,0,0,1-2.59-2.66l0-1.85.38.4a.49.49,0,0,0,.7,0,.54.54,0,0,0,.16-.35A.47.47,0,0,0,14,17.7l-1.21-1.25a.5.5,0,0,0-.35-.16.47.47,0,0,0-.35.15l-1.25,1.21a.49.49,0,0,0-.15.35A.47.47,0,0,0,10.81,18.35Z"/></g></g></svg>