<svg xmlns="http://www.w3.org/2000/svg" viewBox="0 0 42.05 30.3"><defs><style>.cls-1{fill:#dddcdc;}</style></defs><title>Language_light0</title><g id="Layer_2" data-name="Layer 2"><g id="Language_light"><path class="cls-1" d="M38,10.1H22.58a4.11,4.11,0,0,0-4,4.19v7.44a4.12,4.12,0,0,0,3.83,4.18H31L34.46,30a.93.93,0,0,0,1,.27,1,1,0,0,0,.66-.92V25.91H38a4.11,4.11,0,0,0,4-4.18V14.29A4.12,4.12,0,0,0,38,10.1Zm-3,4.74H33.83v7.87h-1V18.29l-.28.14-.33.12a2.87,2.87,0,0,1-.73.07h-.24l0,.24c0,.1,0,.21,0,.32a2.35,2.35,0,0,1-.16.89,2.12,2.12,0,0,1-.46.71,2.09,2.09,0,0,1-.72.47,2.78,2.78,0,0,1-2,0,3.78,3.78,0,0,1-.82-.51,3.86,3.86,0,0,1-.63-.71,5.87,5.87,0,0,1-.47-.79c-.12-.26-.23-.51-.31-.74s-.15-.44-.19-.59v0l.82-.38v0c.06.18.13.38.2.6s.18.43.28.65.23.43.36.63a2.74,2.74,0,0,0,.46.55,2.18,2.18,0,0,0,.57.38,1.82,1.82,0,0,0,1.32,0,1,1,0,0,0,.41-.29,1.14,1.14,0,0,0,.24-.43,2.18,2.18,0,0,0,.07-.52,1.06,1.06,0,0,0-.43-.91,2.16,2.16,0,0,0-1.44-.33l-.19,0h0v-1h.12a2.41,2.41,0,0,0,.76-.1,1.88,1.88,0,0,0,.53-.27,1.35,1.35,0,0,0,.32-.4,1.15,1.15,0,0,0,.1-.48,1,1,0,0,0-.07-.4,1,1,0,0,0-.22-.3,1.11,1.11,0,0,0-.32-.18,1.67,1.67,0,0,0-.71,0l-.31.06-.35.11-.41.18h0l-.36-.86h0a5.11,5.11,0,0,1,.88-.34,2.82,2.82,0,0,1,1.66,0,1.89,1.89,0,0,1,.63.38,1.63,1.63,0,0,1,.42.58,1.89,1.89,0,0,1,.14.72,1.86,1.86,0,0,1-.73,1.5l-.22.19.25.14a2.28,2.28,0,0,1,.3.21l0,0h.06a2.58,2.58,0,0,0,.29,0,2.65,2.65,0,0,0,.69,0,2.37,2.37,0,0,0,.36-.09,1.46,1.46,0,0,0,.38-.18,2,2,0,0,0,.32-.22l.06-.06V14.84H31.55v-.92h3.5Z"/><polygon class="cls-1" points="12.44 4.94 12.15 4.94 10.91 8.44 13.66 8.44 12.51 5.08 12.44 4.94"/><path class="cls-1" d="M19.46,0H4A4.12,4.12,0,0,0,0,4.19v7.44a4.11,4.11,0,0,0,4,4.18H5.88v3.41a1,1,0,0,0,.65.92,1,1,0,0,0,1.06-.27L11,15.81h6.45V13.4a4.11,4.11,0,0,1,4-4.18h2v-5A4.12,4.12,0,0,0,19.46,0ZM14.65,11.29,14,9.42H10.57l-.66,1.87H8.47l3-8h1.63l3,8Z"/><path class="cls-1" d="M33.17,7a.49.49,0,0,0-.69,0l-.37.37V5.59A3.56,3.56,0,0,0,28.54,2H27.13l.38-.38a.53.53,0,0,0,.15-.35A.49.49,0,0,0,27.51,1a.47.47,0,0,0-.69,0L25.61,2.17a.31.31,0,0,0-.1.15.26.26,0,0,0-.05.2.3.3,0,0,0,.07.22l0,0a.33.33,0,0,0,.06.08l1.21,1.21a.54.54,0,0,0,.35.15.46.46,0,0,0,.34-.15.46.46,0,0,0,0-.68L27.13,3h1.41a2.62,2.62,0,0,1,2.59,2.58V7.4L30.75,7a.47.47,0,0,0-.69,0,.46.46,0,0,0,0,.68l1.21,1.22a.46.46,0,0,0,.35.14A.45.45,0,0,0,32,8.93l1.21-1.22a.46.46,0,0,0,0-.68Z"/><path class="cls-1" d="M10.64,18.07a.5.5,0,0,0,.69,0l.39-.38,0,1.82a3.57,3.57,0,0,0,3.52,3.61l1.41,0-.39.37a.53.53,0,0,0-.15.35.49.49,0,0,0,.14.34.48.48,0,0,0,.69,0L18.14,23a.28.28,0,0,0,.1-.14.28.28,0,0,0,.05-.2.34.34,0,0,0-.06-.22l0,0a.25.25,0,0,0-.05-.08L17,21.11a.47.47,0,0,0-.34-.15.44.44,0,0,0-.35.14.53.53,0,0,0-.15.34.49.49,0,0,0,.15.35l.37.38-1.41,0a2.62,2.62,0,0,1-2.55-2.62l0-1.81.37.38a.48.48,0,0,0,.69,0,.49.49,0,0,0,.15-.34.52.52,0,0,0-.14-.35l-1.2-1.23a.45.45,0,0,0-.34-.15.47.47,0,0,0-.35.14l-1.23,1.2a.5.5,0,0,0-.15.34A.52.52,0,0,0,10.64,18.07Z"/></g></g></svg>