<svg xmlns="http://www.w3.org/2000/svg" viewBox="0 0 24.08 24.07"><defs><style>.cls-1{fill:#898989;}</style></defs><title>location0</title><g id="Layer_2" data-name="Layer 2"><g id="location"><path class="cls-1" d="M11.41,22.12V20.84c0-.18,0-.17-.18-.2-.46-.07-.92-.11-1.37-.22a7.54,7.54,0,0,1-2.32-1,8.57,8.57,0,0,1-3.44-4,8,8,0,0,1-.66-2.6c0-.19,0-.19-.21-.19H.64a.63.63,0,1,1,0-1.25H3.25c.17,0,.16,0,.19-.17s.06-.49.1-.73a7.56,7.56,0,0,1,.6-2A8.61,8.61,0,0,1,8.2,4.3a7.88,7.88,0,0,1,2.3-.76c.26,0,.52-.08.77-.11s.14-.05.14-.16V.64a.63.63,0,1,1,1.25,0V3.15a.57.57,0,0,1,0,.13c0,.11,0,.14.14.15.29,0,.58.06.86.11a7.09,7.09,0,0,1,1.74.51,8.58,8.58,0,0,1,4.49,4.36,8.05,8.05,0,0,1,.65,2.09c0,.25.07.5.1.74s0,.17.19.17h2.6a.63.63,0,0,1,.65.62.62.62,0,0,1-.65.63H20.87c-.21,0-.21,0-.23.21a8.39,8.39,0,0,1-4.53,6.79,8.32,8.32,0,0,1-2.42.86c-.28.06-.57.08-.85.12s-.18,0-.18.19v2.59a.61.61,0,0,1-.39.61.62.62,0,0,1-.86-.59V22.12ZM19.49,12A7.46,7.46,0,1,0,12,19.49,7.46,7.46,0,0,0,19.49,12Z"/><path class="cls-1" d="M15.53,12a3.5,3.5,0,1,1-3.48-3.5A3.48,3.48,0,0,1,15.53,12Z"/></g></g></svg>