<svg xmlns="http://www.w3.org/2000/svg" viewBox="0 0 17.06 20"><defs><style>.cls-1{fill:#e32f44;}.cls-2{fill:#8b8b8b;}</style></defs><title>Mahindra Finance branch0</title><g id="Layer_2" data-name="Layer 2"><g id="Mahindra_Finance_branch" data-name="Mahindra Finance branch"><circle class="cls-1" cx="8.27" cy="3.59" r="2.28"/><polygon class="cls-2" points="12.1 12.71 12.1 11.03 5.3 11.03 5.3 12.71 3.04 12.71 3.04 19.44 6.44 19.44 6.44 15.66 10.97 15.66 10.97 19.44 14.37 19.44 14.37 12.71 12.1 12.71"/><rect class="cls-2" x="7.57" y="16.5" width="2.27" height="2.94"/><path class="cls-2" d="M8.41,0A3.54,3.54,0,0,0,4.88,3.53V4a9,9,0,0,0,.48,1.55,21.79,21.79,0,0,0,3.05,5C9.25,9.4,11.67,6,11.88,4.13h0a3.81,3.81,0,0,0,0-.59A3.53,3.53,0,0,0,8.41,0Zm0,5.1A1.56,1.56,0,1,1,10,3.54,1.56,1.56,0,0,1,8.4,5.1Z"/><ellipse class="cls-2" cx="8.53" cy="19.6" rx="8.53" ry="0.4"/></g></g></svg>