<?xml version="1.0" encoding="utf-8"?>
<!-- Generator: Adobe Illustrator 22.0.1, SVG Export Plug-In . SVG Version: 6.00 Build 0)  -->
<svg version="1.1" id="Layer_6" xmlns="http://www.w3.org/2000/svg" xmlns:xlink="http://www.w3.org/1999/xlink" x="0px" y="0px"
	 viewBox="0 0 720.3 141.1" style="enable-background:new 0 0 720.3 141.1;" xml:space="preserve">
<style type="text/css">
	.st0{fill:#FFFFFF;}
</style>
<title>Mahindra Finance_Logo</title>
<path class="st0" d="M171.5,54.1h-23.9c-1.2,0-2.2,0.6-2.9,1.5l-4,5.9h24.1c1.5,0.1,2.7,1.4,2.7,2.9v11.3h-18.1v-3.2l0,0
	c0-0.6,0.5-1.2,1.2-1.2h12.6v-4.2c0.1-0.8-0.5-1.5-1.3-1.6c-0.1,0-0.1,0-0.2,0h-17.5c-2.1,0-3.9,1.7-3.9,3.9v10.3c0,0.1,0,0.1,0,0.2
	c0.3,1.6,1.6,2.7,3.2,2.7h34.1V60.3C177.6,56.9,174.9,54.1,171.5,54.1"/>
<path class="st0" d="M389.1,54.1h-23.9c-1.2,0-2.2,0.5-2.9,1.5l-4,5.9h24.1c1.5,0.1,2.7,1.4,2.7,2.9v11.3H367v-3.2l0,0
	c0-0.6,0.5-1.2,1.2-1.2l0,0h12.6v-4.2c0.1-0.8-0.5-1.5-1.3-1.6c-0.1,0-0.1,0-0.2,0h-17.5c-2.1,0-3.9,1.7-3.9,3.9l0,0v10.3
	c0,0.1,0,0.1,0,0.2c0.3,1.6,1.6,2.7,3.2,2.7h34.1V60.3C395.2,56.9,392.5,54.1,389.1,54.1C389.1,54.1,389.1,54.1,389.1,54.1"/>
<path class="st0" d="M313.9,43.8v31.7H299c-0.9,0-1.7-0.8-1.8-1.7v-9.3l0,0c0-1.6,1.3-2.9,2.9-2.9h7.6c1.1,0,2.1-0.5,2.8-1.4
	l3.5-5.9h-21c-3.4,0-6.1,2.7-6.1,6.1v17.2c0,2.8,2.2,5,4.9,5.1c0,0,0.1,0,0.1,0h32.5V43.8H313.9z"/>
<path class="st0" d="M335.4,54.1c-2.3-0.1-4.2,1.7-4.2,4c0,0,0,0.1,0,0.1v24.3h10.4V64.4c-0.1-1.6,1.1-2.9,2.6-3c0.1,0,0.1,0,0.2,0
	h7.7c1.1-0.1,2.1-0.7,2.7-1.6l4-5.8L335.4,54.1z"/>
<path class="st0" d="M227.5,43.8h10.3v7.2l-10.3,6.9L227.5,43.8z M227.5,63.4v19.2h10.3V54.4l-8.2,5.1
	C228.3,60.4,227.5,61.8,227.5,63.4"/>
<path class="st0" d="M126.7,43.8H77v38.7h10.3V52.8h11c1.1,0,1.9,0.9,1.9,1.9l0,0v27.8h10.3V54.8c0-1.1,0.9-1.9,1.9-1.9h8.1
	c1.6,0,2.8,1.3,2.8,2.8c0,0,0,0,0,0l0,0v26.9h10.3V50.9C133.8,47,130.6,43.8,126.7,43.8L126.7,43.8"/>
<path class="st0" d="M273.9,54.1h-29.4v28.4H255v-21h11.8c1.6,0,2.9,1.3,2.9,2.9l0,0v18.1h10.4V60.3
	C280.1,56.9,277.3,54.1,273.9,54.1"/>
<path class="st0" d="M184.1,43.8h10.3v38.7h-10.3V43.8z M220.6,60.3c0-3.4-2.7-6.1-6.1-6.1c0,0,0,0,0,0h-13.6c-1,0-2,0.6-2.4,1.5
	l-4,5.8h13.1c1.6,0.1,2.8,1.4,2.8,2.9v18.1h10.3L220.6,60.3"/>
<path class="st0" d="M422,50v10.4h17.4v6.2H422v15.9h-7.4V43.8h25.7V50H422z"/>
<path class="st0" d="M452.2,43.8v38.7h-7.4V43.8H452.2z"/>
<path class="st0" d="M495,43.8v38.7h-12.5l-11.1-21.3c-0.5-1.1-1.4-2.9-2.6-5.6l-1.2-2.8l-1.2-2.8h-0.3l0.1,2.5l0.1,2.5l0,5.1v22.2
	H459V43.8h12.5l10.1,19.6c0.9,1.7,1.9,3.8,3.1,6.3l1.5,3.2l1.5,3.2h0.3l-0.1-2.5l-0.1-2.5l-0.1-5V43.8H495z"/>
<path class="st0" d="M525.2,75.1h-16.7l-2.4,7.4h-7.8l12.9-38.7h11l13.1,38.7h-7.6L525.2,75.1z M523.5,69.7l-6.7-20.2l-6.6,20.2
	H523.5z"/>
<path class="st0" d="M574.6,43.8v38.7h-12.5l-11.1-21.3c-0.5-1.1-1.4-2.9-2.6-5.6l-1.3-2.8l-1.2-2.8h-0.3l0.1,2.5l0.1,2.5l0.1,5.1
	v22.2h-7.3V43.8h12.5l10.1,19.6c0.9,1.7,1.9,3.8,3.1,6.3l1.5,3.2l1.5,3.2h0.3l-0.1-2.5l-0.1-2.5l0-5V43.8H574.6z"/>
<path class="st0" d="M605.4,68.7h7.4V70c0,5.4-1,8.9-3,10.4s-6.4,2.4-13.1,2.4c-7.6,0-12.3-1.2-14.1-3.7s-2.6-9.1-2.6-20
	c0-6.4,1.2-10.6,3.6-12.6c2.4-2,7.4-3,15-3c5.5,0,9.2,0.8,11.1,2.5c1.8,1.7,2.8,5,2.8,9.9v0.9H605v-1c0-2.5-0.5-4.2-1.4-4.9
	s-3.1-1.1-6.5-1.1c-4.5,0-7.3,0.6-8.2,1.7s-1.4,4.4-1.4,9.9c0,7.4,0.4,11.8,1.2,13.2c0.8,1.3,3.5,2,8,2c3.7,0,6-0.4,7.1-1.1
	c1.1-0.8,1.6-2.4,1.6-5L605.4,68.7z"/>
<path class="st0" d="M624,50v10h18.2v5.4H624v11h19.3v6.2h-26.7V43.8h26.5V50H624z"/>
</svg>
