<svg id="Layer_6" data-name="Layer 6" xmlns="http://www.w3.org/2000/svg" viewBox="0 0 720.25 141.12"><defs><style>.cls-1{fill:#e31837;stroke:#231f20;stroke-miterlimit:10;stroke-width:0.25px;}.cls-2{fill:#fff;}</style></defs><title>Mahindra Finance_Logo</title><rect class="cls-1" x="0.13" width="720" height="141.12"/><path class="cls-2" d="M171.54,54.11H147.67a3.65,3.65,0,0,0-2.93,1.48l-4,5.9h24.06a2.9,2.9,0,0,1,2.72,2.9V75.67H149.44V72.44h0a1.17,1.17,0,0,1,1.16-1.17h12.61V67.1a1.45,1.45,0,0,0-1.5-1.6H144.22a3.88,3.88,0,0,0-3.87,3.88V79.67a.59.59,0,0,0,0,.17,3.19,3.19,0,0,0,3.19,2.68h34.1V60.25a6.14,6.14,0,0,0-6.14-6.14"/><path class="cls-2" d="M389.12,54.11H365.24a3.62,3.62,0,0,0-2.92,1.48l-4,5.9h24.07a2.9,2.9,0,0,1,2.71,2.9V75.67H367V72.44h0a1.17,1.17,0,0,1,1.17-1.17h12.6V67.1a1.45,1.45,0,0,0-1.5-1.6H361.8a3.88,3.88,0,0,0-3.88,3.88V79.67a1.36,1.36,0,0,0,0,.17,3.19,3.19,0,0,0,3.19,2.68h34.1V60.25a6.13,6.13,0,0,0-6.13-6.14"/><path class="cls-2" d="M313.94,43.79V75.44H299a1.79,1.79,0,0,1-1.76-1.69V64.4h0a2.9,2.9,0,0,1,2.9-2.9h7.58a3.4,3.4,0,0,0,2.77-1.43l3.49-5.94h-21a6.14,6.14,0,0,0-6.13,6.13V77.44a5,5,0,0,0,5,5.08h32.51V43.79Z"/><path class="cls-2" d="M335.41,54.12a4.14,4.14,0,0,0-4.25,4.14V82.52h10.4V64.43a2.82,2.82,0,0,1,2.8-3h7.69a3.6,3.6,0,0,0,2.68-1.6l4-5.75Z"/><path class="cls-2" d="M227.46,43.76h10.32v7.16l-10.32,6.86Zm0,19.6V82.52h10.32V54.44l-8.18,5.11a4.52,4.52,0,0,0-2.14,3.81"/><path class="cls-2" d="M126.67,43.79H77V82.52H87.3V52.83h11a1.92,1.92,0,0,1,1.89,1.93h0V82.52h10.33V54.76a2,2,0,0,1,1.94-1.94h8.14a2.83,2.83,0,0,1,2.84,2.83h0V82.52h10.32V50.91a7.12,7.12,0,0,0-7.12-7.12"/><path class="cls-2" d="M273.94,54.12l-29.36,0V82.52H255v-21H266.8a2.91,2.91,0,0,1,2.91,2.9h0V82.52h10.37V60.25a6.14,6.14,0,0,0-6.14-6.13"/><path class="cls-2" d="M184.09,43.79h10.34V82.52H184.09Zm36.54,16.46a6.13,6.13,0,0,0-6.13-6.14H200.91a2.74,2.74,0,0,0-2.43,1.55l-4,5.83h13.11a2.91,2.91,0,0,1,2.77,2.91V82.52h10.32V60.25"/><path class="cls-2" d="M422,50V60.42h17.37V66.6H422V82.53h-7.35V43.79h25.66V50Z"/><path class="cls-2" d="M452.16,43.79V82.53h-7.35V43.79Z"/><path class="cls-2" d="M495,43.79V82.53H482.52L471.46,61.27q-.82-1.59-2.59-5.56l-1.24-2.78-1.23-2.78h-.28l.11,2.55.09,2.53.05,5.08V82.53H459V43.79h12.46l10.07,19.64c.88,1.74,1.92,3.84,3.08,6.32l1.48,3.15,1.49,3.19h.25l-.09-2.5-.08-2.5-.06-5V43.79Z"/><path class="cls-2" d="M525.23,75.09H508.52l-2.41,7.44h-7.78l12.88-38.74h11l13.08,38.74H527.7Zm-1.71-5.42-6.69-20.18-6.58,20.18Z"/><path class="cls-2" d="M574.63,43.79V82.53H562.17L551.1,61.27q-.81-1.59-2.57-5.56l-1.25-2.78-1.22-2.78h-.29l.12,2.55.08,2.53.06,5.08V82.53h-7.35V43.79h12.46l10.07,19.64c.89,1.74,1.93,3.84,3.09,6.32l1.48,3.15,1.47,3.19h.26l-.08-2.5-.1-2.5-.05-5V43.79Z"/><path class="cls-2" d="M605.37,68.71h7.38V70q0,8.08-3,10.45t-13.06,2.37c-7.63,0-12.34-1.24-14.09-3.73S580,70,580,59.09q0-9.59,3.58-12.62t14.95-3q8.29,0,11.07,2.48c1.85,1.67,2.78,5,2.78,9.87l0,.88H605v-1c0-2.53-.47-4.16-1.43-4.87s-3.14-1.06-6.55-1.06c-4.54,0-7.29.56-8.21,1.68s-1.38,4.42-1.38,9.93q0,11.11,1.24,13.17c.82,1.35,3.49,2,8,2q5.48,0,7.11-1.14c1.08-.75,1.63-2.42,1.63-5Z"/><path class="cls-2" d="M624,50V60h18.16v5.42H624v11h19.32v6.19H616.6V43.79h26.51V50Z"/></svg>