<svg xmlns="http://www.w3.org/2000/svg" viewBox="0 0 20 21.1"><defs><style>.cls-1{fill:#898989;}.cls-2{fill:#e32f44;}</style></defs><title>mahindra finance branches with red dot0</title><g id="Layer_2" data-name="Layer 2"><g id="mahindra_finance_branches_with_red_dot" data-name="mahindra finance branches with red dot"><g id="fK0u1z.tif"><path class="cls-1" d="M10,6.24H1.68a1.8,1.8,0,0,1-.4,0,.57.57,0,0,1-.4-.5c0-.46,0-.93,0-1.4a.53.53,0,0,1,.33-.46L3.13,3,7.22,1.22,9.89.05a.58.58,0,0,1,.5,0l4.37,2,4,1.77a.6.6,0,0,1,.41.62c0,.4,0,.79,0,1.18a.63.63,0,0,1-.66.65H10Z"/><path class="cls-1" d="M10,19.42h9.69c.23,0,.31.07.31.3v1.09c0,.21-.08.29-.3.29H.28C.08,21.1,0,21,0,20.82v-1.1c0-.23.08-.3.3-.3H10Z"/><path class="cls-1" d="M10,18.42H1.09a.2.2,0,0,1-.21-.21c0-.41,0-.83,0-1.24,0-.16.08-.22.27-.22.38,0,.77,0,1.15,0,3.62,0,7.24,0,10.86,0h5.65c.26,0,.31.05.31.31v1.07c0,.24-.06.29-.3.29H10Z"/><path class="cls-1" d="M9,11.49V7.69c0-.34.14-.47.48-.47h1.06c.31,0,.45.14.45.45v7.64c0,.31-.14.45-.45.45H9.45A.4.4,0,0,1,9,15.31Z"/><path class="cls-1" d="M2.88,11.48c0-1.27,0-2.54,0-3.81a.4.4,0,0,1,.46-.45H4.43a.38.38,0,0,1,.44.44v7.65c0,.31-.14.45-.45.45H3.29a.37.37,0,0,1-.41-.41Z"/><path class="cls-1" d="M17.11,11.49V15.3c0,.32-.14.46-.47.46h-1c-.39,0-.51-.12-.51-.5V7.67c0-.32.14-.45.46-.45h1.09a.38.38,0,0,1,.44.43Z"/></g><circle class="cls-2" cx="10" cy="3.49" r="0.84"/></g></g></svg>