<?xml version="1.0" encoding="utf-8"?>
<!-- Generator: Adobe Illustrator 22.0.1, SVG Export Plug-In . SVG Version: 6.00 Build 0)  -->
<svg version="1.1" id="Layer_1" xmlns="http://www.w3.org/2000/svg" xmlns:xlink="http://www.w3.org/1999/xlink" x="0px" y="0px"
	 viewBox="0 0 17.1 20" style="enable-background:new 0 0 17.1 20;" xml:space="preserve">
<style type="text/css">
	.st0{fill:#FFFFFF;}
	.st1{fill:#E32F44;}
</style>
<title>Mahindra Finance branch0</title>
<circle class="st0" cx="8.3" cy="3.6" r="2.3"/>
<polygon class="st1" points="12.1,12.7 12.1,11 5.3,11 5.3,12.7 3,12.7 3,19.4 6.4,19.4 6.4,15.7 11,15.7 11,19.4 14.4,19.4 
	14.4,12.7 "/>
<rect x="7.6" y="16.5" class="st1" width="2.3" height="2.9"/>
<path class="st1" d="M8.4,0C6.5,0,4.9,1.6,4.9,3.5V4C5,4.5,5.2,5,5.4,5.6c0.8,1.8,1.8,3.5,3,5c0.8-1.2,3.3-4.6,3.5-6.4l0,0
	c0-0.2,0-0.4,0-0.6C11.9,1.6,10.3,0,8.4,0z M8.4,5.1c-0.9,0-1.5-0.7-1.5-1.6S7.6,2,8.5,2C9.3,2,10,2.7,10,3.5
	C10,4.4,9.3,5.1,8.4,5.1C8.4,5.1,8.4,5.1,8.4,5.1L8.4,5.1z"/>
<ellipse class="st1" cx="8.5" cy="19.6" rx="8.5" ry="0.4"/>
</svg>
