<?xml version="1.0" encoding="utf-8"?>
<!-- Generator: Adobe Illustrator 22.1.0, SVG Export Plug-In . SVG Version: 6.00 Build 0)  -->
<svg version="1.1" id="Layer_1" xmlns="http://www.w3.org/2000/svg" xmlns:xlink="http://www.w3.org/1999/xlink" x="0px" y="0px"
	 viewBox="0 0 160 11.1" style="enable-background:new 0 0 160 11.1;" xml:space="preserve">
<style type="text/css">
	.st0{fill:#D31E35;}
	.st1{fill:#727376;}
</style>
<g>
	<g id="g1408" transform="translate(33.85206,15.569612)">
		<path id="path1410" class="st0" d="M-13.8-12.5c-0.3,0-0.7,0.2-0.8,0.4l-1.2,1.6h6.9c0.4,0,0.8,0.4,0.8,0.8v3.2h-5.1v-0.9l0,0
			c0-0.2,0.1-0.3,0.3-0.3h3.6v-1.2c0-0.3-5.4-0.4-5.4-0.4c-0.6,0-1.1,0.5-1.1,1.1v2.9v0.1c0.1,0.4,0.4,0.7,0.9,0.7h9.7v-6.3
			c0-1-0.8-1.7-1.7-1.7H-13.8"/>
	</g>
	<g id="g1412" transform="translate(126.85537,15.569612)">
		<path id="path1414" class="st0" d="M-44.9-12.5c-0.3,0-0.7,0.2-0.8,0.4l-1.2,1.6h6.9c0.4,0,0.7,0.4,0.7,0.8v3.2h-5.1v-0.9l0,0
			c0-0.2,0.1-0.3,0.3-0.3h3.6v-1.2c0-0.3-0.2-0.4-0.4-0.4h-4.9c-0.6,0-1.1,0.5-1.1,1.1v2.9v0.1c0.1,0.4,0.4,0.7,0.9,0.7h9.7v-6.3
			c0-1-0.8-1.7-1.7-1.7H-44.9"/>
	</g>
	<g id="g1416" transform="translate(104.92775,19.981512)">
		<path id="path1418" class="st0" d="M-37.6-19.9v2.9v6h-4.3c-0.3,0-0.5-0.2-0.5-0.5v-2.6l0,0c0-0.4,0.4-0.8,0.8-0.8h2.2
			c0.3,0,0.7-0.2,0.8-0.4l1-1.6h-6c-1,0-1.7,0.8-1.7,1.7l0,0v4.8c0,0.9,0.7,1.4,1.4,1.4h9.3v-10.9H-37.6"/>
	</g>
	<g id="g1420" transform="translate(114.10776,15.566112)">
		<path id="path1422" class="st0" d="M-40.7-12.5c-0.7,0-1.2,0.5-1.2,1.2v6.8h3v-5.1c0-0.4,0.3-0.9,0.8-0.9h2.2
			c0.3,0,0.6-0.2,0.7-0.4l1.2-1.6L-40.7-12.5"/>
	</g>
	<g id="g1424" transform="translate(67.95755,19.994912)">
		<path id="path1426" class="st0" d="M-25.2-19.9v3.9l3-2v-2L-25.2-19.9 M-24.6-15.4c-0.4,0.2-0.6,0.6-0.6,1.1v5.4h3v-4.8v-3
			C-22.3-16.9-23.7-16-24.6-15.4"/>
	</g>
	<g id="g1428" transform="translate(3.6327604,19.982412)">
		<path id="path1430" class="st0" d="M-3.6-8.9h2.9v-8.4h3.1c0.3,0,0.6,0.2,0.6,0.5l0,0v7.8h3v-7.8c0-0.3,0.2-0.5,0.6-0.5l0,0h2.3
			c0.4,0,0.8,0.4,0.8,0.8v7.6h2.9v-8.8c0-1.1-0.9-2-2-2H-3.6"/>
	</g>
	<g id="g1432" transform="translate(75.27906,15.557112)">
		<path id="path1434" class="st0" d="M-27.7-12.5v8h3v-5.9h3.3c0.4,0,0.8,0.4,0.8,0.8v5.1h3v-6.2c0-1-0.8-1.7-1.7-1.7H-27.7"/>
	</g>
	<g id="g1436" transform="translate(49.42206,19.980512)">
		<path id="path1438" class="st0" d="M-19-19.9v10.9h3v-5.9v-4.9L-19-19.9 M-10.4-16.9h-3.8c-0.4,0-0.5,0.2-0.7,0.4l-1.2,1.6h3.7
			c0.4,0,0.8,0.4,0.8,0.8V-9h3v-6.2l0,0C-8.6-16.1-9.4-16.9-10.4-16.9L-10.4-16.9"/>
	</g>
	<g id="g1440" transform="translate(146.56806,19.981512)">
		<path id="path1442" class="st1" d="M-51.6-19.9v10.9h2.1v-4.5h4.9v-1.7h-4.9V-18h5.2v-1.7L-51.6-19.9z"/>
	</g>
	<path id="path1444" class="st1" d="M103.6,11h2.1V0.1h-2.1V11z"/>
	<g id="g1446" transform="translate(177.75576,19.981512)">
		<path id="path1448" class="st1" d="M-62.1-19.9v6.3v1.4v0.7v0.7h-0.1l-0.4-0.9l-0.4-0.9c-0.3-0.7-0.6-1.3-0.9-1.8l-2.8-5.5h-3.5
			v10.9h2.1v-6.3v-1.4v-0.7l-0.1-0.7h0.1l0.4,0.8l0.4,0.8c0.3,0.7,0.6,1.3,0.7,1.6l3.1,6h3.5v-10.9L-62.1-19.9"/>
	</g>
	<g id="g1450" transform="translate(187.83576,19.981512)">
		<path id="path1452" class="st1" d="M-65.4-19.9l-3.6,10.9h2.2l0.7-2.1h4.8l0.7,2.1h2.2l-3.7-10.9H-65.4 M-63.8-18.2l1.9,5.7h-3.8
			C-65.7-12.5-63.8-18.2-63.8-18.2z"/>
	</g>
	<g id="g1454" transform="translate(211.80455,19.981512)">
		<path id="path1456" class="st1" d="M-73.5-19.9v6.3v1.4v0.7v0.7l0,0l-0.4-0.9l-0.4-0.9c-0.3-0.7-0.6-1.3-0.9-1.8l-2.8-5.5h-3.5
			v10.9h2.1v-6.3v-1.4v-0.7l-0.1-0.7h0.1l0.4,0.8l0.4,0.8c0.3,0.7,0.6,1.3,0.7,1.6l3.1,6h3.5v-10.9L-73.5-19.9"/>
	</g>
	<g id="g1458" transform="translate(218.76786,18.835812)">
		<path id="path1460" class="st1" d="M-75.8-17.9c-0.7,0.5-1,1.8-1,3.5c0,3,0.2,4.9,0.7,5.6c0.5,0.7,1.9,1,4,1
			c1.9,0,3.1-0.2,3.7-0.7c0.5-0.4,0.8-1.3,0.8-2.9v-0.4h-2.1v0.5c0,0.7-0.2,1.2-0.4,1.4c-0.3,0.2-1,0.3-2,0.3c-1.3,0-2-0.2-2.3-0.5
			c-0.2-0.4-0.4-1.6-0.4-3.7c0-1.5,0.1-2.5,0.4-2.8s1-0.5,2.3-0.5c1,0,1.6,0.1,1.9,0.3c0.2,0.2,0.4,0.7,0.4,1.3v0.3h2.1v-0.2
			c0-1.4-0.2-2.3-0.8-2.7c-0.5-0.5-1.5-0.7-3.1-0.7C-73.7-18.8-75.1-18.5-75.8-17.9"/>
	</g>
	<g id="g1462" transform="translate(232.88436,19.981512)">
		<path id="path1464" class="st1" d="M-80.5-19.9v10.9h7.6v-1.7h-5.6v-3h5.2v-1.5h-5.2V-18h5.4v-1.7h-7.5V-19.9z"/>
	</g>
</g>
</svg>
