<svg xmlns="http://www.w3.org/2000/svg" viewBox="0 0 140.89 9.89"><defs><style>.cls-1{fill:#d21e35;}.cls-2{fill:#1f1a17;}</style></defs><title>Mahindra Finance logo0</title><g id="Layer_2" data-name="Layer 2"><g id="Mahindra_Finance_logo" data-name="Mahindra Finance logo"><path class="cls-1" d="M6.45.09h5.8a1.77,1.77,0,0,1,2,2c0,2.46,0,4.91,0,7.37,0,.3-.08.38-.38.37-.59,0-1.19,0-1.78,0-.32,0-.43-.06-.43-.41,0-2,0-4,0-6,0-.82-.2-1-1-1H9.06c-.49,0-.65.16-.65.65q0,3.21,0,6.42c0,.3-.07.39-.38.38-.62,0-1.25,0-1.88,0-.28,0-.34-.09-.34-.35q0-3.17,0-6.31c0-.7-.1-.79-.8-.79s-1.41,0-2.11,0c-.28,0-.33.09-.33.35,0,2.23,0,4.47,0,6.71,0,.31-.06.42-.39.4-.64,0-1.29,0-1.93,0C.08,9.81,0,9.75,0,9.52Q0,5,0,.38C0,.08.15.09.36.09,2.39.1,4.42.09,6.45.09Z"/><path class="cls-2" d="M116.55,1.72c0,1.08,0,2.14,0,3.2,0,1.52,0,3,0,4.57,0,.24-.06.34-.32.33a10.1,10.1,0,0,0-1.23,0c-.25,0-.31-.07-.31-.3,0-1,0-2,0-3q0-3,0-6c0-.29,0-.4.37-.39.82,0,1.64,0,2.47,0a.41.41,0,0,1,.43.27c1.27,2.53,2.61,5,3.78,7.58,0,.07,0,.17.17.2V7.87c-.11-2.49,0-5-.06-7.47,0-.23,0-.32.29-.31.43,0,.87,0,1.31,0,.18,0,.25,0,.25.24,0,3.07,0,6.15,0,9.22,0,.2-.06.27-.26.26h-2.62c-.21,0-.28-.1-.37-.26-1.3-2.56-2.72-5.06-3.83-7.71A.37.37,0,0,0,116.55,1.72Z"/><path class="cls-2" d="M101.91,8.14c0-2.56,0-5.12,0-7.67,0-.28,0-.41.37-.38a7.49,7.49,0,0,0,1.16,0c.28,0,.33.09.33.35q0,4.35,0,8.7c0,.67,0,.67-.66.67H101a.38.38,0,0,1-.42-.24c-1.28-2.56-2.71-5-3.82-7.68a.26.26,0,0,0-.15-.16c0,.19,0,.37,0,.56l0,7.25c0,.2,0,.28-.26.27h-1.3c-.2,0-.27,0-.27-.25V.34c0-.18,0-.25.23-.25.89,0,1.77,0,2.65,0A.36.36,0,0,1,98,.35c1.27,2.52,2.61,5,3.78,7.58Z"/><path class="cls-1" d="M16,4.53c.37-.55.7-1,1-1.52a.92.92,0,0,1,.77-.34c2,0,3.92,0,5.88,0a1.49,1.49,0,0,1,1.55,1.6c0,1.74,0,3.48,0,5.23,0,.24-.08.3-.31.3H16.84c-.69,0-1-.29-1-1s0-1.5,0-2.25a1,1,0,0,1,1-1h4.17c.39,0,.49.11.51.49,0,1,0,1-.89,1-.7,0-1.4,0-2.11,0-.34,0-.47.13-.46.47,0,.64,0,.64.62.64h3.59c.23,0,.32-.05.31-.3,0-.82,0-1.64,0-2.46a.71.71,0,0,0-.81-.8Z"/><path class="cls-1" d="M70.4,4.53c.38-.55.71-1.05,1.06-1.54a.92.92,0,0,1,.78-.32c1.93,0,3.87,0,5.81,0a1.51,1.51,0,0,1,1.6,1.63c0,1.73,0,3.46,0,5.19,0,.23-.06.31-.3.31H71.26c-.67,0-.94-.3-.94-1s0-1.5,0-2.25a1,1,0,0,1,1-1h4.17c.4,0,.51.11.52.52a5.61,5.61,0,0,0,0,.58c0,.27-.06.36-.34.35C74.83,7,74,7,73.09,7c-.46,0-.5,0-.51.49,0,.61,0,.61.61.61h3.59c.26,0,.33-.07.32-.32,0-.8,0-1.6,0-2.4,0-.58-.26-.84-.84-.84Z"/><path class="cls-1" d="M45.77,2.68c1.11,0,2.23,0,3.34,0a1.55,1.55,0,0,1,1.72,1.73c0,1.68,0,3.36,0,5,0,.29-.09.37-.37.36q-.94,0-1.89,0c-.26,0-.34-.06-.34-.34,0-1.32,0-2.64,0-4,0-.75-.24-1-1-1s-1.62,0-2.43,0c-.24,0-.3.07-.3.31,0,1.53,0,3.07,0,4.6,0,.3-.08.39-.38.38-.64,0-1.28,0-1.92,0-.22,0-.32,0-.32-.3q0-3.25,0-6.53c0-.24.08-.3.31-.29,1.17,0,2.35,0,3.52,0Z"/><path class="cls-2" d="M125.06,5a14.38,14.38,0,0,1,.13-2.77,2.29,2.29,0,0,1,2-2,12.11,12.11,0,0,1,4.07-.1c1.25.2,1.77.83,1.87,2.17,0,.32.14.75,0,.94s-.61.06-.93.07a1.72,1.72,0,0,1-.79,0c-.2-.12-.06-.47-.1-.71-.09-.59-.27-.81-.86-.9a7.1,7.1,0,0,0-2.6.05.87.87,0,0,0-.76.76,7.6,7.6,0,0,0-.13,1.34,22.9,22.9,0,0,0,.14,3.51,1,1,0,0,0,.81.85,6.81,6.81,0,0,0,2.66,0,.89.89,0,0,0,.83-.91c0-.14,0-.29,0-.43,0-.51,0-.51.54-.51H133c.15,0,.21,0,.21.2a8.34,8.34,0,0,1-.2,1.8,1.82,1.82,0,0,1-1.77,1.4,12.48,12.48,0,0,1-4.18-.05,2,2,0,0,1-1.78-1.77A22.56,22.56,0,0,1,125.06,5Z"/><path class="cls-2" d="M134.2,4.94c0-1.51,0-3,0-4.54,0-.26.07-.31.32-.31,2,0,4,0,6,0,.24,0,.32.06.3.3,0,.41.17,1-.08,1.19s-.75.06-1.15.06c-1.09,0-2.18,0-3.27,0-.24,0-.31.07-.3.31q0,1,0,1.92c0,.25.08.3.31.3h3.92c.25,0,.35,0,.32.31s.14.77-.06,1-.64,0-1,.06c-1.07,0-2.13,0-3.2,0-.25,0-.33.07-.32.33,0,.7,0,1.4,0,2.1,0,.29.09.33.35.33h4.17c.25,0,.34,0,.32.31s0,.68,0,1c0,.19-.06.24-.25.24h-6.17c-.24,0-.26-.1-.26-.3Z"/><path class="cls-2" d="M83.68,4.93V.39c0-.22,0-.3.29-.3,1.94,0,3.89,0,5.83,0,.24,0,.32.07.3.3a7.53,7.53,0,0,0,0,1c0,.27-.09.31-.33.3-1.3,0-2.61,0-3.91,0-.3,0-.36.09-.35.37q0,1,0,1.92c0,.26,0,.35.33.34,1.23,0,2.47,0,3.7,0,.25,0,.35,0,.33.31a6.41,6.41,0,0,0,0,1c0,.23-.08.28-.29.28-1.23,0-2.45,0-3.67,0-.34,0-.41.11-.4.43,0,1.09,0,2.18,0,3.26,0,.26-.08.33-.33.32a11.81,11.81,0,0,0-1.19,0c-.25,0-.33-.06-.33-.31C83.69,8,83.68,6.45,83.68,4.93Z"/><path class="cls-1" d="M70.53,2.68c-.41.56-.75,1.07-1.12,1.56a.85.85,0,0,1-.71.29c-.52,0-1,0-1.56,0-.7,0-.93.22-.93.94,0,1.3,0,2.61,0,3.91,0,.36-.1.45-.44.43-.63,0-1.26,0-1.89,0-.2,0-.28-.05-.27-.27,0-1.93,0-3.86,0-5.8a1,1,0,0,1,1-1.05C66.56,2.67,68.5,2.68,70.53,2.68Z"/><path class="cls-1" d="M29.39,4.54c0,1.66,0,3.31,0,5,0,.21,0,.31-.27.3-.68,0-1.36,0-2,0-.24,0-.28-.08-.28-.3V.37c0-.22.07-.28.28-.28q1,0,2,0c.2,0,.26.06.26.27,0,1.36,0,2.73,0,4.09Q29.45,4.5,29.39,4.54Z"/><path class="cls-1" d="M29.39,4.54V4.45a5.82,5.82,0,0,0,.91-1.24,1.11,1.11,0,0,1,1.06-.55c1,0,1.91,0,2.86,0A1.57,1.57,0,0,1,36,4.39c0,1.7,0,3.39,0,5.08,0,.28-.09.35-.35.34q-1,0-1.92,0c-.25,0-.33-.06-.33-.32,0-1.35,0-2.71,0-4.06,0-.64-.26-.9-.91-.9Z"/><path class="cls-2" d="M91.22,4.94c0-1.49,0-3,0-4.47,0-.33.1-.4.41-.38a9,9,0,0,0,1.16,0c.22,0,.28.05.28.28,0,.93,0,1.86,0,2.79q0,3.15,0,6.28c0,.31-.08.4-.38.37a11.22,11.22,0,0,0-1.16,0c-.24,0-.3-.07-.3-.3C91.23,8,91.22,6.46,91.22,4.94Z"/><path class="cls-1" d="M40.26,2.75V8c0,.51,0,1,0,1.53,0,.2-.06.27-.27.27h-2.1c-.17,0-.23-.06-.23-.23,0-1.55,0-3.09,0-4.64a1,1,0,0,1,.45-.83C38.8,3.66,39.5,3.23,40.26,2.75Z"/><path class="cls-1" d="M37.66,3.6c0-1.15,0-2.22,0-3.3,0-.19.09-.21.24-.21H40c.18,0,.26.05.25.24,0,.45,0,.9,0,1.34a.34.34,0,0,1-.15.31Z"/><path class="cls-1" d="M61.91,5c0-1.52,0-3,0-4.57,0-.23,0-.31-.29-.31-.67,0-1.33,0-2,0-.24,0-.33.05-.33.32,0,.65,0,1.3,0,2,0,.26-.09.31-.33.31-1.58,0-3.17,0-4.75,0a1.54,1.54,0,0,0-1.71,1.71v4A1.28,1.28,0,0,0,54,9.8h7.58c.27,0,.35-.07.34-.34C61.9,8,61.91,6.47,61.91,5ZM59,8H55.66c-.39,0-.54-.15-.54-.55,0-.7,0-1.4,0-2.11s.28-.82.86-.83,1.06,0,1.59,0a1,1,0,0,0,1-.56c.21-.39.45-.78.68-1.17l.07,0c0,1.64,0,3.29,0,4.93C59.31,8,59.23,8,59,8Z"/><path class="cls-2" d="M113.78,9.5c-.35-1-.67-1.94-1-2.91-.7-2.07-1.4-4.13-2.09-6.21a.35.35,0,0,0-.4-.29c-.72,0-1.45,0-2.18,0-.21,0-.32.05-.38.27-.1.37-.24.74-.36,1.1-.89,2.68-1.77,5.36-2.67,8-.09.28,0,.33.24.32h1.37a.26.26,0,0,0,.31-.22c.13-.47.3-.92.43-1.38a.32.32,0,0,1,.38-.27h2.87c.34,0,.75-.1,1,0s.26.62.38.95c.3.87.29.87,1.21.87.22,0,.44,0,.65,0S113.87,9.76,113.78,9.5ZM107.6,6.56l1.64-5,1.67,5Z"/></g></g></svg>