<svg xmlns="http://www.w3.org/2000/svg" viewBox="0 0 15.2 18.26"><defs><style>.cls-1{fill:#8b8b8b;}.cls-2{fill:#e32f44;}.cls-3{fill:none;stroke:#fff;stroke-miterlimit:10;}</style></defs><title>minimum documentation0</title><g id="Layer_2" data-name="Layer 2"><g id="minimum_documentation" data-name="minimum documentation"><path class="cls-1" d="M14.21,2.33h-.52v12.9a1.56,1.56,0,0,1-1.56,1.56H2.58v.48a1,1,0,0,0,1,1H14.21a1,1,0,0,0,1-1V3.33A1,1,0,0,0,14.21,2.33Z"/><path class="cls-2" d="M12.13.5H5V.82a.37.37,0,0,1,0,.11V3.61A1.39,1.39,0,0,1,3.65,5H.5V15.24a1,1,0,0,0,1,1H12.13a1,1,0,0,0,1-1V1.48A1,1,0,0,0,12.13.5ZM7,12.89H3.55a.46.46,0,1,1,0-.92H7a.46.46,0,1,1,0,.92Zm3.47-2.36H3.55a.46.46,0,1,1,0-.92h6.93a.46.46,0,1,1,0,.92Zm0-2.51H3.55a.47.47,0,1,1,0-.93h6.93a.47.47,0,1,1,0,.93Z"/><path class="cls-3" d="M12.13.5H5V.82a.37.37,0,0,1,0,.11V3.61A1.39,1.39,0,0,1,3.65,5H.5V15.24a1,1,0,0,0,1,1H12.13a1,1,0,0,0,1-1V1.48A1,1,0,0,0,12.13.5ZM7,12.89H3.55a.46.46,0,1,1,0-.92H7a.46.46,0,1,1,0,.92Zm3.47-2.36H3.55a.46.46,0,1,1,0-.92h6.93a.46.46,0,1,1,0,.92Zm0-2.51H3.55a.47.47,0,1,1,0-.93h6.93a.47.47,0,1,1,0,.93Z"/><path class="cls-1" d="M12.13.5H5V.82a.37.37,0,0,1,0,.11V3.61A1.39,1.39,0,0,1,3.65,5H.5V15.24a1,1,0,0,0,1,1H12.13a1,1,0,0,0,1-1V1.48A1,1,0,0,0,12.13.5ZM7,12.89H3.55a.46.46,0,1,1,0-.92H7a.46.46,0,1,1,0,.92Zm3.47-2.36H3.55a.46.46,0,1,1,0-.92h6.93a.46.46,0,1,1,0,.92Zm0-2.51H3.55a.47.47,0,1,1,0-.93h6.93a.47.47,0,1,1,0,.93Z"/><path class="cls-2" d="M7.49,12.43a.47.47,0,0,1-.48.46H3.55a.46.46,0,1,1,0-.92H7A.47.47,0,0,1,7.49,12.43Z"/><path class="cls-2" d="M7.49,12.43a.47.47,0,0,1-.48.46H3.55a.46.46,0,1,1,0-.92H7A.47.47,0,0,1,7.49,12.43Z"/><path class="cls-2" d="M11,10.07a.46.46,0,0,1-.47.46H3.55a.46.46,0,1,1,0-.92h6.93A.46.46,0,0,1,11,10.07Z"/><path class="cls-2" d="M11,10.07a.46.46,0,0,1-.47.46H3.55a.46.46,0,1,1,0-.92h6.93A.46.46,0,0,1,11,10.07Z"/><path class="cls-2" d="M11,7.56a.47.47,0,0,1-.47.46H3.55a.47.47,0,1,1,0-.93h6.93A.47.47,0,0,1,11,7.56Z"/><path class="cls-2" d="M11,7.56a.47.47,0,0,1-.47.46H3.55a.47.47,0,1,1,0-.93h6.93A.47.47,0,0,1,11,7.56Z"/><path class="cls-1" d="M.93,4.29H3.66a.83.83,0,0,0,.82-.83h0V.74A.41.41,0,0,0,4.06.32a.39.39,0,0,0-.29.12L.64,3.57A.42.42,0,0,0,.93,4.29Z"/></g></g></svg>