<svg xmlns="http://www.w3.org/2000/svg" viewBox="0 0 16.92 17.85"><defs><style>.cls-1{fill:#dddcdc;}</style></defs><title>net banking light0</title><g id="Layer_2" data-name="Layer 2"><g id="net_banking_light" data-name="net banking light"><path class="cls-1" d="M8.46,5.28h-7a1.32,1.32,0,0,1-.34,0,.45.45,0,0,1-.33-.41c0-.4,0-.79,0-1.19A.42.42,0,0,1,1,3.25l1.62-.72L6.11,1,8.37,0a.51.51,0,0,1,.42,0l3.7,1.66,3.34,1.5a.53.53,0,0,1,.35.53c0,.33,0,.66,0,1a.52.52,0,0,1-.55.55c-1.94,0-3.89,0-5.83,0Z"/><path class="cls-1" d="M8.46,16.43h8.2c.19,0,.26.06.26.25v.92c0,.19-.07.25-.25.25H.24c-.17,0-.24-.06-.24-.23v-.94c0-.19.07-.25.26-.25h8.2Z"/><path class="cls-1" d="M8.46,15.59H.92a.17.17,0,0,1-.18-.18V14.36c0-.14.07-.19.23-.19H15.91c.22,0,.27,0,.27.27v.9c0,.2-.05.25-.25.25H8.46Z"/><path class="cls-1" d="M7.62,9.72V6.5c0-.28.11-.39.4-.39h.9a.33.33,0,0,1,.38.38V13c0,.26-.12.38-.39.38H8c-.25,0-.37-.12-.37-.38Z"/><path class="cls-1" d="M2.44,9.71V6.49a.35.35,0,0,1,.38-.39h.92c.26,0,.38.11.38.37V13a.33.33,0,0,1-.38.38h-1A.31.31,0,0,1,2.44,13Z"/><path class="cls-1" d="M14.47,9.72v3.22c0,.28-.11.39-.39.39h-.86c-.32,0-.42-.1-.42-.42V8c0-.5,0-1,0-1.48,0-.27.11-.38.38-.38h.93a.32.32,0,0,1,.36.36Z"/></g></g></svg>