<svg xmlns="http://www.w3.org/2000/svg" viewBox="0 0 20 20"><defs><style>.cls-1{fill:#dddcdc;}</style></defs><title>no sim0</title><g id="Layer_2" data-name="Layer 2"><g id="no_sim" data-name="no sim"><path class="cls-1" d="M8.87,6.3a.45.45,0,0,0,.5.1.48.48,0,0,1,.18,0h.9a.46.46,0,0,1,.46.46V8.15a.46.46,0,0,0,.13.32l.39.39a.23.23,0,0,0,.39-.16V6.82a.46.46,0,0,1,.45-.46h.91a2.27,2.27,0,0,1,2.27,2.28v.91A.45.45,0,0,1,15,10H13.12a.23.23,0,0,0-.16.39l.39.39a.46.46,0,0,0,.32.13H15a.45.45,0,0,1,.45.45V12.7a.45.45,0,0,0,.14.32l.91.91a.46.46,0,0,0,.32.13A.33.33,0,0,0,17,14a.45.45,0,0,0,.28-.42V5a.46.46,0,0,0-.13-.32L12.59.13A.46.46,0,0,0,12.27,0H4.55a1.87,1.87,0,0,0-.92.25.47.47,0,0,0-.22.34A.45.45,0,0,0,3.54,1Z"/><path class="cls-1" d="M19.87,18.58,1.42.13a.47.47,0,0,0-.64,0L.13.78a.47.47,0,0,0,0,.64L2.73,4V18.18A1.82,1.82,0,0,0,4.55,20h10.9a1.82,1.82,0,0,0,1.79-1.48l1.34,1.35a.47.47,0,0,0,.64,0l.65-.65A.47.47,0,0,0,19.87,18.58ZM4.55,8.64a2.27,2.27,0,0,1,1-1.85h0L8.18,9.47h0v.08a.45.45,0,0,1-.45.45H5a.45.45,0,0,1-.45-.45Zm3.63,9.09a.45.45,0,0,1-.45.45H6.82a2.27,2.27,0,0,1-2.27-2.27V15A.45.45,0,0,1,5,14.55H7.73a.45.45,0,0,1,.45.45Zm2.73,0a.45.45,0,0,1-.46.45h-.9a.45.45,0,0,1-.46-.45V15a.45.45,0,0,1,.46-.45h.9a.45.45,0,0,1,.46.45Zm2.27.45h-.91a.45.45,0,0,1-.45-.45V14.09a.46.46,0,0,0-.46-.45H5a.46.46,0,0,1-.45-.46V11.36A.45.45,0,0,1,5,10.91H9.62l5.71,5.71A2.27,2.27,0,0,1,13.18,18.18Z"/></g></g></svg>