<svg xmlns="http://www.w3.org/2000/svg" viewBox="0 0 17.99 18"><defs><style>.cls-1{fill:#898989;}</style></defs><title>no0</title><g id="Layer_2" data-name="Layer 2"><g id="no"><path class="cls-1" d="M1.51,17.74,9,10.24l7.5,7.51a.87.87,0,0,0,.62.25h0a.87.87,0,0,0,.84-.89.83.83,0,0,0-.26-.61L10.24,9l7.49-7.48A.91.91,0,0,0,18,.89a.92.92,0,0,0-.26-.64.89.89,0,0,0-1.24,0L9,7.76,1.5.25A.88.88,0,0,0,.88,0,.94.94,0,0,0,.24.27a.89.89,0,0,0,0,1.23L7.74,9,.26,16.5a.9.9,0,0,0,0,1.26A.93.93,0,0,0,1.51,17.74Z"/></g></g></svg>