<svg xmlns="http://www.w3.org/2000/svg" viewBox="0 0 15.77 15.77"><defs><style>.cls-1{fill:#8b8b8b;}</style></defs><title>offline0</title><g id="Layer_2" data-name="Layer 2"><g id="offline"><path class="cls-1" d="M5.74,9.5l0-2.5a.19.19,0,0,0-.31-.13l-.74.74a.31.31,0,0,1-.26.09.57.57,0,0,1-.25-.09l-.5-.51a.52.52,0,0,1-.12-.26.39.39,0,0,1,.09-.24L6.47,3.71a.37.37,0,0,1,.26-.09A.57.57,0,0,1,7,3.71.32.32,0,0,1,7.06,4L7.13,7.9l1.5-1.73,0-2.26A.41.41,0,0,1,9,3.54l.72,0a.41.41,0,0,1,.37.35v.65l2.55-2.94A7.88,7.88,0,0,0,2.31,13.46Z"/><path class="cls-1" d="M13.19,2.06,10.07,5.65l0,3.08a.19.19,0,0,0,.31.13l.74-.73A.31.31,0,0,1,11.4,8a.48.48,0,0,1,.24.09l.51.5a.69.69,0,0,1,.12.26l-.16.28L9.27,12.05a.32.32,0,0,1-.26.09.57.57,0,0,1-.25-.09.39.39,0,0,1-.09-.26l0-4.49L7.15,9l0,2.81a.42.42,0,0,1-.36.37l-.72,0a.43.43,0,0,1-.37-.36V10.63L2.86,14A7.88,7.88,0,0,0,13.19,2.06Z"/><rect class="cls-1" x="7.59" y="-1.29" width="0.65" height="19.18" transform="translate(7.38 -3.16) rotate(40.96)"/></g></g></svg>