<svg xmlns="http://www.w3.org/2000/svg" viewBox="0 0 26.93 34.33"><defs><style>.cls-1{fill:#fff;}.cls-2{fill:#dddcdc;}</style></defs><title>OTP Verification0</title><g id="Layer_2" data-name="Layer 2"><g id="OTP_Verification" data-name="OTP Verification"><circle class="cls-1" cx="17.64" cy="16" r="2"/><circle class="cls-1" cx="22.64" cy="16" r="2"/><circle class="cls-1" cx="9.64" cy="32" r="2"/><rect class="cls-1" x="0.64" y="1" width="18.34" height="29"/><path class="cls-2" d="M18.33,23.24V30H1.61V3.68H18.33V9.34H20v-7A2.33,2.33,0,0,0,17.63,0H2.32A2.32,2.32,0,0,0,0,2.32V32a2.32,2.32,0,0,0,2.32,2.32H17.63A2.33,2.33,0,0,0,20,32V23.24ZM7.53,1.67h4.89A.28.28,0,0,1,12.7,2a.27.27,0,0,1-.28.28H7.53A.28.28,0,0,1,7.24,2,.29.29,0,0,1,7.53,1.67ZM10,33.17A1.16,1.16,0,1,1,11.13,32,1.15,1.15,0,0,1,10,33.17Z"/><path class="cls-2" d="M25.32,10.06H10.39a1.62,1.62,0,0,0-1.61,1.61V21a1.62,1.62,0,0,0,1.61,1.61h1.44v2a.51.51,0,0,0,.51.52.5.5,0,0,0,.36-.16L15,22.56H25.32A1.62,1.62,0,0,0,26.93,21V11.67A1.62,1.62,0,0,0,25.32,10.06Zm-11.4,7.49a1.25,1.25,0,1,1,1.25-1.25A1.26,1.26,0,0,1,13.92,17.55Zm4.36,0a1.25,1.25,0,1,1,1.25-1.25A1.26,1.26,0,0,1,18.28,17.55Zm4.38,0a1.25,1.25,0,1,1,1.25-1.25A1.25,1.25,0,0,1,22.66,17.55Z"/></g></g></svg>