<svg xmlns="http://www.w3.org/2000/svg" viewBox="0 0 66.88 66.88"><defs><style>.cls-1{fill:#fcfcfc;}.cls-2{fill:#f6f6f6;}.cls-3{fill:#eee;}.cls-4{fill:#e8e8e8;}.cls-5{fill:#77b652;}</style></defs><title>OTP Tick0</title><g id="Layer_2" data-name="Layer 2"><g id="OTP_Tick" data-name="OTP Tick"><circle class="cls-1" cx="33.44" cy="33.44" r="33.44"/><circle class="cls-2" cx="33.44" cy="33.44" r="28.36"/><circle class="cls-3" cx="33.44" cy="33.44" r="22.96"/><circle class="cls-4" cx="33.44" cy="33.44" r="17.26"/><path class="cls-5" d="M33.88,21.25a12,12,0,1,0,12,12,12,12,0,0,0-12-12Zm0,22.42A10.43,10.43,0,1,1,44.31,33.25,10.43,10.43,0,0,1,33.88,43.67Z"/><path class="cls-5" d="M38.23,29.32,32,35.51,29.54,33a.78.78,0,0,0-1.11,1.11l3.05,3.06a.8.8,0,0,0,1.12,0h0l6.74-6.74a.78.78,0,0,0-1.11-1.11Z"/></g></g></svg>