<svg xmlns="http://www.w3.org/2000/svg" viewBox="0 0 99.77 99.77"><defs><style>.cls-1{fill:#fcfcfc;}.cls-2{fill:#f6f6f6;}.cls-3{fill:#eee;}.cls-4{fill:#e8e8e8;}.cls-5{fill:#fff;}.cls-6{fill:#dddcdc;}</style></defs><title>OTP Verification main0</title><g id="Layer_2" data-name="Layer 2"><g id="OTP_Verification_main" data-name="OTP Verification main"><circle class="cls-1" cx="49.88" cy="49.88" r="49.88"/><circle class="cls-2" cx="49.88" cy="49.88" r="42.3"/><circle class="cls-3" cx="49.88" cy="49.88" r="34.25"/><circle class="cls-4" cx="49.88" cy="49.88" r="25.75"/><circle class="cls-5" cx="56.88" cy="48.96" r="2"/><circle class="cls-5" cx="61.88" cy="48.96" r="2"/><circle class="cls-5" cx="48.88" cy="64.96" r="2"/><rect class="cls-5" x="39.88" y="33.96" width="18.34" height="29"/><path class="cls-6" d="M57.57,56.2V63H40.86V36.64H57.57v5.67h1.62v-7A2.33,2.33,0,0,0,56.87,33H41.56a2.33,2.33,0,0,0-2.32,2.32V65a2.33,2.33,0,0,0,2.32,2.32H56.87A2.33,2.33,0,0,0,59.19,65V56.2ZM46.77,34.64h4.89a.28.28,0,0,1,.29.28.29.29,0,0,1-.29.28H46.77a.28.28,0,0,1-.28-.28A.27.27,0,0,1,46.77,34.64Zm2.45,31.5A1.16,1.16,0,1,1,50.37,65,1.15,1.15,0,0,1,49.22,66.14Z"/><path class="cls-6" d="M64.57,43H49.64A1.62,1.62,0,0,0,48,44.63v9.28a1.62,1.62,0,0,0,1.62,1.61h1.43v2a.51.51,0,0,0,.52.51.55.55,0,0,0,.36-.15l2.32-2.36h10.3a1.62,1.62,0,0,0,1.61-1.61V44.63A1.62,1.62,0,0,0,64.57,43ZM53.16,50.51a1.25,1.25,0,1,1,1.25-1.25A1.26,1.26,0,0,1,53.16,50.51Zm4.37,0a1.25,1.25,0,1,1,1.24-1.25A1.26,1.26,0,0,1,57.53,50.51Zm4.37,0a1.24,1.24,0,0,1-1.24-1.25,1.25,1.25,0,1,1,1.24,1.25Z"/></g></g></svg>