<svg xmlns="http://www.w3.org/2000/svg" viewBox="0 0 18.55 12.37"><defs><style>.cls-1{fill:#8b8b8b;}</style></defs><title>password view0</title><g id="Layer_2" data-name="Layer 2"><g id="password_view" data-name="password view"><path class="cls-1" d="M7,6.18a2.32,2.32,0,0,0,4.64,0v0a1.33,1.33,0,0,1-1,.41A1.35,1.35,0,0,1,10,4a2.19,2.19,0,0,0-.77-.14A2.32,2.32,0,0,0,7,6.18ZM18,4.87C16.59,3,13.09,0,9.28,0S2,3,.51,4.87A2.25,2.25,0,0,0,0,6.18,2.28,2.28,0,0,0,.51,7.5C2,9.33,5.45,12.37,9.27,12.37s7.32-3,8.76-4.87a2.23,2.23,0,0,0,.52-1.32A2.2,2.2,0,0,0,18,4.87ZM9.27,10.05a3.87,3.87,0,1,1,3.87-3.87A3.86,3.86,0,0,1,9.27,10.05Z"/></g></g></svg>