<?xml version="1.0" encoding="utf-8"?>
<!-- Generator: Adobe Illustrator 22.0.1, SVG Export Plug-In . SVG Version: 6.00 Build 0)  -->
<svg version="1.1" id="Layer_1" xmlns="http://www.w3.org/2000/svg" xmlns:xlink="http://www.w3.org/1999/xlink" x="0px" y="0px"
	 viewBox="0 0 27.7 20" style="enable-background:new 0 0 27.7 20;" xml:space="preserve">
<style type="text/css">
	.st0{fill:#E51837;}
</style>
<title>payonline (2)0</title>
<g id="Layer_2_1_">
	<g id="payonline">
		<path class="st0" d="M13.5,16l2.1,0.9c0.5-0.7,1.4-1,2.2-1l3.6-10.4c-1.6-1-1-2.2-1-2.2L16.8,2c0,1.2-2.1,0.8-2.1,0.8L12.4,10
			c0,0-0.6,0.4,1.4,0.4c0,0,2.6-0.9,2.6,1.4c0,0,0.3,1.9-1.3,2.1c0,0-2.5,0-3.3,1c-0.5,0.7-0.8,1.5-0.9,2.4c0,0-0.5,0.6-2.1,0.4
			c-2.2,0.1-4.4,0.9-6.2,2.3L0,14c0,0,3.8-1.5,4.6-2.7l5.7-6.4c0.4-0.3,1-0.4,1.5-0.3h1l1.5-4.4C14.4,0,14.5,0,14.6,0c0,0,0,0,0,0
			l8.8,3c0.1,0,0.2,0.1,0.1,0.2L18,19.6c0,0.1-0.1,0.2-0.2,0.1l-5.3-1.8C12.5,17.9,12.5,16.2,13.5,16z"/>
		<path class="st0" d="M17,4.5l2.7,1c-0.1,0.1-0.3,0.2-0.4,0.3l-0.7-0.3c0,0.2,0,0.3,0,0.5l0.8,0.3l-0.4,0.3l-0.5-0.2
			C18,7.1,17.3,7.3,16.6,7c0,0,0,0.1,0,0.2c0.2,0.7,0.5,1.5,0.7,2.2c0,0.1,0,0.1,0,0.2l-0.3-0.1c-0.1,0-0.2-0.1-0.3-0.1
			c-0.1-0.1-0.1-0.2-0.1-0.3c-0.2-0.6-0.4-1.2-0.6-1.9c0-0.1-0.1-0.2-0.1-0.3c0-0.1,0.1-0.3,0.1-0.4c0.7,0.4,1.4,0.5,1.8-0.2
			c-0.5-0.2-1.1-0.4-1.6-0.6c0.1-0.1,0.3-0.2,0.4-0.3l1.3,0.5c0-0.3-0.3-0.6-0.6-0.7c-0.3-0.1-0.5-0.2-0.8-0.3
			C16.7,4.7,16.8,4.6,17,4.5z"/>
		<path class="st0" d="M27.3,6.3l-3.5-2.9l-0.3,1l1.8,1.5L25.2,6c-0.8,0.8-0.8,2.1,0,2.9L20,14.8l-1,2.8l8.3-9.5
			C28.2,7.3,27.3,6.3,27.3,6.3z"/>
	</g>
</g>
</svg>
