<svg xmlns="http://www.w3.org/2000/svg" viewBox="0 0 18.63 18.63"><defs><style>.cls-1{fill:#77b652;}</style></defs><title>Photo tick0</title><g id="Layer_2" data-name="Layer 2"><g id="Photo_tick" data-name="Photo tick"><path class="cls-1" d="M0,9.31a9.32,9.32,0,1,1,9.3,9.32A9.34,9.34,0,0,1,0,9.31Zm7.78,1.41-.1-.11L5.81,8.37a.75.75,0,0,0-1-.09.78.78,0,0,0-.12,1.1c.35.38.69.78,1,1.17l1.63,1.89a.57.57,0,0,0,.29.19.76.76,0,0,0,.75-.24c1-1,1.92-1.94,2.87-2.92.72-.73,1.44-1.45,2.15-2.18a.76.76,0,0,0,.16-.85.77.77,0,0,0-1.28-.2L7.9,10.58A.81.81,0,0,0,7.78,10.72Z"/></g></g></svg>