<?xml version="1.0" encoding="utf-8"?>
<!-- Generator: Adobe Illustrator 22.0.1, SVG Export Plug-In . SVG Version: 6.00 Build 0)  -->
<svg version="1.1" id="Layer_1" xmlns="http://www.w3.org/2000/svg" xmlns:xlink="http://www.w3.org/1999/xlink" x="0px" y="0px"
	 viewBox="0 0 16.8 20" style="enable-background:new 0 0 16.8 20;" xml:space="preserve">
<style type="text/css">
	.st0{fill:#FFFFFF;}
	.st1{fill:#E51837;}
</style>
<title>pre approved loan0</title>
<circle class="st0" cx="12.7" cy="16.2" r="3.2"/>
<path class="st1" d="M8.6,16.1c0-0.7,0.2-1.4,0.5-2.1H2.6c-0.3-0.1-0.4-0.4-0.4-0.6c0-0.2,0.2-0.3,0.4-0.4h7.3
	c0.8-0.8,1.9-1.2,3-1.2c0.7,0,1.4,0.2,2,0.5V0.9C14.9,0.4,14.5,0,14,0c0,0,0,0,0,0H0.9C0.4,0,0,0.4,0,0.9c0,0,0,0,0,0V19
	c0,0.5,0.4,0.9,0.8,0.9c0,0,0,0,0,0h9.9C9.4,19.1,8.5,17.7,8.6,16.1z M9,3h3.4c0.3-0.1,0.6,0.1,0.6,0.4C13.1,3.6,13,3.9,12.7,4
	c-0.1,0-0.2,0-0.3,0H9C8.7,4.1,8.4,3.9,8.4,3.6C8.3,3.4,8.4,3.1,8.7,3C8.8,3,8.9,3,9,3z M9,5.4h3.4C12.7,5.3,13,5.5,13,5.8
	c0.1,0.3-0.1,0.5-0.4,0.6c-0.1,0-0.1,0-0.2,0H9C8.7,6.5,8.5,6.3,8.4,6C8.3,5.7,8.5,5.5,8.8,5.4C8.9,5.4,8.9,5.4,9,5.4z M9,7.8h3.4
	c0.3-0.1,0.6,0.1,0.6,0.4c0.1,0.3-0.1,0.6-0.4,0.6c-0.1,0-0.2,0-0.3,0H9C8.7,8.9,8.4,8.7,8.4,8.5C8.3,8.2,8.4,7.9,8.7,7.8
	C8.8,7.8,8.9,7.8,9,7.8z M2.2,3.5C2.2,3.2,2.5,3,2.7,3h3.4c0.3,0,0.5,0.2,0.5,0.5c0,0,0,0,0,0v5C6.7,8.8,6.4,9,6.2,9c0,0,0,0,0,0
	H2.7C2.5,9,2.2,8.8,2.2,8.5c0,0,0,0,0,0V3.5z M2.6,10.5h9.6c0.3,0.1,0.5,0.3,0.4,0.6c0,0.2-0.2,0.4-0.4,0.4H2.6
	C2.3,11.5,2,11.3,2,11.1c-0.1-0.3,0.1-0.5,0.4-0.6C2.4,10.4,2.5,10.4,2.6,10.5z M5.2,16l-1.7,1.8c-0.1,0.1-0.2,0.1-0.3,0.1
	c-0.1,0-0.2,0-0.3-0.1L2.2,17c-0.1-0.1-0.1-0.4,0-0.5c0,0,0,0,0,0c0.1-0.1,0.4-0.1,0.5,0l0.5,0.5l1.5-1.5c0.1-0.1,0.4-0.1,0.5,0
	C5.3,15.6,5.4,15.8,5.2,16C5.2,16,5.2,16,5.2,16z"/>
<path class="st1" d="M12.8,12.1c-2.2,0-3.9,1.8-3.9,3.9s1.8,3.9,3.9,3.9s3.9-1.8,3.9-3.9l0,0C16.8,13.9,15,12.1,12.8,12.1z
	 M11.4,17.8c0,0.1-0.1,0.1-0.1,0.1h-0.5c-0.1,0-0.1-0.1-0.1-0.1v-2.4c0-0.1,0.1-0.1,0.1-0.1l0,0h0.5c0.1,0,0.1,0.1,0.1,0.1l0,0
	L11.4,17.8z M14.8,16c0.1,0.2,0.1,0.5-0.1,0.6c0.1,0.2,0.1,0.5-0.1,0.6c0.1,0.2,0,0.5-0.2,0.6c-0.1,0-0.1,0.1-0.2,0.1h-2.5v-2.4
	c0,0,0.7-0.6,1-0.9c0.1-0.1,0.2-0.3,0.3-0.5c0-0.1,0-0.1,0.1-0.2c0-0.1,0.1-0.1,0.1-0.1c0.1,0,0.2,0,0.4,0c0.3,0.2,0.4,0.6,0.3,0.9
	l-0.1,0.4h1.1c0.3,0,0.4,0.3,0.4,0.5C15.1,15.8,15,15.9,14.8,16z"/>
</svg>
