<svg xmlns="http://www.w3.org/2000/svg" viewBox="0 0 16.76 20"><defs><style>.cls-1{fill:#e32f44;}.cls-2{fill:#8b8b8b;}</style></defs><title>pre approved loan0</title><g id="Layer_2" data-name="Layer 2"><g id="pre_approved_loan" data-name="pre approved loan"><circle class="cls-1" cx="12.74" cy="16.18" r="3.24"/><path class="cls-2" d="M8.55,16.07A4.27,4.27,0,0,1,9.07,14H2.56a.52.52,0,0,1,0-1h7.3a4.24,4.24,0,0,1,3-1.2,4.31,4.31,0,0,1,2,.53V.85A.85.85,0,0,0,14,0H.85A.85.85,0,0,0,0,.85V19a.85.85,0,0,0,.85.86h9.94A4.26,4.26,0,0,1,8.55,16.07ZM9,3h3.41a.52.52,0,1,1,0,1H9A.52.52,0,1,1,9,3Zm0,2.4h3.41a.51.51,0,1,1,0,1H9a.51.51,0,1,1,0-1ZM9,7.82h3.41a.52.52,0,1,1,0,1H9a.52.52,0,1,1,0-1ZM2.22,3.46A.51.51,0,0,1,2.74,3H6.15a.51.51,0,0,1,.52.51v5a.51.51,0,0,1-.52.51H2.74a.51.51,0,0,1-.52-.51Zm.34,7h9.58a.51.51,0,0,1,0,1H2.56a.51.51,0,1,1,0-1ZM5.19,16,3.45,17.76a.38.38,0,0,1-.26.11.39.39,0,0,1-.27-.11L2.2,17a.37.37,0,0,1,0-.53.37.37,0,0,1,.52,0l.47.47,1.48-1.49a.37.37,0,0,1,.52,0A.37.37,0,0,1,5.19,16Z"/><path class="cls-2" d="M12.83,12.14a3.93,3.93,0,1,0,3.93,3.93A3.93,3.93,0,0,0,12.83,12.14Zm-1.42,5.67a.13.13,0,0,1-.13.13h-.52a.13.13,0,0,1-.13-.13V15.45a.13.13,0,0,1,.13-.13h.52a.13.13,0,0,1,.13.13ZM14.83,16a.45.45,0,0,1-.15.6.45.45,0,0,1-.15.6.45.45,0,0,1-.39.67h-2.5v-2.4s.73-.65,1-.88a.89.89,0,0,0,.25-.49.8.8,0,0,1,.05-.21.24.24,0,0,1,.15-.11.53.53,0,0,1,.35,0,.77.77,0,0,1,.26.91l-.15.43h1.15A.46.46,0,0,1,14.83,16Z"/></g></g></svg>