<?xml version="1.0" encoding="UTF-8"?>
<svg width="24px" height="20px" viewBox="0 0 24 20" version="1.1" xmlns="http://www.w3.org/2000/svg" xmlns:xlink="http://www.w3.org/1999/xlink">
    <!-- Generator: sketchtool 51.2 (57519) - http://www.bohemiancoding.com/sketch -->
    <title>DA2F8F19-1935-4495-8DC7-CD093D28A78F</title>
    <desc>Created with sketchtool.</desc>
    <defs></defs>
    <g id="Master" stroke="none" stroke-width="1" fill="none" fill-rule="evenodd">
        <g id="LoginPIN" transform="translate(-64.000000, -581.000000)" fill="#000000" fill-rule="nonzero">
            <path d="M85.9473829,586.227444 L66.0575671,586.227444 C64.9244142,586.227444 64,587.162352 64,588.308369 L64,598.919075 C64,600.070118 64.9244142,601 66.0575671,601 L85.9424129,601 C87.0805358,601 87.9999801,600.065092 87.9999801,598.919075 L87.9999801,588.308369 C88.00495,587.162352 87.0805358,586.227444 85.9473829,586.227444 Z M64.9939938,588.328474 C65.0039337,587.725308 65.4810507,587.237748 66.077447,587.232722 L68.6220711,587.232722 L68.6220711,587.755466 C68.6220711,589.419201 67.3000594,590.801458 65.6549997,590.801458 L64.9939938,590.801458 L64.9939938,588.328474 Z M68.6220711,599.537321 L68.6220711,599.999749 L66.077447,599.999749 C65.4909907,599.999749 64.9939938,599.537321 64.9939938,598.944207 L64.9939938,596.531541 L65.6549997,596.531541 C67.2950894,596.531541 68.6220711,597.873586 68.6220711,599.527268 C68.6220711,599.532295 68.6220711,599.537321 68.6220711,599.537321 Z M87.0606559,598.944207 C87.0606559,599.537321 86.563659,599.999749 85.9772027,599.999749 L83.4325646,599.999749 L83.4325786,599.542347 C83.4276086,597.883639 84.7496204,596.536567 86.3897101,596.531541 C86.3946801,596.531541 86.3996501,596.531541 86.3996501,596.531541 L87.0606559,596.531541 L87.0606559,598.944207 Z M87.0606559,595.526263 L86.3996501,595.526263 C84.2128637,595.526263 82.4385848,597.320684 82.4385848,599.532295 C82.4385848,599.537321 82.4385848,599.537321 82.4385848,599.542347 L82.4385848,599.999749 L69.6160649,599.999749 L69.6160649,599.542347 C69.6210349,597.330736 67.8517259,595.531289 65.6649396,595.526263 C65.6599696,595.526263 65.6599696,595.526263 65.6549997,595.526263 L64.9939938,595.526263 L64.9939938,591.806735 L65.6549997,591.806735 C67.846756,591.806735 69.6160649,589.97713 69.6160649,587.755466 L69.6160649,587.232722 L82.4385848,587.232722 L82.4385848,587.730334 C82.4385848,589.946972 84.2078937,591.756471 86.3996501,591.756471 L87.0606559,591.756471 L87.0606559,595.526263 Z M87.0606559,590.751194 L86.3996501,590.751194 C84.7545903,590.746167 83.4276086,589.399095 83.4325786,587.735361 L83.4325786,587.730334 L83.4325647,587.232722 L85.9772027,587.232722 C86.573599,587.242775 87.055686,587.725308 87.0606559,588.328474 L87.0606559,590.751194 Z M76.0273249,588.04197 C79.0788858,588.046997 81.5539303,590.550138 81.5589003,593.636341 C81.5589003,596.72757 79.0838558,599.230711 76.0273249,599.230711 C72.970794,599.230711 70.4957494,596.72757 70.4957494,593.636341 C70.4957494,590.545112 72.970794,588.04197 76.0273249,588.04197 Z M76.0273249,598.225434 C78.5321892,598.220407 80.5599365,596.169641 80.5649065,593.636341 C80.5649065,591.103041 78.5321892,589.047248 76.0273249,589.047248 C73.5224605,589.047248 71.4897432,591.103041 71.4897432,593.636341 C71.4897432,596.169641 73.5224605,598.225434 76.0273249,598.225434 Z M77.7966338,591.907263 C78.0699821,591.907263 78.2936307,592.133451 78.2936307,592.409902 C78.2936307,592.686353 78.0699821,592.912541 77.7966338,592.912541 L77.2201174,592.912541 C77.0163487,593.746921 76.320553,594.360141 75.4806283,594.455642 L77.125688,596.028902 C77.3244868,596.219904 77.3344267,596.536567 77.1455679,596.737623 C76.956709,596.938678 76.643601,596.948731 76.4448022,596.757728 L73.9051481,594.329982 C73.8057487,594.234481 73.7510791,594.103795 73.7510791,593.963056 C73.7510791,593.686605 73.9747277,593.465444 74.248076,593.465444 L75.2619496,593.465444 C75.5402679,593.465444 75.7987063,593.349837 75.9925351,593.153807 C76.0621146,593.083438 76.1217543,593.003016 76.161514,592.912541 L74.248076,592.912541 C73.9747277,592.912541 73.7510791,592.686353 73.7510791,592.409902 C73.7510791,592.133451 73.9747277,591.907263 74.248076,591.907263 L76.161514,591.907263 C75.9676852,591.590601 75.6297273,591.399598 75.2619496,591.404624 L74.248076,591.404624 C73.9747277,591.404624 73.7510791,591.178437 73.7510791,590.901985 C73.7510791,590.625534 73.9747277,590.399347 74.248076,590.399347 L77.8016038,590.399347 C78.0749521,590.399347 78.2986007,590.625534 78.2986007,590.901985 C78.2986007,591.178437 78.079922,591.404624 77.7966338,591.404624 L77.0014388,591.404624 C77.1008381,591.555416 77.1753877,591.726313 77.2201174,591.907263 L77.7966338,591.907263 Z M84.9335092,583.613722 C85.2068575,583.613722 85.4305061,583.83991 85.4305061,584.116361 C85.4305061,584.392812 85.2068575,584.619 84.9335092,584.619 L67.1211405,584.619 C66.8477922,584.619 66.6241436,584.392812 66.6241436,584.116361 C66.6241436,583.83991 66.8477922,583.613722 67.1211405,583.613722 L84.9335092,583.613722 Z M82.3292455,581 C82.6025938,581 82.8262424,581.226187 82.8262424,581.502639 C82.8262424,581.77909 82.6025938,582.005278 82.3292455,582.005278 L69.7254042,582.005278 C69.4520559,582.005278 69.2284073,581.77909 69.2284073,581.502639 C69.2284073,581.226187 69.4520559,581 69.7254042,581 L82.3292455,581 Z" id="QickPay"></path>
        </g>
    </g>
</svg>