<svg xmlns="http://www.w3.org/2000/svg" viewBox="0 0 17.76 35"><defs><style>.cls-1{fill:#dddcdc;}</style></defs><title>regi sync faiiled main0</title><g id="Layer_2" data-name="Layer 2"><g id="regi_sync_faiiled_main" data-name="regi sync faiiled main"><path class="cls-1" d="M11.06,1.49H6.7a.25.25,0,1,0,0,.5h4.36a.25.25,0,0,0,0-.5Z"/><path class="cls-1" d="M15.69,0H2.06A2.07,2.07,0,0,0,0,2.06V28.51a2.07,2.07,0,0,0,2.06,2.06H4.48a10.72,10.72,0,0,1-1.83-3.82H1.44V3.28H16.32v20.5a2.41,2.41,0,0,1,.89,1.69h0V29.2a4,4,0,0,1-.08.78,2,2,0,0,0,.63-1.47V2.06A2.07,2.07,0,0,0,15.69,0ZM11.06,2H6.7a.25.25,0,1,1,0-.5h4.36a.25.25,0,0,1,0,.5Z"/><rect class="cls-1" x="2.73" y="8.91" width="3.5" height="3.5" rx="0.11" ry="0.11"/><rect class="cls-1" x="7.13" y="8.91" width="3.5" height="3.5" rx="0.11" ry="0.11"/><rect class="cls-1" x="11.53" y="8.91" width="3.5" height="3.5" rx="0.11" ry="0.11"/><rect class="cls-1" x="2.73" y="13.26" width="3.5" height="3.5" rx="0.11" ry="0.11"/><path class="cls-1" d="M10.63,16.65V13.38a.11.11,0,0,0-.11-.12H7.24a.11.11,0,0,0-.11.12v3.27a.11.11,0,0,0,.11.11h.28a2.17,2.17,0,0,1,1.07-.29,2,2,0,0,1,1,.29h.89A.11.11,0,0,0,10.63,16.65Z"/><rect class="cls-1" x="11.53" y="13.26" width="3.5" height="3.5" rx="0.11" ry="0.11"/><rect class="cls-1" x="2.73" y="17.61" width="3.5" height="3.5" rx="0.11" ry="0.11"/><path class="cls-1" d="M10.52,17.61h-.16a1.8,1.8,0,0,1,.13.52v.13c0,.22.08.59.13,1V17.72A.11.11,0,0,0,10.52,17.61Z"/><rect class="cls-1" x="11.53" y="17.61" width="3.5" height="3.5" rx="0.11" ry="0.11"/><path class="cls-1" d="M15.07,23.82a8,8,0,0,1-.86-.26A10.07,10.07,0,0,0,13,23.22c-.16,0-.49-.14-.82-.24A11.44,11.44,0,0,0,11,22.64a2.08,2.08,0,0,0-.86,0C10,21.42,9.7,18.49,9.64,18h0a1.18,1.18,0,0,0-1.23-1,1.36,1.36,0,0,0-1,.38,1.16,1.16,0,0,0-.34.83v8.48a1.92,1.92,0,0,1-1.23-.82l-.06-.08-.2-.28a1.44,1.44,0,0,0-1.18-.66,1.26,1.26,0,0,0-1,.46,1.34,1.34,0,0,0-.29,1.14,12.7,12.7,0,0,0,3.42,5.62v2.11a.82.82,0,0,0,.82.82h6.92a.82.82,0,0,0,.82-.82V32l.73-1.23A3.37,3.37,0,0,0,16.36,29V25.32a1.78,1.78,0,0,0-1.29-1.5Z"/></g></g></svg>