<svg xmlns="http://www.w3.org/2000/svg" viewBox="0 0 14.37 14.37"><defs><style>.cls-1{fill:#dddcdc;}</style></defs><title>rupees light0</title><g id="Layer_2" data-name="Layer 2"><g id="rupees_light" data-name="rupees light"><path class="cls-1" d="M7.18,0a7.19,7.19,0,1,0,7.19,7.18A7.19,7.19,0,0,0,7.18,0ZM8,4.12a2.56,2.56,0,0,1,.4,1H10A.43.43,0,1,1,10,6H8.44a3,3,0,0,1-.28.83A2.69,2.69,0,0,1,5.9,8.24H5.39l0,0,1,.9,1.12,1,.92.86.39.36a.42.42,0,0,1-.3.72.47.47,0,0,1-.3-.12h0l-.52-.49-1.06-1L5.45,9.45l-.89-.82-.2-.19a.45.45,0,0,1-.14-.33,2.81,2.81,0,0,1,0-.29.43.43,0,0,1,.42-.43h.88a4.34,4.34,0,0,0,.51,0,2.39,2.39,0,0,0,.46-.12A2.67,2.67,0,0,0,6.92,7c.11-.1.22-.21.32-.32a3.7,3.7,0,0,0,.25-.43A2.76,2.76,0,0,0,7.57,6H4.37a.43.43,0,0,1,0-.85h3.2a2.76,2.76,0,0,0-.08-.27,2.55,2.55,0,0,0-.25-.43,2.42,2.42,0,0,0-.32-.32,2.67,2.67,0,0,0-.43-.25A1.83,1.83,0,0,0,6,3.75a1.67,1.67,0,0,0-.32,0H4.37a.45.45,0,0,1-.3-.12l0,0L4,3.49a.58.58,0,0,1,0-.18.43.43,0,0,1,.42-.43H10a.44.44,0,0,1,.43.43.42.42,0,0,1-.43.42h0c-.22,0-.45,0-.68,0H7.74A2.88,2.88,0,0,1,8,4.12Z"/></g></g></svg>