<svg xmlns="http://www.w3.org/2000/svg" viewBox="0 0 20.13 20.13"><defs><style>.cls-1{fill:#fffdfd;}.cls-2{fill:#dcdbdb;}</style></defs><title>select amount light0</title><g id="Layer_2" data-name="Layer 2"><g id="select_amount_light" data-name="select amount light"><circle class="cls-1" cx="9.91" cy="9.28" r="7"/><path class="cls-2" d="M10.07,0A10.07,10.07,0,1,0,20.13,10.06,10.07,10.07,0,0,0,10.07,0Zm.84,6.18a2.61,2.61,0,0,1,.39,1h1.53a.43.43,0,0,1,.42.42.42.42,0,0,1-.42.41H11.3a2.66,2.66,0,0,1-2.5,2.22H8.31l0,0,.95.88c.37.35.74.68,1.1,1l.91.85.38.35a.41.41,0,0,1,.13.29.45.45,0,0,1-.12.29.41.41,0,0,1-.6,0h0l-.52-.48c-.34-.33-.69-.65-1-1L8.36,11.42l-.87-.81-.2-.18a.45.45,0,0,1-.14-.33V9.81a.42.42,0,0,1,.42-.41h.86a4.35,4.35,0,0,0,.51,0,1.69,1.69,0,0,0,.44-.12A2.18,2.18,0,0,0,9.8,9a3.14,3.14,0,0,0,.32-.31,2,2,0,0,0,.24-.43A1.07,1.07,0,0,0,10.45,8H7.3a.42.42,0,0,1,0-.83h3.15a1.43,1.43,0,0,0-.09-.27,1.76,1.76,0,0,0-.24-.42,3.22,3.22,0,0,0-.32-.32,2.86,2.86,0,0,0-.42-.24,3.17,3.17,0,0,0-.44-.12H7.3A.38.38,0,0,1,7,5.67l0,0a.41.41,0,0,1-.05-.09.39.39,0,0,1,0-.18A.41.41,0,0,1,7.3,5h5.53a.43.43,0,0,1,.42.42.42.42,0,0,1-.42.42H10.61A2.18,2.18,0,0,1,10.91,6.18Z"/></g></g></svg>