<svg xmlns="http://www.w3.org/2000/svg" viewBox="0 0 20.13 20.13"><defs><style>.cls-1{fill:#8b8b8b;}.cls-2{fill:#e32f44;}</style></defs><title>select amount dark0</title><g id="Layer_2" data-name="Layer 2"><g id="select_amount_dark" data-name="select amount dark"><path class="cls-1" d="M20.13,10.06A10.07,10.07,0,1,1,10.07,0,10.07,10.07,0,0,1,20.13,10.06Z"/><path class="cls-2" d="M13.25,8.15a.42.42,0,0,1-.42.41H11.3a2.66,2.66,0,0,1-2.5,2.22H8.31a0,0,0,0,0,0,0l.95.89,1.1,1,.91.85.38.35a.43.43,0,0,1,.13.3.45.45,0,0,1-.12.29.44.44,0,0,1-.6,0h0L10.56,14l-1-1c-.38-.37-.77-.72-1.16-1.08l-.87-.81L7.29,11a.42.42,0,0,1-.14-.32v-.29a.42.42,0,0,1,.42-.42h.86a4.34,4.34,0,0,0,.51,0,1.69,1.69,0,0,0,.44-.12,2.22,2.22,0,0,0,.42-.25,2.34,2.34,0,0,0,.32-.31,1.76,1.76,0,0,0,.24-.42,1.43,1.43,0,0,0,.09-.27H7.3a.42.42,0,0,1,0-.83h0c.22,0,.45,0,.67,0h2.47a1.43,1.43,0,0,0-.09-.27A1.76,1.76,0,0,0,10.12,7a2.42,2.42,0,0,0-.32-.32,2.18,2.18,0,0,0-.42-.24,1.69,1.69,0,0,0-.44-.12l-.32,0H7.3A.37.37,0,0,1,7,6.22l0,0a.22.22,0,0,1-.05-.08.41.41,0,0,1,0-.19.41.41,0,0,1,.41-.41h5.53a.43.43,0,0,1,.42.41.42.42,0,0,1-.42.42H10.61a2.63,2.63,0,0,1,.69,1.39h1.53A.43.43,0,0,1,13.25,8.15Z"/></g></g></svg>