<svg xmlns="http://www.w3.org/2000/svg" viewBox="0 0 16 16"><defs><style>.cls-1{fill:#8b8b8b;}</style></defs><title>set face id0</title><g id="Layer_2" data-name="Layer 2"><g id="set_face_id" data-name="set face id"><polygon class="cls-1" points="5.33 0 0 0 0 5.33 1.33 5.33 1.33 1.33 5.33 1.33 5.33 0"/><polygon class="cls-1" points="16 5.33 16 0 10.67 0 10.67 1.33 14.67 1.33 14.67 5.33 16 5.33"/><polygon class="cls-1" points="10.67 16 16 16 16 10.67 14.67 10.67 14.67 14.67 10.67 14.67 10.67 16"/><polygon class="cls-1" points="0 10.67 0 16 5.33 16 5.33 14.67 1.33 14.67 1.33 10.67 0 10.67"/><path class="cls-1" d="M8,2.67A2.15,2.15,0,0,0,5.81,5.25L6.17,7.4A1.93,1.93,0,0,0,8,9,1.93,1.93,0,0,0,9.83,7.4l.36-2.15A2.15,2.15,0,0,0,8,2.67Z"/><path class="cls-1" d="M12.49,9.94,10,9.11A2.86,2.86,0,0,1,8,10a2.9,2.9,0,0,1-2-.84l-2.5.83a1.33,1.33,0,0,0-.84,1.17v2.22H13.33V11.11A1.33,1.33,0,0,0,12.49,9.94Z"/></g></g></svg>