<svg xmlns="http://www.w3.org/2000/svg" viewBox="0 0 14.91 21.55"><defs><style>.cls-1{fill:#dddcdc;}</style></defs><title>single sim0</title><g id="Layer_2" data-name="Layer 2"><g id="single_sim" data-name="single sim"><path class="cls-1" d="M14.91,12.62v8.12c0,.67-.13.8-.81.8H4.82c-.55,0-1.1,0-1.65,0s-.64-.19-.64-.66V2.56a.6.6,0,0,1,.69-.69h9a.66.66,0,0,1,.41.15c.71.63,1.41,1.26,2.1,1.91a.63.63,0,0,1,.13.41c0,2.76,0,5.51,0,8.27Zm-1.95,2h0c0-1,0-2.05,0-3.08a1.94,1.94,0,0,0-.11-.72,1.54,1.54,0,0,0-1.5-1c-1.85,0-3.7,0-5.55,0A1.66,1.66,0,0,0,4,11.61c0,2.07,0,4.13,0,6.2a1.62,1.62,0,0,0,1.64,1.65h5.65A1.58,1.58,0,0,0,13,17.83C13,16.77,13,15.71,13,14.65Z"/><path class="cls-1" d="M12.57,14.49c-.91,0-1.81,0-2.7,0-.26,0-.39.06-.35.33v.13c0,.69,0,.7-.71.69-.35,0-.7,0-1,0s-.29-.06-.28-.28c0-.45,0-.91,0-1.37,0-.23.08-.31.31-.3H9.4a.93.93,0,0,0,1-1q0-1.08,0-2.16c0-.26.08-.35.33-.33a6.38,6.38,0,0,1,1.08.12,1,1,0,0,1,.77,1c0,1,0,2,0,3.05A.85.85,0,0,1,12.57,14.49Z"/><path class="cls-1" d="M12.62,16.51c0,.44,0,.89,0,1.34a1.22,1.22,0,0,1-1.23,1.27c-.21,0-.43,0-.64,0s-.32-.09-.32-.32c0-.68,0-1.36,0-2a1.12,1.12,0,0,0-.47-1,1.23,1.23,0,0,1-.09-.86.29.29,0,0,1,.19-.06h2.31c.19,0,.25.08.25.26C12.62,15.55,12.62,16,12.62,16.51Z"/><path class="cls-1" d="M7.15,14.88a4,4,0,0,1,0,.6.52.52,0,0,1-.19.27.91.91,0,0,0-.44.82c0,.75,0,1.5,0,2.26,0,.22-.06.32-.29.29A7.24,7.24,0,0,1,5,18.93,1,1,0,0,1,4.4,18c0-1,0-2,0-2.92,0-.15,0-.27.2-.27H7.05S7.1,14.86,7.15,14.88Z"/><path class="cls-1" d="M4.38,12.77c0-.46,0-.92,0-1.38a1.18,1.18,0,0,1,1-1.18,6.21,6.21,0,0,1,1,0c.2,0,.17.16.18.29,0,.72,0,1.44,0,2.16a1,1,0,0,0,.46.93.94.94,0,0,1,.13.86.31.31,0,0,1-.22.07c-.75,0-1.5,0-2.25,0-.22,0-.26-.08-.26-.27,0-.49,0-1,0-1.46Z"/><path class="cls-1" d="M6.85,10.18c.45,0,.86,0,1.28,0,.06,0,.16.12.16.18,0,.92,0,1.83,0,2.75,0,.07-.13.19-.22.2a3.74,3.74,0,0,1-.67,0,.53.53,0,0,1-.55-.56C6.84,11.92,6.85,11.08,6.85,10.18Z"/><path class="cls-1" d="M8.3,17.55c0,.43,0,.85,0,1.28,0,.2,0,.3-.26.29a7.53,7.53,0,0,0-.95,0c-.18,0-.25-.05-.25-.24,0-.76,0-1.53,0-2.29,0-.43.21-.62.64-.64.81,0,.81,0,.81.77Z"/><path class="cls-1" d="M10.07,10.18c0,.93,0,1.81,0,2.69,0,.27-.19.41-.45.46H9.53c-.89,0-.89,0-.89-.85,0-.69,0-1.38,0-2.07,0-.08.07-.22.11-.23Z"/><path class="cls-1" d="M8.64,17.53c0-.43,0-.85,0-1.28,0-.22.08-.3.31-.3,1.1,0,1.14,0,1.14,1.15v1.74c0,.2,0,.3-.27.28a8.22,8.22,0,0,0-.86,0c-.23,0-.33-.06-.32-.31C8.65,18.39,8.64,18,8.64,17.53Z"/><path class="cls-1" d="M1.71,2c0-.47.22-.68.7-.68q4.49,0,9,0C11,.91,10.56.53,10.14.16A.66.66,0,0,0,9.73,0H.7C.22,0,0,.22,0,.69V19c0,.47.16.65.64.66H1.71Z"/></g></g></svg>