<svg xmlns="http://www.w3.org/2000/svg" viewBox="0 0 12.38 19.67"><defs><style>.cls-1{fill:#8b8b8b;}</style></defs><title>single sim dark0</title><g id="Layer_2" data-name="Layer 2"><g id="single_sim_dark" data-name="single sim dark"><path class="cls-1" d="M12.38,10.75v8.12c0,.67-.13.8-.81.8H.64C.16,19.66,0,19.48,0,19V.69C0,.22.22,0,.7,0h9a.66.66,0,0,1,.41.15c.71.62,1.41,1.26,2.1,1.91a.63.63,0,0,1,.13.41q0,4.13,0,8.27Zm-2,2h0c0-1,0-2.06,0-3.08A1.94,1.94,0,0,0,10.32,9a1.53,1.53,0,0,0-1.5-1C7,8,5.12,8,3.27,8A1.66,1.66,0,0,0,1.5,9.74c0,2.07,0,4.13,0,6.2a1.62,1.62,0,0,0,1.64,1.65H8.79A1.58,1.58,0,0,0,10.43,16C10.44,14.9,10.43,13.84,10.43,12.78Z"/><path class="cls-1" d="M10,12.62c-.91,0-1.81,0-2.7,0-.26,0-.39.05-.35.33v.12c0,.7,0,.7-.71.7h-1C5,13.77,5,13.7,5,13.48c0-.46,0-.91,0-1.37,0-.23.07-.31.3-.3H6.87a.93.93,0,0,0,1-1q0-1.08,0-2.16c0-.26.08-.35.33-.33a7.6,7.6,0,0,1,1.08.11,1,1,0,0,1,.77,1c0,1,0,2,0,3.06A1.17,1.17,0,0,1,10,12.62Z"/><path class="cls-1" d="M10.09,14.64c0,.44,0,.89,0,1.34a1.21,1.21,0,0,1-1.23,1.27c-.21,0-.43,0-.64,0s-.32-.09-.32-.32c0-.68,0-1.36,0-2a1.12,1.12,0,0,0-.47-1A1.2,1.2,0,0,1,7.35,13a.25.25,0,0,1,.19-.07H9.85c.19,0,.25.09.25.26C10.09,13.68,10.1,14.16,10.09,14.64Z"/><path class="cls-1" d="M4.63,13a3.88,3.88,0,0,1,0,.59.51.51,0,0,1-.19.28A.91.91,0,0,0,4,14.7c0,.75,0,1.5,0,2.26,0,.22-.06.32-.29.29a7.24,7.24,0,0,1-1.25-.19,1,1,0,0,1-.59-.92c0-1,0-2,0-2.93,0-.14,0-.26.2-.26H4.52S4.57,13,4.63,13Z"/><path class="cls-1" d="M1.85,10.89c0-.45,0-.91,0-1.37a1.18,1.18,0,0,1,1-1.18,6.25,6.25,0,0,1,1,0c.2,0,.18.16.18.28C4,9.32,4,10,4,10.76a.93.93,0,0,0,.46.92,1,1,0,0,1,.13.87.3.3,0,0,1-.21.07c-.76,0-1.51,0-2.26,0-.22,0-.26-.08-.26-.27,0-.49,0-1,0-1.47Z"/><path class="cls-1" d="M4.32,8.31H5.6a.26.26,0,0,1,.16.19c0,.92,0,1.83,0,2.75,0,.07-.13.19-.22.2a3.62,3.62,0,0,1-.66,0,.54.54,0,0,1-.56-.57C4.31,10.05,4.32,9.21,4.32,8.31Z"/><path class="cls-1" d="M5.77,15.68V17c0,.2,0,.3-.26.29a7.53,7.53,0,0,0-1,0c-.18,0-.25-.05-.25-.24,0-.77,0-1.53,0-2.29,0-.43.21-.62.64-.64.81,0,.81,0,.81.77Z"/><path class="cls-1" d="M7.54,8.31c0,.93,0,1.81,0,2.69,0,.27-.19.41-.44.46H7c-.89,0-.89,0-.89-.84,0-.69,0-1.38,0-2.07,0-.08.07-.23.11-.23Z"/><path class="cls-1" d="M6.11,15.66c0-.43,0-.85,0-1.28,0-.22.08-.3.31-.3,1.1,0,1.14,0,1.14,1.15V17c0,.2,0,.3-.27.28a8.22,8.22,0,0,0-.86,0c-.23,0-.33-.07-.32-.31C6.12,16.51,6.11,16.09,6.11,15.66Z"/></g></g></svg>