<svg xmlns="http://www.w3.org/2000/svg" viewBox="0 0 19.69 23.69"><defs><style>.cls-1{fill:#8b8b8b;}.cls-2{fill:#e32f44;}.cls-3{fill:none;stroke:#fff;stroke-miterlimit:10;}</style></defs><title>splash_view0</title><g id="Layer_2" data-name="Layer 2"><g id="splash_view"><path class="cls-1" d="M18.39,2.9h-.68V19.74a2,2,0,0,1-2,2H3.21v.62a1.3,1.3,0,0,0,1.3,1.3H18.39a1.3,1.3,0,0,0,1.3-1.3V4.19A1.3,1.3,0,0,0,18.39,2.9Z"/><path class="cls-2" d="M8.73,21h7A1.28,1.28,0,0,0,17,19.75v-18A1.28,1.28,0,0,0,15.68.5H6.43V4.56a1.8,1.8,0,0,1-1.82,1.8H.5V19.75A1.28,1.28,0,0,0,1.79,21H8.73ZM9,16.68H4.47a.6.6,0,1,1,0-1.2H9a.6.6,0,0,1,.61.6A.61.61,0,0,1,9,16.68Zm4.53-3.08H4.47a.61.61,0,1,1,0-1.21h9.06a.61.61,0,1,1,0,1.21ZM4.47,9.11h9.06a.62.62,0,0,1,.61.61.61.61,0,0,1-.61.6H4.47a.6.6,0,0,1-.61-.6A.61.61,0,0,1,4.47,9.11Z"/><path class="cls-3" d="M8.73,21h7A1.28,1.28,0,0,0,17,19.75v-18A1.28,1.28,0,0,0,15.68.5H6.43V4.56a1.8,1.8,0,0,1-1.82,1.8H.5V19.75A1.28,1.28,0,0,0,1.79,21H8.73ZM9,16.68H4.47a.6.6,0,1,1,0-1.2H9a.6.6,0,0,1,.61.6A.61.61,0,0,1,9,16.68Zm4.53-3.08H4.47a.61.61,0,1,1,0-1.21h9.06a.61.61,0,1,1,0,1.21ZM4.47,9.11h9.06a.62.62,0,0,1,.61.61.61.61,0,0,1-.61.6H4.47a.6.6,0,0,1-.61-.6A.61.61,0,0,1,4.47,9.11Z"/><path class="cls-1" d="M8.73,21h7A1.28,1.28,0,0,0,17,19.75v-18A1.28,1.28,0,0,0,15.68.5H6.43V4.56a1.8,1.8,0,0,1-1.82,1.8H.5V19.75A1.28,1.28,0,0,0,1.79,21H8.73ZM9,16.68H4.47a.6.6,0,1,1,0-1.2H9a.6.6,0,0,1,.61.6A.61.61,0,0,1,9,16.68Zm4.53-3.08H4.47a.61.61,0,1,1,0-1.21h9.06a.61.61,0,1,1,0,1.21ZM4.47,9.11h9.06a.62.62,0,0,1,.61.61.61.61,0,0,1-.61.6H4.47a.6.6,0,0,1-.61-.6A.61.61,0,0,1,4.47,9.11Z"/><path class="cls-1" d="M1.06,5.45H4.62A1.1,1.1,0,0,0,5.7,4.37h0V.81A.55.55,0,0,0,5.15.26a.5.5,0,0,0-.38.17L.68,4.52A.54.54,0,0,0,1.06,5.45Z"/></g></g></svg>