<svg xmlns="http://www.w3.org/2000/svg" viewBox="0 0 17.77 26.71"><defs><style>.cls-1,.cls-2{fill:#8b8b8b;}.cls-2{stroke:#fff;stroke-miterlimit:10;}</style></defs><title>splash_pay0</title><g id="Layer_2" data-name="Layer 2"><g id="splash_pay"><path class="cls-1" d="M2.74,12.11V5.42a2.54,2.54,0,0,1,1.83-2.5,2.87,2.87,0,0,1,.77-.11c2,0,3.93,0,5.89,0a2.57,2.57,0,0,1,2.61,2.65c0,1.51,0,3,0,4.52a.51.51,0,0,0,.18.42l2.64,2.69c.2.2.4.41.62.61a1.53,1.53,0,0,1,.48,1,5.09,5.09,0,0,1-.06,1c0,.23-.16.45-.22.69-.09.44-.17.88-.24,1.33s-.13.79-.18,1.19-.13,1-.2,1.47l-.18,1.52q-.11.78-.18,1.56,0,.3-.06.6a.19.19,0,0,0,.08.16.7.7,0,0,1,.3.59c0,.38,0,.76,0,1.14a.67.67,0,0,1-.72.72H11.3a.69.69,0,0,1-.7-.4.93.93,0,0,1-.07-.33v-1.1a.71.71,0,0,1,.34-.63A.22.22,0,0,0,11,24.1a2.28,2.28,0,0,0,0-.37.33.33,0,0,0-.07-.18,7.21,7.21,0,0,1-1.28-2,.24.24,0,0,0-.26-.14h-4a2.59,2.59,0,0,1-1.8-.68A2.39,2.39,0,0,1,2.76,19c0-.78,0-1.55,0-2.32,0-1.3,0-2.6,0-3.9Zm1.23,0H4c0,.91,0,1.82,0,2.74,0,1.34,0,2.68,0,4A1.33,1.33,0,0,0,4.66,20a1.31,1.31,0,0,0,.75.16H8.9c.14,0,.18-.06.11-.18a.39.39,0,0,0-.08-.1L6.51,17.64a14.32,14.32,0,0,1-1-1,1.87,1.87,0,0,1-.53-1.35.7.7,0,0,1,.58-.74,1.71,1.71,0,0,1,.84.08,5.75,5.75,0,0,1,1.64,1c.24.18.45.39.69.55a10.81,10.81,0,0,0,1.91,1,3.14,3.14,0,0,0,1.45.29.54.54,0,0,0,.55-.59c0-2.95,0-5.89,0-8.84,0-.86,0-1.72,0-2.58a1.33,1.33,0,0,0-.75-1.22,1.3,1.3,0,0,0-.7-.12h-6a.83.83,0,0,0-.38.1A1.31,1.31,0,0,0,4,5.42C4,7.65,4,9.89,4,12.12Z"/><path class="cls-1" d="M0,3.56A3.72,3.72,0,0,1,2.39.24,4.42,4.42,0,0,1,3.58,0a.53.53,0,0,1,.53.24A.49.49,0,0,1,3.68,1a2.53,2.53,0,0,0-1.39.4A2.69,2.69,0,0,0,1,3.65a.49.49,0,1,1-1,.07Z"/><path class="cls-1" d="M3.57,1.61a.56.56,0,0,1,.54.23.48.48,0,0,1-.4.74,1.08,1.08,0,0,0-1,.7,1.22,1.22,0,0,0-.09.42.54.54,0,0,1-.38.48A.43.43,0,0,1,1.69,4a.67.67,0,0,1-.08-.37A2.09,2.09,0,0,1,3.09,1.71,4.1,4.1,0,0,1,3.57,1.61Z"/><path class="cls-2" d="M8.3,4.55A.38.38,0,0,1,8.7,5a.41.41,0,0,1-.41.42A.43.43,0,0,1,7.88,5,.41.41,0,0,1,8.3,4.55Z"/><path class="cls-1" d="M9.91,9.81H9.14a1.39,1.39,0,0,0-.2-.51.9.9,0,0,0-.15-.19H9.91a.21.21,0,0,0,.21-.21.21.21,0,0,0-.21-.21H7.11a.21.21,0,0,0-.21.21.29.29,0,0,0,0,.09L7,9v0a.2.2,0,0,0,.15.06h.83a1,1,0,0,1,.23.06l.21.12a1.21,1.21,0,0,1,.16.16,1.13,1.13,0,0,1,.12.21,1.21,1.21,0,0,1,.05.14H7.11A.22.22,0,0,0,6.9,10a.21.21,0,0,0,.21.21h1.6l-.05.14a.88.88,0,0,1-.12.21,1.21,1.21,0,0,1-.16.16l-.21.13a2,2,0,0,1-.23.06H7.25a.22.22,0,0,0-.22.22v.14a.27.27,0,0,0,.08.17l.1.09.44.41.59.55.52.49.27.24H9a.2.2,0,0,0,.15.06.22.22,0,0,0,.15-.06.2.2,0,0,0,.06-.15A.18.18,0,0,0,9.33,13l-.19-.18-.47-.43-.55-.52-.49-.45h.24A1.39,1.39,0,0,0,9,10.65a1.48,1.48,0,0,0,.14-.42h.77a.21.21,0,0,0,.21-.21A.21.21,0,0,0,9.91,9.81Z"/></g></g></svg>