<svg xmlns="http://www.w3.org/2000/svg" viewBox="0 0 24 24"><defs><style>.cls-1{fill:#77b652;}</style></defs><title>successfull tick0</title><g id="Layer_2" data-name="Layer 2"><g id="successfull_tick" data-name="successfull tick"><path class="cls-1" d="M12,0A12,12,0,1,0,24,12,12,12,0,0,0,12,0Zm0,22.43A10.43,10.43,0,1,1,22.43,12,10.44,10.44,0,0,1,12,22.43Z"/><path class="cls-1" d="M16.34,8.07l-6.18,6.19-2.5-2.5a.79.79,0,0,0-1.12,0,.78.78,0,0,0,0,1.11L9.6,15.93a.8.8,0,0,0,.56.23.78.78,0,0,0,.55-.23h0l6.75-6.75a.79.79,0,0,0-1.12-1.11Z"/></g></g></svg>