<svg xmlns="http://www.w3.org/2000/svg" viewBox="0 0 13.11 16"><defs><style>.cls-1{fill:#8b8b8b;}</style></defs><title>terms of use0</title><g id="Layer_2" data-name="Layer 2"><g id="terms_of_use" data-name="terms of use"><path class="cls-1" d="M12.22,1.8h-.46V13.3a1.39,1.39,0,0,1-1.39,1.39H1.85v.43a.89.89,0,0,0,.89.88h9.48a.89.89,0,0,0,.89-.88V2.68A.89.89,0,0,0,12.22,1.8Z"/><path class="cls-1" d="M5.63,14.19h4.74a.87.87,0,0,0,.88-.88V1a.87.87,0,0,0-.88-.88H4.05V2.94A1.24,1.24,0,0,1,2.81,4.17H0v9.15a.88.88,0,0,0,.88.88H5.63Zm.17-3H2.71a.42.42,0,1,1,0-.83h3.1a.41.41,0,0,1,.41.41A.42.42,0,0,1,5.8,11.22ZM8.9,9.11H2.71a.41.41,0,0,1-.42-.41.42.42,0,0,1,.42-.42H8.9a.42.42,0,0,1,.42.42A.41.41,0,0,1,8.9,9.11ZM2.71,6.05H8.9a.41.41,0,1,1,0,.82H2.71a.41.41,0,1,1,0-.82Z"/><path class="cls-1" d="M5.63,14.19h4.74a.87.87,0,0,0,.88-.88V1a.87.87,0,0,0-.88-.88H4.05V2.94A1.24,1.24,0,0,1,2.81,4.17H0v9.15a.88.88,0,0,0,.88.88H5.63Zm.17-3H2.71a.42.42,0,1,1,0-.83h3.1a.41.41,0,0,1,.41.41A.42.42,0,0,1,5.8,11.22ZM8.9,9.11H2.71a.41.41,0,0,1-.42-.41.42.42,0,0,1,.42-.42H8.9a.42.42,0,0,1,.42.42A.41.41,0,0,1,8.9,9.11ZM2.71,6.05H8.9a.41.41,0,1,1,0,.82H2.71a.41.41,0,1,1,0-.82Z"/><path class="cls-1" d="M.38,3.54H2.81a.74.74,0,0,0,.74-.74h0V.37A.37.37,0,0,0,3.18,0a.36.36,0,0,0-.27.11L.12,2.9A.38.38,0,0,0,.38,3.54Z"/></g></g></svg>