<svg xmlns="http://www.w3.org/2000/svg" viewBox="0 0 23 16.34"><defs><style>.cls-1{fill:#dddcdc;}</style></defs><title>tractor_light0</title><g id="Layer_2" data-name="Layer 2"><g id="tractor_light"><path class="cls-1" d="M4.89,9.56a1.89,1.89,0,1,0,1.89,1.88A1.88,1.88,0,0,0,4.89,9.56Z"/><path class="cls-1" d="M4.89,6.55a4.9,4.9,0,1,0,4.9,4.89A4.9,4.9,0,0,0,4.89,6.55Zm0,7.65a2.76,2.76,0,1,1,2.76-2.76A2.76,2.76,0,0,1,4.89,14.2Z"/><path class="cls-1" d="M19.52,9.37A3.49,3.49,0,1,0,23,12.85,3.48,3.48,0,0,0,19.52,9.37Zm0,5.12a1.64,1.64,0,1,1,1.64-1.64A1.63,1.63,0,0,1,19.52,14.49Z"/><path class="cls-1" d="M16.69,9.7A8.6,8.6,0,0,0,13.2,8.08V7.64A8.93,8.93,0,0,1,17,9.41a4.24,4.24,0,0,1,2.48-.8,4.2,4.2,0,0,1,1.42.25c-.05-1.09-.18-2.24-.55-2.38a24.72,24.72,0,0,0-6-1.23V1.78c0-.49.24-.6.27-.62A.42.42,0,0,0,15,.63a.42.42,0,0,0-.53-.3,1.4,1.4,0,0,0-.91,1.45v3.4h-.39l-1-4.38a.42.42,0,0,0-.34-.33A28.37,28.37,0,0,0,2.85.31a.42.42,0,0,0-.34.51A.43.43,0,0,0,3,1.16l.16,0-.69,4v0H2.34c-.82,0-1,.53-1,.53L.85,6.94l.42.21A5.58,5.58,0,0,1,4.89,5.82a5.63,5.63,0,0,1,5.63,5.62A5.78,5.78,0,0,1,10.29,13h5v-.17A4.2,4.2,0,0,1,16.69,9.7Zm1.66-3a.22.22,0,0,1,.29.12l.35.9a.22.22,0,0,1-.12.28l-.08,0a.23.23,0,0,1-.21-.14l-.35-.9A.22.22,0,0,1,18.35,6.65Zm-1,0a.21.21,0,0,1,.28.12l.35.9a.21.21,0,0,1-.12.28l-.08,0a.2.2,0,0,1-.2-.14l-.36-.9A.21.21,0,0,1,17.33,6.65ZM7.12,5.37a3.75,3.75,0,0,0-1-.22H3.37L4,1.41H7.12Zm5.21,3.35H10.75A5.68,5.68,0,0,0,8,5.73V1.41h3.38l1,4.14V8.72Z"/></g></g></svg>