<svg xmlns="http://www.w3.org/2000/svg" viewBox="0 0 24 24"><defs><style>.cls-1{fill:#dddcdc;}</style></defs><title>user card0</title><g id="Layer_2" data-name="Layer 2"><g id="user_card" data-name="user card"><g id="icons"><path id="user2" class="cls-1" d="M12,0A12,12,0,1,0,24,12,12,12,0,0,0,12,0Zm0,4c2.2,0,4,2.2,4,5s-1.8,5-4,5S8,11.8,8,9,9.8,4,12,4Zm6.6,15.5A10.16,10.16,0,0,1,12,22a10.16,10.16,0,0,1-6.6-2.5,1,1,0,0,1-.1-1.4,9,9,0,0,1,4.2-2.7,5.51,5.51,0,0,0,5,0,8.52,8.52,0,0,1,4.2,2.7A.9.9,0,0,1,18.6,19.5Z"/></g></g></g></svg>