<svg xmlns="http://www.w3.org/2000/svg" viewBox="0 0 15.38 14.37"><defs><style>.cls-1{fill:#8b8b8b;}</style></defs><title>vehicle registration0</title><g id="Layer_2" data-name="Layer 2"><g id="vehicle_registration" data-name="vehicle registration"><path class="cls-1" d="M11.94,5.43l1.85,1.85L9.11,12,7.27,10.1ZM15.19,5l-.82-.82a.82.82,0,0,0-1.16,0L12.42,5,14.27,6.8l.92-.92a.63.63,0,0,0,0-.9ZM6.3,12.7a.21.21,0,0,0,.26.25l2.05-.5L6.77,10.6Z"/><path class="cls-1" d="M9.48,12.05l-.64.64-2.61.63A.26.26,0,0,1,5.91,13l.32-1.44H1.73V10.7H6.42l.08-.36.63-.63.19-.19H1.73V8.65H8.19L9.25,7.59H1.73V6.72H9.58v.55L11.3,5.54v-4A1.53,1.53,0,0,0,9.77,0H1.53A1.54,1.54,0,0,0,0,1.53v11.3a1.54,1.54,0,0,0,1.53,1.54H9.77a1.54,1.54,0,0,0,1.53-1.54v-2.6ZM1.73,2.85H9.58v.87H1.73Zm0,1.93H9.58v.88H1.73Z"/></g></g></svg>