<svg xmlns="http://www.w3.org/2000/svg" viewBox="0 0 20.42 19.72"><defs><style>.cls-1{fill:#898989;}</style></defs><title>wallet dark0</title><g id="Layer_2" data-name="Layer 2"><g id="wallet_dark" data-name="wallet dark"><path class="cls-1" d="M9.76,6.67h8.37a1.36,1.36,0,0,1,1.32.94,1.39,1.39,0,0,1,.06.4v3c0,.1,0,.13-.13.12H13.69a1.4,1.4,0,0,0-1.45,1.37c0,.54,0,1.07,0,1.6a1.43,1.43,0,0,0,1.1,1.33,1.93,1.93,0,0,0,.42,0h5.61c.15,0,.15,0,.15.15v2.66a1.36,1.36,0,0,1-1,1.34,1.4,1.4,0,0,1-.41,0H1.42a1.37,1.37,0,0,1-1.36-1A1.21,1.21,0,0,1,0,18.36V8A1.31,1.31,0,0,1,.76,6.81a1.38,1.38,0,0,1,.63-.14H9.76Z"/><path class="cls-1" d="M1.42,6.17,2,5.92l5-2.26,5.34-2.42L14.76.12A1.33,1.33,0,0,1,16.53.8C17.26,2.42,18,4,18.73,5.65l.39.86s0,0,0,.06l-.07,0a2.41,2.41,0,0,0-1-.36S18,6.14,18,6.09c-.18-.37-.35-.76-.52-1.13-.55-1.22-1.11-2.44-1.65-3.66A.54.54,0,0,0,15,1c-1.35.63-2.7,1.24-4.06,1.85L6.69,4.75,3.61,6.15a.59.59,0,0,1-.23,0H1.43Z"/><path class="cls-1" d="M16.79,14.64h-3a.55.55,0,0,1-.6-.6V12.63a.54.54,0,0,1,.55-.55h6.18a.54.54,0,0,1,.54.53V14.1a.55.55,0,0,1-.57.54Zm-2.36-1.87a.61.61,0,0,0-.62.61.62.62,0,0,0,.62.62.63.63,0,0,0,.62-.61A.62.62,0,0,0,14.43,12.77Z"/></g></g></svg>